sources
<glyph name="exclam" format="2">
  <advance width="378"/>
  <unicode hex="0021"/>
  <outline>
    <contour>
      <point x="110" y="1286" type="qcurve"/>
      <point x="156" y="1286" type="line"/>
      <point x="158" y="1285" type="line"/>
      <point x="165" y="1284" type="line"/>
      <point x="170" y="1282"/>
      <point x="177" y="1280" type="qcurve"/>
      <point x="179" y="1279" type="line"/>
      <point x="184" y="1276"/>
      <point x="191" y="1272" type="qcurve"/>
      <point x="196" y="1270"/>
      <point x="202" y="1264" type="qcurve"/>
      <point x="211" y="1257" type="line"/>
      <point x="212" y="1255" type="line"/>
      <point x="221" y="1245" type="line"/>
      <point x="224" y="1241"/>
      <point x="228" y="1234" type="qcurve"/>
      <point x="232" y="1230"/>
      <point x="235" y="1222" type="qcurve"/>
      <point x="239" y="1217"/>
      <point x="241" y="1209" type="qcurve"/>
      <point x="244" y="1204"/>
      <point x="247" y="1196" type="qcurve"/>
      <point x="248" y="1192"/>
      <point x="251" y="1184" type="qcurve"/>
      <point x="251" y="1181" type="line"/>
      <point x="254" y="1175"/>
      <point x="255" y="1167" type="qcurve"/>
      <point x="257" y="1161"/>
      <point x="258" y="1153" type="qcurve"/>
      <point x="259" y="1151" type="line"/>
      <point x="260" y="1146"/>
      <point x="261" y="1138" type="qcurve"/>
      <point x="262" y="1136" type="line"/>
      <point x="262" y="1129"/>
      <point x="264" y="1119" type="qcurve"/>
      <point x="266" y="1102" type="line"/>
      <point x="266" y="1096" type="line"/>
      <point x="267" y="1090" type="line"/>
      <point x="267" y="980" type="line"/>
      <point x="266" y="978" type="line"/>
      <point x="266" y="972" type="line"/>
      <point x="265" y="965"/>
      <point x="265" y="954" type="qcurve"/>
      <point x="263" y="937" type="line"/>
      <point x="263" y="932"/>
      <point x="262" y="925" type="qcurve"/>
      <point x="262" y="922" type="line"/>
      <point x="261" y="920" type="line"/>
      <point x="260" y="903" type="line"/>
      <point x="258" y="896"/>
      <point x="258" y="886" type="qcurve"/>
      <point x="256" y="879"/>
      <point x="255" y="870" type="qcurve"/>
      <point x="253" y="854" type="line"/>
      <point x="253" y="847"/>
      <point x="250" y="838" type="qcurve"/>
      <point x="248" y="821" type="line"/>
      <point x="236" y="757" type="line"/>
      <point x="234" y="751"/>
      <point x="233" y="741" type="qcurve"/>
      <point x="229" y="726" type="line"/>
      <point x="229" y="719"/>
      <point x="226" y="711" type="qcurve"/>
      <point x="223" y="695" type="line"/>
      <point x="219" y="680" type="line"/>
      <point x="217" y="673"/>
      <point x="216" y="664" type="qcurve"/>
      <point x="214" y="657" type="line"/>
      <point x="213" y="654"/>
      <point x="212" y="649" type="qcurve"/>
      <point x="211" y="644"/>
      <point x="209" y="637" type="qcurve"/>
      <point x="208" y="635" type="line"/>
      <point x="207" y="628"/>
      <point x="204" y="619" type="qcurve"/>
      <point x="203" y="613"/>
      <point x="201" y="607" type="qcurve"/>
      <point x="201" y="604" type="line"/>
      <point x="198" y="598"/>
      <point x="197" y="589" type="qcurve"/>
      <point x="194" y="583"/>
      <point x="193" y="574" type="qcurve"/>
      <point x="190" y="568"/>
      <point x="189" y="559" type="qcurve"/>
      <point x="185" y="549" type="line"/>
      <point x="184" y="545" type="line"/>
      <point x="183" y="539"/>
      <point x="180" y="531" type="qcurve"/>
      <point x="174" y="509" type="line"/>
      <point x="173" y="506"/>
      <point x="172" y="501" type="qcurve"/>
      <point x="167" y="487" type="line"/>
      <point x="166" y="481"/>
      <point x="163" y="473" type="qcurve"/>
      <point x="162" y="468"/>
      <point x="159" y="461" type="qcurve"/>
      <point x="159" y="458" type="line"/>
      <point x="157" y="452"/>
      <point x="154" y="444" type="qcurve"/>
      <point x="153" y="439"/>
      <point x="150" y="432" type="qcurve"/>
      <point x="150" y="429" type="line"/>
      <point x="147" y="423"/>
      <point x="145" y="415" type="qcurve"/>
      <point x="143" y="409"/>
      <point x="140" y="401" type="qcurve"/>
      <point x="136" y="387" type="line"/>
      <point x="134" y="381"/>
      <point x="131" y="373" type="qcurve"/>
      <point x="129" y="369"/>
      <point x="127" y="361" type="qcurve"/>
      <point x="126" y="359" type="line"/>
      <point x="126" y="349"/>
      <point x="119" y="348" type="qcurve"/>
      <point x="116" y="364" type="line"/>
      <point x="112" y="378" type="line"/>
      <point x="109" y="394" type="line"/>
      <point x="108" y="399"/>
      <point x="105" y="406" type="qcurve"/>
      <point x="104" y="412"/>
      <point x="103" y="416" type="qcurve"/>
      <point x="101" y="424" type="line"/>
      <point x="98" y="440" type="line"/>
      <point x="96" y="446"/>
      <point x="94" y="455" type="qcurve"/>
      <point x="93" y="460"/>
      <point x="91" y="468" type="qcurve"/>
      <point x="91" y="471" type="line"/>
      <point x="89" y="477"/>
      <point x="87" y="486" type="qcurve"/>
      <point x="85" y="493" type="line"/>
      <point x="84" y="501" type="line"/>
      <point x="80" y="516" type="line"/>
      <point x="77" y="532" type="line"/>
      <point x="73" y="547" type="line"/>
      <point x="72" y="554" type="line"/>
      <point x="70" y="562" type="line"/>
      <point x="69" y="569"/>
      <point x="67" y="578" type="qcurve"/>
      <point x="63" y="593" type="line"/>
      <point x="60" y="609" type="line"/>
      <point x="58" y="615"/>
      <point x="57" y="625" type="qcurve"/>
      <point x="55" y="632" type="line"/>
      <point x="54" y="640" type="line"/>
      <point x="50" y="655" type="line"/>
      <point x="50" y="662"/>
      <point x="47" y="671" type="qcurve"/>
      <point x="46" y="678"/>
      <point x="44" y="687" type="qcurve"/>
      <point x="41" y="703" type="line"/>
      <point x="40" y="710"/>
      <point x="38" y="719" type="qcurve"/>
      <point x="37" y="726"/>
      <point x="35" y="735" type="qcurve"/>
      <point x="33" y="742" type="line"/>
      <point x="32" y="750" type="line"/>
      <point x="31" y="757"/>
      <point x="29" y="766" type="qcurve"/>
      <point x="29" y="771"/>
      <point x="27" y="779" type="qcurve"/>
      <point x="27" y="782" type="line"/>
      <point x="25" y="788"/>
      <point x="24" y="799" type="qcurve"/>
      <point x="22" y="806" type="line"/>
      <point x="22" y="813" type="line"/>
      <point x="21" y="814" type="line"/>
      <point x="19" y="831" type="line"/>
      <point x="16" y="847" type="line"/>
      <point x="14" y="864" type="line"/>
      <point x="13" y="870"/>
      <point x="12" y="881" type="qcurve"/>
      <point x="10" y="888"/>
      <point x="10" y="897" type="qcurve"/>
      <point x="8" y="904"/>
      <point x="8" y="914" type="qcurve"/>
      <point x="6" y="921"/>
      <point x="6" y="932" type="qcurve"/>
      <point x="5" y="939"/>
      <point x="4" y="948" type="qcurve"/>
      <point x="3" y="955" type="line"/>
      <point x="3" y="965" type="line"/>
      <point x="2" y="965" type="line"/>
      <point x="2" y="976" type="line"/>
      <point x="1" y="977" type="line"/>
      <point x="1" y="990" type="line"/>
      <point x="0" y="995" type="line"/>
      <point x="0" y="1105" type="line"/>
      <point x="1" y="1107" type="line"/>
      <point x="1" y="1113" type="line"/>
      <point x="2" y="1127" type="line"/>
      <point x="3" y="1130" type="line"/>
      <point x="5" y="1147" type="line"/>
      <point x="7" y="1153"/>
      <point x="8" y="1162" type="qcurve"/>
      <point x="16" y="1192" type="line"/>
      <point x="18" y="1198"/>
      <point x="21" y="1206" type="qcurve"/>
      <point x="23" y="1211"/>
      <point x="27" y="1219" type="qcurve"/>
      <point x="33" y="1231" type="line"/>
      <point x="37" y="1235"/>
      <point x="39" y="1241" type="qcurve"/>
      <point x="41" y="1242" type="line"/>
      <point x="44" y="1247"/>
      <point x="50" y="1253" type="qcurve"/>
      <point x="53" y="1256"/>
      <point x="57" y="1261" type="qcurve"/>
      <point x="59" y="1261" type="line"/>
      <point x="59" y="1262" type="line"/>
      <point x="70" y="1270" type="line"/>
      <point x="74" y="1273"/>
      <point x="82" y="1276" type="qcurve"/>
      <point x="88" y="1280"/>
      <point x="96" y="1282" type="qcurve"/>
      <point x="102" y="1283"/>
    </contour>
    <contour>
      <point x="135" y="263" type="qcurve"/>
      <point x="137" y="260"/>
      <point x="142" y="257" type="qcurve"/>
      <point x="142" y="256"/>
      <point x="144" y="255" type="qcurve"/>
      <point x="147" y="251"/>
      <point x="152" y="246" type="qcurve"/>
      <point x="155" y="243"/>
      <point x="160" y="238" type="qcurve"/>
      <point x="163" y="235"/>
      <point x="168" y="230" type="qcurve"/>
      <point x="170" y="227"/>
      <point x="175" y="224" type="qcurve"/>
      <point x="175" y="223"/>
      <point x="177" y="222" type="qcurve"/>
      <point x="180" y="218"/>
      <point x="185" y="213" type="qcurve"/>
      <point x="188" y="210"/>
      <point x="193" y="205" type="qcurve"/>
      <point x="196" y="202"/>
      <point x="201" y="197" type="qcurve"/>
      <point x="204" y="194"/>
      <point x="209" y="189" type="qcurve"/>
      <point x="211" y="186"/>
      <point x="216" y="183" type="qcurve"/>
      <point x="216" y="182"/>
      <point x="218" y="181" type="qcurve"/>
      <point x="221" y="177"/>
      <point x="226" y="172" type="qcurve"/>
      <point x="229" y="169"/>
      <point x="234" y="164" type="qcurve"/>
      <point x="237" y="161"/>
      <point x="242" y="156" type="qcurve"/>
      <point x="245" y="153"/>
      <point x="250" y="148" type="qcurve"/>
      <point x="252" y="145"/>
      <point x="257" y="142" type="qcurve"/>
      <point x="257" y="141"/>
      <point x="259" y="140" type="qcurve"/>
      <point x="262" y="136"/>
      <point x="267" y="132" type="qcurve"/>
      <point x="265" y="128"/>
      <point x="260" y="122" type="qcurve"/>
      <point x="256" y="119"/>
      <point x="251" y="114" type="qcurve"/>
      <point x="248" y="111"/>
      <point x="243" y="106" type="qcurve"/>
      <point x="240" y="103"/>
      <point x="235" y="98" type="qcurve"/>
      <point x="232" y="96"/>
      <point x="229" y="91" type="qcurve"/>
      <point x="228" y="91"/>
      <point x="227" y="89" type="qcurve"/>
      <point x="223" y="86"/>
      <point x="218" y="81" type="qcurve"/>
      <point x="215" y="78"/>
      <point x="210" y="73" type="qcurve"/>
      <point x="207" y="70"/>
      <point x="202" y="65" type="qcurve"/>
      <point x="199" y="62"/>
      <point x="194" y="57" type="qcurve"/>
      <point x="191" y="55"/>
      <point x="188" y="50" type="qcurve"/>
      <point x="187" y="50"/>
      <point x="186" y="48" type="qcurve"/>
      <point x="182" y="45"/>
      <point x="177" y="40" type="qcurve"/>
      <point x="174" y="37"/>
      <point x="169" y="32" type="qcurve"/>
      <point x="166" y="29"/>
      <point x="161" y="24" type="qcurve"/>
      <point x="158" y="21"/>
      <point x="153" y="16" type="qcurve"/>
      <point x="150" y="14"/>
      <point x="147" y="9" type="qcurve"/>
      <point x="146" y="9"/>
      <point x="145" y="7" type="qcurve"/>
      <point x="141" y="3"/>
      <point x="136" y="0" type="qcurve"/>
      <point x="132" y="2"/>
      <point x="127" y="8" type="qcurve"/>
      <point x="124" y="11"/>
      <point x="119" y="16" type="qcurve"/>
      <point x="117" y="19"/>
      <point x="112" y="22" type="qcurve"/>
      <point x="112" y="23"/>
      <point x="110" y="24" type="qcurve"/>
      <point x="107" y="28"/>
      <point x="102" y="33" type="qcurve"/>
      <point x="99" y="36"/>
      <point x="94" y="41" type="qcurve"/>
      <point x="91" y="44"/>
      <point x="86" y="49" type="qcurve"/>
      <point x="84" y="52"/>
      <point x="79" y="55" type="qcurve"/>
      <point x="79" y="56"/>
      <point x="77" y="57" type="qcurve"/>
      <point x="74" y="61"/>
      <point x="69" y="65" type="qcurve"/>
      <point x="66" y="69"/>
      <point x="61" y="74" type="qcurve"/>
      <point x="58" y="77"/>
      <point x="53" y="82" type="qcurve"/>
      <point x="50" y="85"/>
      <point x="45" y="90" type="qcurve"/>
      <point x="42" y="93"/>
      <point x="37" y="98" type="qcurve"/>
      <point x="35" y="101"/>
      <point x="30" y="104" type="qcurve"/>
      <point x="30" y="105"/>
      <point x="28" y="106" type="qcurve"/>
      <point x="25" y="110"/>
      <point x="20" y="115" type="qcurve"/>
      <point x="17" y="118"/>
      <point x="12" y="123" type="qcurve"/>
      <point x="8" y="126"/>
      <point x="5" y="131" type="qcurve"/>
      <point x="8" y="134"/>
      <point x="13" y="139" type="qcurve"/>
      <point x="16" y="142"/>
      <point x="21" y="147" type="qcurve"/>
      <point x="24" y="149"/>
      <point x="27" y="154" type="qcurve"/>
      <point x="28" y="154"/>
      <point x="29" y="156" type="qcurve"/>
      <point x="33" y="159"/>
      <point x="38" y="164" type="qcurve"/>
      <point x="41" y="167"/>
      <point x="46" y="172" type="qcurve"/>
      <point x="49" y="175"/>
      <point x="54" y="180" type="qcurve"/>
      <point x="57" y="182"/>
      <point x="60" y="187" type="qcurve"/>
      <point x="61" y="187"/>
      <point x="62" y="189" type="qcurve"/>
      <point x="66" y="192"/>
      <point x="70" y="197" type="qcurve"/>
      <point x="74" y="200"/>
      <point x="79" y="205" type="qcurve"/>
      <point x="82" y="208"/>
      <point x="87" y="213" type="qcurve"/>
      <point x="90" y="216"/>
      <point x="95" y="221" type="qcurve"/>
      <point x="98" y="224"/>
      <point x="103" y="229" type="qcurve"/>
      <point x="106" y="231"/>
      <point x="109" y="236" type="qcurve"/>
      <point x="110" y="236"/>
      <point x="111" y="238" type="qcurve"/>
      <point x="115" y="241"/>
      <point x="120" y="246" type="qcurve"/>
      <point x="123" y="249"/>
      <point x="128" y="254" type="qcurve"/>
      <point x="132" y="258"/>
    </contour>
  </outline>
</glyph>
<glyph name="five" format="2">
  <advance width="811"/>
  <unicode hex="0035"/>
  <outline>
    <contour>
      <point x="123" y="456" type="line"/>
      <point x="182" y="1025" type="line"/>
      <point x="695" y="1025" type="line"/>
      <point x="695" y="902" type="line"/>
      <point x="299" y="902" type="line"/>
      <point x="266" y="607" type="line"/>
      <point x="300" y="632"/>
      <point x="379" y="663"/>
      <point x="431" y="663" type="qcurve"/>
      <point x="573" y="666"/>
      <point x="734" y="484"/>
      <point x="734" y="326" type="qcurve"/>
      <point x="734" y="172"/>
      <point x="569" y="-15"/>
      <point x="410" y="-15" type="qcurve"/>
      <point x="280" y="-15"/>
      <point x="107" y="127"/>
      <point x="111" y="266" type="qcurve"/>
      <point x="112" y="270" type="line"/>
      <point x="238" y="270" type="line"/>
      <point x="238" y="186"/>
      <point x="334" y="94"/>
      <point x="410" y="94" type="qcurve"/>
      <point x="498" y="94"/>
      <point x="596" y="218"/>
      <point x="596" y="326" type="qcurve"/>
      <point x="596" y="424"/>
      <point x="498" y="544"/>
      <point x="410" y="544" type="qcurve"/>
      <point x="329" y="544"/>
      <point x="255" y="494"/>
      <point x="238" y="443" type="qcurve"/>
    </contour>
  </outline>
</glyph>
<glyph name="at" format="2">
  <advance width="1290"/>
  <unicode hex="0040"/>
  <outline>
    <contour>
      <point x="1220" y="354" type="qcurve"/>
      <point x="1213" y="203"/>
      <point x="1057" y="-15"/>
      <point x="901" y="-15" type="qcurve"/>
      <point x="850" y="-15"/>
      <point x="775" y="44"/>
      <point x="758" y="97" type="qcurve"/>
      <point x="723" y="41"/>
      <point x="622" y="-15"/>
      <point x="554" y="-15" type="qcurve"/>
      <point x="466" y="-15"/>
      <point x="370" y="155"/>
      <point x="382" y="293" type="qcurve"/>
      <point x="398" y="475"/>
      <point x="560" y="695"/>
      <point x="676" y="695" type="qcurve"/>
      <point x="750" y="695"/>
      <point x="839" y="659"/>
      <point x="892" y="622" type="qcurve"/>
      <point x="890" y="618" type="line"/>
      <point x="894" y="618" type="line"/>
      <point x="858" y="206" type="line"/>
      <point x="851" y="129"/>
      <point x="895" y="70"/>
      <point x="931" y="70" type="qcurve"/>
      <point x="1018" y="70"/>
      <point x="1121" y="230"/>
      <point x="1127" y="354" type="qcurve"/>
      <point x="1138" y="623"/>
      <point x="914" y="923"/>
      <point x="677" y="923" type="qcurve"/>
      <point x="459" y="923"/>
      <point x="195" y="598"/>
      <point x="185" y="336" type="qcurve"/>
      <point x="173" y="72"/>
      <point x="410" y="-236"/>
      <point x="630" y="-236" type="qcurve"/>
      <point x="693" y="-236"/>
      <point x="819" y="-206"/>
      <point x="863" y="-182" type="qcurve"/>
      <point x="890" y="-256" type="line"/>
      <point x="843" y="-287"/>
      <point x="697" y="-318"/>
      <point x="627" y="-318" type="qcurve"/>
      <point x="360" y="-318"/>
      <point x="68" y="33"/>
      <point x="80" y="336" type="qcurve"/>
      <point x="94" y="634"/>
      <point x="417" y="1007"/>
      <point x="679" y="1007" type="qcurve"/>
      <point x="946" y="1007"/>
      <point x="1231" y="656"/>
    </contour>
    <contour>
      <point x="507" y="293" type="qcurve"/>
      <point x="499" y="193"/>
      <point x="545" y="89"/>
      <point x="597" y="89" type="qcurve"/>
      <point x="642" y="89"/>
      <point x="716" y="123"/>
      <point x="748" y="167" type="qcurve"/>
      <point x="747" y="176"/>
      <point x="748" y="195"/>
      <point x="749" y="206" type="qcurve"/>
      <point x="782" y="586" type="line"/>
      <point x="764" y="593"/>
      <point x="723" y="604"/>
      <point x="702" y="604" type="qcurve"/>
      <point x="614" y="604"/>
      <point x="521" y="449"/>
    </contour>
  </outline>
</glyph>
<glyph name="C" format="2">
  <advance width="914"/>
  <unicode hex="0043"/>
  <outline>
    <contour>
      <point x="851" y="328" type="line"/>
      <point x="853" y="324" type="line"/>
      <point x="856" y="179"/>
      <point x="647" y="-15"/>
      <point x="476" y="-15" type="qcurve"/>
      <point x="302" y="-15"/>
      <point x="82" y="231"/>
      <point x="82" y="421" type="qcurve"/>
      <point x="82" y="604" type="line"/>
      <point x="82" y="792"/>
      <point x="302" y="1040"/>
      <point x="650" y="1040"/>
      <point x="855" y="854"/>
      <point x="853" y="702" type="qcurve"/>
      <point x="851" y="698" type="line"/>
      <point x="718" y="698" type="line"/>
      <point x="718" y="806"/>
      <point x="591" y="931"/>
      <point x="476" y="931" type="qcurve"/>
      <point x="360" y="931"/>
      <point x="222" y="744"/>
      <point x="222" y="605" type="qcurve"/>
      <point x="222" y="421" type="line"/>
      <point x="222" y="281"/>
      <point x="360" y="94"/>
      <point x="476" y="94" type="qcurve"/>
      <point x="592" y="94"/>
      <point x="718" y="218"/>
      <point x="718" y="328" type="qcurve"/>
    </contour>
  </outline>
</glyph>
<glyph name="G" format="2">
  <advance width="976"/>
  <unicode hex="0047"/>
  <outline>
    <contour>
      <point x="857" y="138" type="line"/>
      <point x="820" y="81"/>
      <point x="639" y="-15"/>
      <point x="494" y="-15" type="qcurve"/>
      <point x="318" y="-15"/>
      <point x="86" y="220"/>
      <point x="86" y="406" type="qcurve"/>
      <point x="86" y="618" type="line"/>
      <point x="86" y="804"/>
      <point x="309" y="1040"/>
      <point x="486" y="1040" type="qcurve"/>
      <point x="657" y="1040"/>
      <point x="855" y="857"/>
      <point x="853" y="716" type="qcurve"/>
      <point x="851" y="713" type="line"/>
      <point x="718" y="713" type="line"/>
      <point x="718" y="806"/>
      <point x="597" y="931"/>
      <point x="486" y="931" type="qcurve"/>
      <point x="368" y="931"/>
      <point x="224" y="755"/>
      <point x="224" y="619" type="qcurve"/>
      <point x="224" y="406" type="line"/>
      <point x="224" y="270"/>
      <point x="377" y="94"/>
      <point x="494" y="94" type="qcurve"/>
      <point x="586" y="94"/>
      <point x="692" y="141"/>
      <point x="718" y="174" type="qcurve"/>
      <point x="718" y="404" type="line"/>
      <point x="486" y="404" type="line"/>
      <point x="486" y="512" type="line"/>
      <point x="857" y="512" type="line"/>
    </contour>
  </outline>
</glyph>
<glyph name="c" format="2">
  <advance width="754"/>
  <unicode hex="0063"/>
  <outline>
    <contour>
      <point x="403" y="94" type="qcurve"/>
      <point x="467" y="94"/>
      <point x="563" y="178"/>
      <point x="563" y="241" type="qcurve"/>
      <point x="688" y="241" type="line"/>
      <point x="691" y="237" type="line"/>
      <point x="694" y="138"/>
      <point x="519" y="-15"/>
      <point x="403" y="-15" type="qcurve"/>
      <point x="244" y="-15"/>
      <point x="69" y="203"/>
      <point x="69" y="366" type="qcurve"/>
      <point x="69" y="396" type="line"/>
      <point x="69" y="556"/>
      <point x="244" y="776"/>
      <point x="403" y="776" type="qcurve"/>
      <point x="530" y="776"/>
      <point x="694" y="618"/>
      <point x="691" y="503" type="qcurve"/>
      <point x="689" y="499" type="line"/>
      <point x="563" y="499" type="line"/>
      <point x="563" y="569"/>
      <point x="473" y="667"/>
      <point x="403" y="667" type="qcurve"/>
      <point x="301" y="667"/>
      <point x="208" y="509"/>
      <point x="208" y="396" type="qcurve"/>
      <point x="208" y="366" type="line"/>
      <point x="208" y="252"/>
      <point x="300" y="94"/>
    </contour>
  </outline>
</glyph>
<glyph name="s" format="2">
  <advance width="754"/>
  <unicode hex="0073"/>
  <outline>
    <contour>
      <point x="544" y="205" type="qcurve"/>
      <point x="544" y="250"/>
      <point x="474" y="308"/>
      <point x="377" y="330" type="qcurve"/>
      <point x="242" y="359"/>
      <point x="98" y="463"/>
      <point x="98" y="551" type="qcurve"/>
      <point x="98" y="642"/>
      <point x="256" y="776"/>
      <point x="382" y="776" type="qcurve"/>
      <point x="512" y="776"/>
      <point x="672" y="635"/>
      <point x="669" y="541" type="qcurve"/>
      <point x="667" y="537" type="line"/>
      <point x="535" y="537" type="line"/>
      <point x="535" y="586"/>
      <point x="449" y="667"/>
      <point x="382" y="667" type="qcurve"/>
      <point x="308" y="667"/>
      <point x="237" y="600"/>
      <point x="237" y="554" type="qcurve"/>
      <point x="237" y="510"/>
      <point x="299" y="460"/>
      <point x="397" y="440" type="qcurve"/>
      <point x="537" y="410"/>
      <point x="682" y="302"/>
      <point x="682" y="214" type="qcurve"/>
      <point x="682" y="114"/>
      <point x="518" y="-15"/>
      <point x="386" y="-15" type="qcurve"/>
      <point x="240" y="-15"/>
      <point x="72" y="133"/>
      <point x="77" y="231" type="qcurve"/>
      <point x="78" y="236" type="line"/>
      <point x="210" y="236" type="line"/>
      <point x="214" y="162"/>
      <point x="317" y="94"/>
      <point x="386" y="94" type="qcurve"/>
      <point x="459" y="94"/>
      <point x="544" y="157"/>
    </contour>
  </outline>
</glyph>
<glyph name="braceright" format="2">
  <advance width="551"/>
  <unicode hex="007D"/>
  <outline>
    <contour>
      <point x="324" y="555" type="line"/>
      <point x="271" y="472" type="line"/>
      <point x="193" y="527" type="line"/>
      <point x="244" y="614" type="line"/>
    </contour>
    <contour>
      <point x="426" y="497" type="line"/>
      <point x="423" y="493" type="line"/>
      <point x="420" y="488" type="line"/>
      <point x="419" y="480"/>
      <point x="416" y="476" type="qcurve"/>
      <point x="413" y="469"/>
      <point x="410" y="465" type="qcurve"/>
      <point x="409" y="462" type="line"/>
      <point x="403" y="445"/>
      <point x="395" y="435" type="qcurve"/>
      <point x="395" y="429" type="line"/>
      <point x="398" y="427" type="line"/>
      <point x="410" y="396" type="line"/>
      <point x="450" y="321"/>
      <point x="447" y="246" type="qcurve"/>
      <point x="383" y="201"/>
      <point x="312" y="191" type="qcurve"/>
      <point x="184" y="170"/>
      <point x="110" y="250" type="qcurve"/>
      <point x="51" y="336"/>
      <point x="105" y="449" type="qcurve"/>
      <point x="109" y="463"/>
      <point x="98" y="465" type="qcurve"/>
      <point x="95" y="462" type="line"/>
      <point x="92" y="459" type="line"/>
      <point x="88" y="456" type="line"/>
      <point x="85" y="449"/>
      <point x="81" y="446" type="qcurve"/>
      <point x="78" y="436"/>
      <point x="72" y="431" type="qcurve"/>
      <point x="-50" y="97"/>
      <point x="282" y="104" type="qcurve"/>
      <point x="401" y="121"/>
      <point x="465" y="204" type="qcurve"/>
      <point x="467" y="214"/>
      <point x="472" y="221" type="qcurve"/>
      <point x="472" y="225" type="line"/>
      <point x="473" y="229" type="line"/>
      <point x="480" y="248" type="line"/>
      <point x="482" y="259" type="line"/>
      <point x="486" y="276"/>
      <point x="486" y="288" type="qcurve"/>
      <point x="494" y="414"/>
      <point x="435" y="512" type="qcurve"/>
    </contour>
  </outline>
</glyph>
<glyph name="section" format="2">
  <advance width="662"/>
  <unicode hex="00A7"/>
  <outline>
    <contour>
      <point x="430" y="705" type="qcurve"/>
      <point x="433" y="705" type="line"/>
      <point x="460" y="711"/>
      <point x="491" y="737"/>
      <point x="491" y="757" type="qcurve"/>
      <point x="491" y="772"/>
      <point x="472" y="795"/>
      <point x="442" y="812"/>
      <point x="404" y="821"/>
      <point x="385" y="821" type="qcurve"/>
      <point x="350" y="821"/>
      <point x="271" y="781"/>
      <point x="206" y="721"/>
      <point x="164" y="649"/>
      <point x="164" y="615" type="qcurve"/>
      <point x="164" y="594"/>
      <point x="180" y="553"/>
      <point x="208" y="515"/>
      <point x="243" y="477"/>
      <point x="261" y="460" type="qcurve"/>
      <point x="280" y="439"/>
      <point x="329" y="392"/>
      <point x="378" y="339"/>
      <point x="425" y="284"/>
      <point x="444" y="256" type="qcurve"/>
      <point x="469" y="221"/>
      <point x="501" y="150"/>
      <point x="501" y="117" type="qcurve"/>
      <point x="501" y="78"/>
      <point x="471" y="29"/>
      <point x="457" y="15" type="qcurve"/>
      <point x="476" y="-21" type="line"/>
      <point x="525" y="31"/>
      <point x="571" y="122"/>
      <point x="571" y="178" type="qcurve"/>
      <point x="571" y="211"/>
      <point x="539" y="286"/>
      <point x="512" y="323" type="qcurve"/>
      <point x="486" y="358"/>
      <point x="426" y="427"/>
      <point x="360" y="495"/>
      <point x="293" y="561"/>
      <point x="264" y="591" type="qcurve"/>
      <point x="235" y="618"/>
      <point x="235" y="654" type="qcurve"/>
      <point x="235" y="675"/>
      <point x="252" y="711"/>
      <point x="279" y="733"/>
      <point x="315" y="746"/>
      <point x="335" y="746" type="qcurve"/>
      <point x="361" y="746"/>
      <point x="414" y="721"/>
    </contour>
    <contour>
      <point x="224" y="-160" type="qcurve"/>
      <point x="222" y="-160" type="line"/>
      <point x="201" y="-163"/>
      <point x="169" y="-184"/>
      <point x="169" y="-205" type="qcurve"/>
      <point x="169" y="-223"/>
      <point x="189" y="-249"/>
      <point x="218" y="-265"/>
      <point x="252" y="-272"/>
      <point x="266" y="-272" type="qcurve"/>
      <point x="302" y="-272"/>
      <point x="381" y="-233"/>
      <point x="446" y="-172"/>
      <point x="487" y="-95"/>
      <point x="487" y="-59" type="qcurve"/>
      <point x="487" y="-39"/>
      <point x="470" y="2"/>
      <point x="442" y="42"/>
      <point x="407" y="78"/>
      <point x="389" y="96" type="qcurve"/>
      <point x="370" y="117"/>
      <point x="323" y="163"/>
      <point x="275" y="213"/>
      <point x="230" y="266"/>
      <point x="210" y="294" type="qcurve"/>
      <point x="186" y="329"/>
      <point x="154" y="398"/>
      <point x="154" y="432" type="qcurve"/>
      <point x="154" y="470"/>
      <point x="183" y="520"/>
      <point x="196" y="533" type="qcurve"/>
      <point x="177" y="570" type="line"/>
      <point x="152" y="543"/>
      <point x="117" y="495"/>
      <point x="95" y="448"/>
      <point x="84" y="398"/>
      <point x="84" y="372" type="qcurve"/>
      <point x="84" y="338"/>
      <point x="117" y="265"/>
      <point x="143" y="227" type="qcurve"/>
      <point x="167" y="193"/>
      <point x="227" y="125"/>
      <point x="293" y="59"/>
      <point x="358" y="-6"/>
      <point x="387" y="-34" type="qcurve"/>
      <point x="394" y="-42"/>
      <point x="404" y="-55"/>
      <point x="407" y="-63" type="qcurve"/>
      <point x="416" y="-79"/>
      <point x="416" y="-97" type="qcurve"/>
      <point x="416" y="-119"/>
      <point x="400" y="-156"/>
      <point x="374" y="-183"/>
      <point x="338" y="-197"/>
      <point x="318" y="-197" type="qcurve"/>
      <point x="293" y="-197"/>
      <point x="243" y="-176"/>
    </contour>
  </outline>
</glyph>
<glyph name="wawhamzaabove-arab" format="2">
  <advance width="610"/>
  <unicode hex="0624"/>
  <anchor x="171" y="1442" name="top-arab"/>
  <anchor x="114" y="-628" name="bottom-arab"/>
  <outline>
    <contour>
      <point x="411" y="530" type="line"/>
      <point x="444" y="533"/>
      <point x="475" y="512" type="qcurve"/>
      <point x="479" y="507"/>
      <point x="485" y="502" type="qcurve"/>
      <point x="487" y="498"/>
      <point x="492" y="496" type="qcurve"/>
      <point x="494" y="493" type="line"/>
      <point x="497" y="491" type="line"/>
      <point x="499" y="488" type="line"/>
      <point x="501" y="485" type="line"/>
      <point x="503" y="480"/>
      <point x="507" y="477" type="qcurve"/>
      <point x="509" y="470"/>
      <point x="516" y="463" type="qcurve"/>
      <point x="520" y="457" type="line"/>
      <point x="521" y="454" type="line"/>
      <point x="522" y="452" type="line"/>
      <point x="523" y="449" type="line"/>
      <point x="525" y="447" type="line"/>
      <point x="527" y="443" type="line"/>
      <point x="529" y="438"/>
      <point x="533" y="433" type="qcurve"/>
      <point x="534" y="429"/>
      <point x="537" y="425" type="qcurve"/>
      <point x="539" y="422" type="line"/>
      <point x="540" y="418" type="line"/>
      <point x="542" y="413"/>
      <point x="545" y="407" type="qcurve"/>
      <point x="548" y="397"/>
      <point x="556" y="380" type="qcurve"/>
      <point x="556" y="379"/>
      <point x="557" y="377" type="qcurve"/>
      <point x="558" y="371"/>
      <point x="561" y="365" type="qcurve"/>
      <point x="567" y="338" type="line"/>
      <point x="567" y="337"/>
      <point x="568" y="335" type="qcurve"/>
      <point x="569" y="331" type="line"/>
      <point x="569" y="323"/>
      <point x="572" y="315" type="qcurve"/>
      <point x="572" y="312" type="line"/>
      <point x="572" y="309" type="line"/>
      <point x="573" y="306" type="line"/>
      <point x="573" y="304" type="line"/>
      <point x="574" y="301" type="line"/>
      <point x="574" y="297" type="line"/>
      <point x="575" y="293" type="line"/>
      <point x="574" y="288"/>
      <point x="576" y="282" type="qcurve"/>
      <point x="576" y="279" type="line"/>
      <point x="576" y="263" type="line"/>
      <point x="576" y="260" type="line"/>
      <point x="576" y="257" type="line"/>
      <point x="576" y="253" type="line"/>
      <point x="576" y="248" type="line"/>
      <point x="576" y="238" type="line"/>
      <point x="576" y="234" type="line"/>
      <point x="576" y="221" type="line"/>
      <point x="574" y="206" type="line"/>
      <point x="574" y="202"/>
      <point x="573" y="198" type="qcurve"/>
      <point x="573" y="195" type="line"/>
      <point x="573" y="189" type="line"/>
      <point x="571" y="182"/>
      <point x="570" y="172" type="qcurve"/>
      <point x="569" y="170" type="line"/>
      <point x="569" y="167" type="line"/>
      <point x="568" y="165" type="line"/>
      <point x="568" y="161" type="line"/>
      <point x="565" y="150" type="line"/>
      <point x="565" y="147" type="line"/>
      <point x="564" y="144" type="line"/>
      <point x="561" y="128" type="line"/>
      <point x="560" y="125" type="line"/>
      <point x="559" y="120"/>
      <point x="557" y="114" type="qcurve"/>
      <point x="555" y="107" type="line"/>
      <point x="555" y="104" type="line"/>
      <point x="552" y="97"/>
      <point x="549" y="87" type="qcurve"/>
      <point x="547" y="80" type="line"/>
      <point x="545" y="76" type="line"/>
      <point x="544" y="73" type="line"/>
      <point x="543" y="69" type="line"/>
      <point x="540" y="63"/>
      <point x="540" y="57" type="qcurve"/>
      <point x="528" y="30" type="line"/>
      <point x="527" y="28" type="line"/>
      <point x="525" y="21" type="line"/>
      <point x="523" y="18" type="line"/>
      <point x="522" y="14" type="line"/>
      <point x="521" y="11" type="line"/>
      <point x="520" y="8" type="line"/>
      <point x="515" y="-1" type="line"/>
      <point x="506" y="-22" type="line"/>
      <point x="497" y="-39" type="line"/>
      <point x="496" y="-42" type="line"/>
      <point x="494" y="-45"/>
      <point x="492" y="-49" type="qcurve"/>
      <point x="491" y="-52" type="line"/>
      <point x="489" y="-55"/>
      <point x="487" y="-60" type="qcurve"/>
      <point x="483" y="-64"/>
      <point x="482" y="-70" type="qcurve"/>
      <point x="479" y="-73"/>
      <point x="477" y="-77" type="qcurve"/>
      <point x="475" y="-79" type="line"/>
      <point x="474" y="-82" type="line"/>
      <point x="473" y="-84" type="line"/>
      <point x="467" y="-91"/>
      <point x="460" y="-102" type="qcurve"/>
      <point x="458" y="-106"/>
      <point x="453" y="-110" type="qcurve"/>
      <point x="452" y="-113" type="line"/>
      <point x="449" y="-115" type="line"/>
      <point x="446" y="-119" type="line"/>
      <point x="445" y="-122" type="line"/>
      <point x="443" y="-124" type="line"/>
      <point x="361" y="-235"/>
      <point x="219" y="-288" type="qcurve"/>
      <point x="213" y="-289"/>
      <point x="206" y="-292" type="qcurve"/>
      <point x="200" y="-293"/>
      <point x="192" y="-296" type="qcurve"/>
      <point x="189" y="-296" type="line"/>
      <point x="185" y="-297" type="line"/>
      <point x="176" y="-299" type="line"/>
      <point x="174" y="-300" type="line"/>
      <point x="172" y="-300"/>
      <point x="171" y="-301" type="qcurve"/>
      <point x="167" y="-301" type="line"/>
      <point x="163" y="-302" type="line"/>
      <point x="142" y="-305" type="line"/>
      <point x="124" y="-306" type="line"/>
      <point x="122" y="-307" type="line"/>
      <point x="117" y="-307" type="line"/>
      <point x="106" y="-307" type="line"/>
      <point x="102" y="-307" type="line"/>
      <point x="91" y="-307" type="line"/>
      <point x="-90" y="-306"/>
      <point x="-236" y="-168" type="qcurve"/>
      <point x="-240" y="-162"/>
      <point x="-241" y="-156" type="qcurve"/>
      <point x="-229" y="-156"/>
      <point x="-214" y="-162" type="qcurve"/>
      <point x="-207" y="-164" type="line"/>
      <point x="-197" y="-166" type="line"/>
      <point x="-191" y="-167" type="line"/>
      <point x="-181" y="-168" type="line"/>
      <point x="-174" y="-168" type="line"/>
      <point x="-172" y="-169" type="line"/>
      <point x="-169" y="-169" type="line"/>
      <point x="-167" y="-170" type="line"/>
      <point x="-150" y="-172" type="line"/>
      <point x="-140" y="-173" type="line"/>
      <point x="-133" y="-174" type="line"/>
      <point x="-130" y="-174" type="line"/>
      <point x="-128" y="-175" type="line"/>
      <point x="-125" y="-175" type="line"/>
      <point x="-119" y="-176" type="line"/>
      <point x="-115" y="-175"/>
      <point x="-110" y="-177" type="qcurve"/>
      <point x="-101" y="-177" type="line"/>
      <point x="-99" y="-178" type="line"/>
      <point x="-92" y="-178"/>
      <point x="-83" y="-179" type="qcurve"/>
      <point x="-79" y="-179" type="line"/>
      <point x="-76" y="-179" type="line"/>
      <point x="-72" y="-179" type="line"/>
      <point x="-68" y="-180" type="line"/>
      <point x="-50" y="-180" type="line"/>
      <point x="-48" y="-180" type="line"/>
      <point x="270" y="-198"/>
      <point x="485" y="56" type="qcurve"/>
      <point x="488" y="71" type="line"/>
      <point x="489" y="73" type="line"/>
      <point x="490" y="80" type="line"/>
      <point x="491" y="84" type="line"/>
      <point x="492" y="94" type="line"/>
      <point x="493" y="97" type="line"/>
      <point x="494" y="109" type="line"/>
      <point x="495" y="125" type="line"/>
      <point x="495" y="155" type="line"/>
      <point x="494" y="161" type="line"/>
      <point x="494" y="167"/>
      <point x="493" y="174" type="qcurve"/>
      <point x="476" y="172" type="line"/>
      <point x="474" y="171" type="line"/>
      <point x="471" y="171" type="line"/>
      <point x="469" y="171"/>
      <point x="468" y="170" type="qcurve"/>
      <point x="465" y="170" type="line"/>
      <point x="462" y="170" type="line"/>
      <point x="445" y="168" type="line"/>
      <point x="438" y="168"/>
      <point x="429" y="167" type="qcurve"/>
      <point x="422" y="168"/>
      <point x="413" y="166" type="qcurve"/>
      <point x="406" y="166" type="line"/>
      <point x="393" y="166" type="line"/>
      <point x="388" y="166" type="line"/>
      <point x="384" y="166" type="line"/>
      <point x="380" y="165"/>
      <point x="375" y="167" type="qcurve"/>
      <point x="365" y="167" type="line"/>
      <point x="362" y="167" type="line"/>
      <point x="345" y="169" type="line"/>
      <point x="341" y="170" type="line"/>
      <point x="338" y="170" type="line"/>
      <point x="334" y="171" type="line"/>
      <point x="331" y="171" type="line"/>
      <point x="323" y="173"/>
      <point x="310" y="179" type="qcurve"/>
      <point x="305" y="180" type="line"/>
      <point x="304" y="182" type="line"/>
      <point x="300" y="183" type="line"/>
      <point x="297" y="186"/>
      <point x="291" y="187" type="qcurve"/>
      <point x="287" y="191"/>
      <point x="280" y="197" type="qcurve"/>
      <point x="275" y="203" type="line"/>
      <point x="271" y="206" type="line"/>
      <point x="269" y="212"/>
      <point x="264" y="217" type="qcurve"/>
      <point x="254" y="241"/>
      <point x="253" y="271" type="qcurve"/>
      <point x="253" y="278"/>
      <point x="254" y="286" type="qcurve"/>
      <point x="256" y="303" type="line"/>
      <point x="257" y="305" type="line"/>
      <point x="257" y="309"/>
      <point x="259" y="314" type="qcurve"/>
      <point x="259" y="318" type="line"/>
      <point x="261" y="323"/>
      <point x="262" y="329" type="qcurve"/>
      <point x="264" y="335" type="line"/>
      <point x="265" y="337" type="line"/>
      <point x="266" y="344" type="line"/>
      <point x="266" y="346" type="line"/>
      <point x="267" y="349" type="line"/>
      <point x="268" y="352" type="line"/>
      <point x="273" y="365" type="line"/>
      <point x="276" y="373" type="line"/>
      <point x="285" y="397" type="line"/>
      <point x="286" y="399" type="line"/>
      <point x="288" y="402"/>
      <point x="288" y="406" type="qcurve"/>
      <point x="293" y="412"/>
      <point x="299" y="423" type="qcurve"/>
      <point x="301" y="425" type="line"/>
      <point x="302" y="428" type="line"/>
      <point x="304" y="430" type="line"/>
      <point x="305" y="433" type="line"/>
      <point x="308" y="436"/>
      <point x="311" y="443" type="qcurve"/>
      <point x="313" y="445" type="line"/>
      <point x="316" y="450" type="line"/>
      <point x="319" y="453" type="line"/>
      <point x="320" y="456"/>
      <point x="324" y="460" type="qcurve"/>
      <point x="325" y="463" type="line"/>
      <point x="327" y="465" type="line"/>
      <point x="329" y="469" type="line"/>
      <point x="335" y="474"/>
      <point x="341" y="482" type="qcurve"/>
      <point x="343" y="483" type="line"/>
      <point x="345" y="487" type="line"/>
      <point x="350" y="490"/>
      <point x="354" y="497" type="qcurve"/>
      <point x="356" y="498" type="line"/>
      <point x="357" y="500" type="line"/>
      <point x="363" y="503" type="line"/>
      <point x="364" y="505" type="line"/>
      <point x="369" y="509" type="line"/>
      <point x="370" y="511" type="line"/>
      <point x="375" y="513"/>
      <point x="382" y="518" type="qcurve"/>
      <point x="386" y="520"/>
      <point x="389" y="522" type="qcurve"/>
      <point x="392" y="523" type="line"/>
      <point x="401" y="527" type="line"/>
      <point x="404" y="527" type="line"/>
    </contour>
    <contour>
      <point x="228" y="1133" type="qcurve"/>
      <point x="257" y="1227"/>
      <point x="359" y="1256" type="qcurve"/>
      <point x="373" y="1258"/>
      <point x="397" y="1254" type="qcurve"/>
      <point x="404" y="1254" type="line"/>
      <point x="466" y="1229"/>
      <point x="444" y="1160" type="qcurve"/>
      <point x="347" y="1189"/>
      <point x="258" y="1123" type="qcurve"/>
      <point x="265" y="1113"/>
      <point x="292" y="1079"/>
      <point x="336" y="1044"/>
      <point x="376" y="1023" type="qcurve"/>
      <point x="380" y="1021" type="line"/>
      <point x="383" y="1020" type="line"/>
      <point x="406" y="1037"/>
      <point x="552" y="1118"/>
      <point x="551" y="1100" type="qcurve"/>
      <point x="496" y="1014" type="line"/>
      <point x="493" y="1008" type="line"/>
      <point x="478" y="1004"/>
      <point x="346" y="917"/>
      <point x="267" y="870"/>
      <point x="178" y="804"/>
      <point x="167" y="802" type="qcurve"/>
      <point x="167" y="817" type="line"/>
      <point x="170" y="844"/>
      <point x="217" y="901"/>
      <point x="278" y="945"/>
      <point x="286" y="952" type="qcurve"/>
      <point x="179" y="1014"/>
    </contour>
  </outline>
</glyph>
<glyph name="alef-arab" format="2">
  <advance width="339"/>
  <unicode hex="0627"/>
  <anchor x="14" y="1542" name="top-arab"/>
  <anchor x="157" y="-186" name="bottom-arab"/>
  <outline>
    <contour>
      <point x="189" y="1466" type="line"/>
      <point x="191" y="1466"/>
      <point x="192" y="1463" type="qcurve"/>
      <point x="192" y="1456"/>
      <point x="194" y="1446" type="qcurve"/>
      <point x="194" y="1439" type="line"/>
      <point x="194" y="1435" type="line"/>
      <point x="195" y="1430"/>
      <point x="195" y="1425" type="qcurve"/>
      <point x="196" y="1422" type="line"/>
      <point x="196" y="1412" type="line"/>
      <point x="197" y="1408" type="line"/>
      <point x="198" y="1392" type="line"/>
      <point x="198" y="1388" type="line"/>
      <point x="199" y="1384" type="line"/>
      <point x="199" y="1376" type="line"/>
      <point x="200" y="1371"/>
      <point x="200" y="1364" type="qcurve"/>
      <point x="202" y="1348" type="line"/>
      <point x="202" y="1344" type="line"/>
      <point x="203" y="1328" type="line"/>
      <point x="205" y="1309" type="line"/>
      <point x="205" y="1306" type="line"/>
      <point x="205" y="1304"/>
      <point x="206" y="1303" type="qcurve"/>
      <point x="206" y="1300" type="line"/>
      <point x="234" y="818" type="line"/>
      <point x="235" y="816" type="line"/>
      <point x="235" y="813" type="line"/>
      <point x="235" y="809" type="line"/>
      <point x="236" y="804"/>
      <point x="236" y="798" type="qcurve"/>
      <point x="236" y="795" type="line"/>
      <point x="237" y="792"/>
      <point x="237" y="787" type="qcurve"/>
      <point x="237" y="780"/>
      <point x="239" y="770" type="qcurve"/>
      <point x="239" y="763" type="line"/>
      <point x="240" y="758" type="line"/>
      <point x="240" y="751" type="line"/>
      <point x="240" y="748" type="line"/>
      <point x="241" y="745"/>
      <point x="241" y="740" type="qcurve"/>
      <point x="242" y="733" type="line"/>
      <point x="242" y="725" type="line"/>
      <point x="244" y="704" type="line"/>
      <point x="244" y="700" type="line"/>
      <point x="245" y="697" type="line"/>
      <point x="245" y="692" type="line"/>
      <point x="245" y="688" type="line"/>
      <point x="246" y="683" type="line"/>
      <point x="246" y="679" type="line"/>
      <point x="246" y="677" type="line"/>
      <point x="246" y="673" type="line"/>
      <point x="246" y="665" type="line"/>
      <point x="248" y="644" type="line"/>
      <point x="248" y="641" type="line"/>
      <point x="249" y="638" type="line"/>
      <point x="249" y="634" type="line"/>
      <point x="249" y="630" type="line"/>
      <point x="251" y="614" type="line"/>
      <point x="251" y="603" type="line"/>
      <point x="252" y="598" type="line"/>
      <point x="252" y="591" type="line"/>
      <point x="254" y="583"/>
      <point x="254" y="573" type="qcurve"/>
      <point x="255" y="566" type="line"/>
      <point x="254" y="561"/>
      <point x="256" y="554" type="qcurve"/>
      <point x="256" y="551" type="line"/>
      <point x="257" y="534" type="line"/>
      <point x="257" y="533"/>
      <point x="258" y="532" type="qcurve"/>
      <point x="258" y="525"/>
      <point x="259" y="515" type="qcurve"/>
      <point x="259" y="512"/>
      <point x="260" y="508" type="qcurve"/>
      <point x="260" y="504" type="line"/>
      <point x="260" y="502" type="line"/>
      <point x="260" y="497" type="line"/>
      <point x="262" y="481" type="line"/>
      <point x="263" y="463" type="line"/>
      <point x="265" y="439" type="line"/>
      <point x="266" y="420" type="line"/>
      <point x="266" y="416"/>
      <point x="267" y="412" type="qcurve"/>
      <point x="267" y="409" type="line"/>
      <point x="267" y="404" type="line"/>
      <point x="268" y="394" type="line"/>
      <point x="269" y="384" type="line"/>
      <point x="271" y="362" type="line"/>
      <point x="271" y="358" type="line"/>
      <point x="271" y="355"/>
      <point x="272" y="352" type="qcurve"/>
      <point x="272" y="345" type="line"/>
      <point x="272" y="342" type="line"/>
      <point x="273" y="337"/>
      <point x="273" y="329" type="qcurve"/>
      <point x="273" y="318" type="line"/>
      <point x="273" y="315" type="line"/>
      <point x="273" y="299" type="line"/>
      <point x="273" y="295" type="line"/>
      <point x="273" y="291" type="line"/>
      <point x="273" y="287" type="line"/>
      <point x="273" y="270" type="line"/>
      <point x="273" y="266" type="line"/>
      <point x="273" y="262" type="line"/>
      <point x="272" y="256"/>
      <point x="272" y="248" type="qcurve"/>
      <point x="271" y="244" type="line"/>
      <point x="272" y="240"/>
      <point x="270" y="234" type="qcurve"/>
      <point x="270" y="227" type="line"/>
      <point x="268" y="208" type="line"/>
      <point x="267" y="206" type="line"/>
      <point x="264" y="176" type="line"/>
      <point x="260" y="161" type="line"/>
      <point x="259" y="153" type="line"/>
      <point x="257" y="148" type="line"/>
      <point x="257" y="146" type="line"/>
      <point x="256" y="143" type="line"/>
      <point x="255" y="140" type="line"/>
      <point x="254" y="137" type="line"/>
      <point x="253" y="132" type="line"/>
      <point x="252" y="128" type="line"/>
      <point x="251" y="127"/>
      <point x="251" y="124" type="qcurve"/>
      <point x="249" y="119"/>
      <point x="247" y="112" type="qcurve"/>
      <point x="246" y="111"/>
      <point x="246" y="108" type="qcurve"/>
      <point x="242" y="100"/>
      <point x="239" y="88" type="qcurve"/>
      <point x="237" y="84" type="line"/>
      <point x="236" y="83"/>
      <point x="236" y="80" type="qcurve"/>
      <point x="231" y="73"/>
      <point x="228" y="63" type="qcurve"/>
      <point x="223" y="55"/>
      <point x="218" y="43" type="qcurve"/>
      <point x="217" y="41" type="line"/>
      <point x="214" y="38" type="line"/>
      <point x="213" y="34" type="line"/>
      <point x="208" y="28"/>
      <point x="203" y="18" type="qcurve"/>
      <point x="201" y="16" type="line"/>
      <point x="200" y="13" type="line"/>
      <point x="197" y="11" type="line"/>
      <point x="196" y="9" type="line"/>
      <point x="193" y="6" type="line"/>
      <point x="192" y="3" type="line"/>
      <point x="189" y="-2"/>
      <point x="183" y="-5" type="qcurve"/>
      <point x="184" y="4"/>
      <point x="182" y="17" type="qcurve"/>
      <point x="182" y="41" type="line"/>
      <point x="182" y="46"/>
      <point x="181" y="51" type="qcurve"/>
      <point x="181" y="57" type="line"/>
      <point x="182" y="66"/>
      <point x="180" y="79" type="qcurve"/>
      <point x="179" y="119" type="line"/>
      <point x="179" y="122"/>
      <point x="178" y="126" type="qcurve"/>
      <point x="178" y="145" type="line"/>
      <point x="177" y="152"/>
      <point x="177" y="160" type="qcurve"/>
      <point x="177" y="166" type="line"/>
      <point x="175" y="173"/>
      <point x="176" y="183" type="qcurve"/>
      <point x="176" y="186" type="line"/>
      <point x="175" y="187" type="line"/>
      <point x="176" y="195"/>
      <point x="174" y="207" type="qcurve"/>
      <point x="174" y="221" type="line"/>
      <point x="173" y="226"/>
      <point x="173" y="231" type="qcurve"/>
      <point x="171" y="267" type="line"/>
      <point x="171" y="268"/>
      <point x="170" y="270" type="qcurve"/>
      <point x="167" y="331" type="line"/>
      <point x="167" y="338"/>
      <point x="166" y="348" type="qcurve"/>
      <point x="161" y="414" type="line"/>
      <point x="161" y="423"/>
      <point x="159" y="436" type="qcurve"/>
      <point x="157" y="470" type="line"/>
      <point x="156" y="475"/>
      <point x="156" y="481" type="qcurve"/>
      <point x="155" y="483" type="line"/>
      <point x="154" y="502" type="line"/>
      <point x="153" y="505" type="line"/>
      <point x="152" y="527" type="line"/>
      <point x="151" y="529" type="line"/>
      <point x="151" y="536" type="line"/>
      <point x="150" y="540" type="line"/>
      <point x="150" y="548" type="line"/>
      <point x="149" y="557" type="line"/>
      <point x="148" y="563"/>
      <point x="148" y="570" type="qcurve"/>
      <point x="148" y="581" type="line"/>
      <point x="147" y="585" type="line"/>
      <point x="147" y="592" type="line"/>
      <point x="146" y="596" type="line"/>
      <point x="145" y="606" type="line"/>
      <point x="145" y="612" type="line"/>
      <point x="141" y="649" type="line"/>
      <point x="140" y="663" type="line"/>
      <point x="140" y="664"/>
      <point x="139" y="665" type="qcurve"/>
      <point x="139" y="675" type="line"/>
      <point x="138" y="677" type="line"/>
      <point x="138" y="685"/>
      <point x="137" y="690" type="qcurve"/>
      <point x="136" y="705" type="line"/>
      <point x="134" y="713"/>
      <point x="134" y="723" type="qcurve"/>
      <point x="134" y="726" type="line"/>
      <point x="133" y="733" type="line"/>
      <point x="130" y="764" type="line"/>
      <point x="127" y="802" type="line"/>
      <point x="127" y="805" type="line"/>
      <point x="87" y="1326" type="line"/>
      <point x="91" y="1336"/>
      <point x="99" y="1344" type="qcurve"/>
      <point x="100" y="1347" type="line"/>
      <point x="102" y="1348" type="line"/>
      <point x="103" y="1350" type="line"/>
      <point x="108" y="1355" type="line"/>
      <point x="111" y="1359"/>
      <point x="113" y="1365" type="qcurve"/>
      <point x="116" y="1367" type="line"/>
      <point x="118" y="1369" type="line"/>
      <point x="120" y="1373" type="line"/>
      <point x="128" y="1382" type="line"/>
      <point x="129" y="1386" type="line"/>
      <point x="133" y="1389"/>
      <point x="136" y="1395" type="qcurve"/>
      <point x="139" y="1398" type="line"/>
      <point x="142" y="1402" type="line"/>
      <point x="145" y="1406" type="line"/>
      <point x="148" y="1409" type="line"/>
      <point x="150" y="1414" type="line"/>
      <point x="154" y="1418" type="line"/>
      <point x="157" y="1424"/>
      <point x="164" y="1430" type="qcurve"/>
      <point x="165" y="1433" type="line"/>
      <point x="167" y="1434" type="line"/>
      <point x="168" y="1437" type="line"/>
      <point x="169" y="1440" type="line"/>
      <point x="170" y="1440"/>
      <point x="171" y="1442" type="qcurve"/>
      <point x="173" y="1444" type="line"/>
      <point x="177" y="1448" type="line"/>
      <point x="187" y="1462" type="line"/>
      <point x="188" y="1464" type="line"/>
    </contour>
  </outline>
</glyph>
<glyph name="teh-arab" format="2">
  <advance width="1371"/>
  <unicode hex="062A"/>
  <anchor x="571" y="1156" name="top-arab"/>
  <anchor x="542" y="-343" name="bottom-arab"/>
  <outline>
    <contour>
      <point x="570" y="1055" type="qcurve"/>
      <point x="690" y="951" type="line"/>
      <point x="690" y="962"/>
      <point x="791" y="1055" type="qcurve"/>
      <point x="803" y="1055"/>
      <point x="880" y="975" type="qcurve"/>
      <point x="896" y="960"/>
      <point x="905" y="960" type="qcurve"/>
      <point x="905" y="951" type="line"/>
      <point x="807" y="841"/>
      <point x="800" y="840" type="qcurve"/>
      <point x="791" y="840" type="line"/>
      <point x="781" y="840"/>
      <point x="685" y="940" type="qcurve"/>
      <point x="581" y="840" type="line"/>
      <point x="570" y="840" type="line"/>
      <point x="554" y="840"/>
      <point x="465" y="945" type="qcurve"/>
      <point x="480" y="971"/>
    </contour>
    <contour>
      <point x="1206" y="710" type="qcurve"/>
      <point x="1286" y="581"/>
      <point x="1286" y="485" type="qcurve"/>
      <point x="1286" y="425" type="line"/>
      <point x="1286" y="274"/>
      <point x="1151" y="160" type="qcurve"/>
      <point x="904" y="0"/>
      <point x="620" y="0" type="qcurve"/>
      <point x="590" y="0" type="line"/>
      <point x="207" y="0"/>
      <point x="120" y="235" type="qcurve"/>
      <point x="105" y="279"/>
      <point x="100" y="340" type="qcurve"/>
      <point x="100" y="526"/>
      <point x="205" y="640" type="qcurve"/>
      <point x="215" y="638"/>
      <point x="215" y="630" type="qcurve"/>
      <point x="185" y="527"/>
      <point x="185" y="470" type="qcurve"/>
      <point x="185" y="461" type="line"/>
      <point x="185" y="223"/>
      <point x="555" y="165" type="qcurve"/>
      <point x="609" y="165"/>
      <point x="645" y="160" type="qcurve"/>
      <point x="924" y="160"/>
      <point x="1215" y="315" type="qcurve"/>
      <point x="1215" y="428"/>
      <point x="1131" y="561" type="qcurve"/>
      <point x="1150" y="618"/>
    </contour>
  </outline>
</glyph>
<glyph name="theh-arab" format="2">
  <advance width="1388"/>
  <unicode hex="062B"/>
  <anchor x="628" y="1385" name="top-arab"/>
  <anchor x="585" y="-300" name="bottom-arab"/>
  <outline>
    <contour>
      <point x="784" y="1016" type="qcurve"/>
      <point x="798" y="1013"/>
      <point x="845" y="961"/>
      <point x="901" y="915" type="qcurve"/>
      <point x="793" y="801" type="line"/>
      <point x="733" y="838"/>
      <point x="681" y="913" type="qcurve"/>
      <point x="774" y="1004"/>
    </contour>
    <contour>
      <point x="562" y="1016" type="qcurve"/>
      <point x="576" y="1013"/>
      <point x="623" y="960"/>
      <point x="679" y="915" type="qcurve"/>
      <point x="681" y="912" type="line"/>
      <point x="571" y="801" type="line"/>
      <point x="511" y="838"/>
      <point x="460" y="913" type="qcurve"/>
      <point x="552" y="1004"/>
    </contour>
    <contour>
      <point x="680" y="1243" type="qcurve"/>
      <point x="694" y="1240"/>
      <point x="741" y="1187"/>
      <point x="798" y="1141" type="qcurve"/>
      <point x="799" y="1138" type="line"/>
      <point x="794" y="1135"/>
      <point x="689" y="1028" type="qcurve"/>
      <point x="629" y="1065"/>
      <point x="578" y="1139" type="qcurve"/>
      <point x="670" y="1231"/>
    </contour>
    <contour>
      <point x="1206" y="710" type="qcurve"/>
      <point x="1286" y="581"/>
      <point x="1286" y="485" type="qcurve"/>
      <point x="1286" y="425" type="line"/>
      <point x="1286" y="274"/>
      <point x="1151" y="160" type="qcurve"/>
      <point x="904" y="0"/>
      <point x="620" y="0" type="qcurve"/>
      <point x="590" y="0" type="line"/>
      <point x="207" y="0"/>
      <point x="120" y="235" type="qcurve"/>
      <point x="105" y="279"/>
      <point x="100" y="340" type="qcurve"/>
      <point x="100" y="526"/>
      <point x="205" y="640" type="qcurve"/>
      <point x="215" y="638"/>
      <point x="215" y="630" type="qcurve"/>
      <point x="185" y="527"/>
      <point x="185" y="470" type="qcurve"/>
      <point x="185" y="461" type="line"/>
      <point x="185" y="223"/>
      <point x="555" y="165" type="qcurve"/>
      <point x="609" y="165"/>
      <point x="645" y="160" type="qcurve"/>
      <point x="924" y="160"/>
      <point x="1215" y="315" type="qcurve"/>
      <point x="1215" y="428"/>
      <point x="1131" y="561" type="qcurve"/>
      <point x="1150" y="618"/>
    </contour>
  </outline>
</glyph>
<glyph name="khah-arab" format="2">
  <advance width="1115"/>
  <unicode hex="062E"/>
  <anchor x="514" y="1561" name="top-arab"/>
  <anchor x="490" y="-1028" name="bottom-arab"/>
  <outline>
    <contour>
      <point x="130" y="485" type="qcurve"/>
      <point x="145" y="706"/>
      <point x="359" y="742" type="qcurve"/>
      <point x="382" y="742" type="line"/>
      <point x="387" y="742" type="line"/>
      <point x="420" y="742" type="line"/>
      <point x="427" y="740" type="line"/>
      <point x="435" y="740"/>
      <point x="443" y="738" type="qcurve"/>
      <point x="448" y="738" type="line"/>
      <point x="458" y="738" type="line"/>
      <point x="465" y="737" type="line"/>
      <point x="471" y="737"/>
      <point x="481" y="735" type="qcurve"/>
      <point x="486" y="735" type="line"/>
      <point x="492" y="735" type="line"/>
      <point x="522" y="729" type="line"/>
      <point x="530" y="729" type="line"/>
      <point x="545" y="725" type="line"/>
      <point x="551" y="725" type="line"/>
      <point x="559" y="723" type="line"/>
      <point x="564" y="723" type="line"/>
      <point x="572" y="721" type="line"/>
      <point x="581" y="719" type="line"/>
      <point x="589" y="719" type="line"/>
      <point x="597" y="718" type="line"/>
      <point x="609" y="717"/>
      <point x="627" y="712" type="qcurve"/>
      <point x="637" y="712" type="line"/>
      <point x="667" y="706" type="line"/>
      <point x="675" y="706" type="line"/>
      <point x="690" y="702" type="line"/>
      <point x="696" y="702" type="line"/>
      <point x="726" y="699" type="line"/>
      <point x="732" y="699" type="line"/>
      <point x="738" y="697" type="line"/>
      <point x="745" y="697" type="line"/>
      <point x="751" y="697" type="line"/>
      <point x="757" y="695" type="line"/>
      <point x="764" y="695" type="line"/>
      <point x="772" y="695" type="line"/>
      <point x="778" y="693" type="line"/>
      <point x="785" y="693" type="line"/>
      <point x="798" y="691" type="line"/>
      <point x="871" y="687" type="line"/>
      <point x="897" y="687" type="line"/>
      <point x="907" y="688"/>
      <point x="918" y="685" type="qcurve"/>
      <point x="924" y="685" type="line"/>
      <point x="934" y="685" type="line"/>
      <point x="968" y="685" type="line"/>
      <point x="975" y="685" type="line"/>
      <point x="991" y="684"/>
      <point x="1014" y="687" type="qcurve"/>
      <point x="1029" y="687" type="line"/>
      <point x="1034" y="687" type="line"/>
      <point x="1044" y="687" type="line"/>
      <point x="1052" y="687" type="line"/>
      <point x="1059" y="687" type="line"/>
      <point x="1101" y="689" type="line"/>
      <point x="1126" y="689" type="line"/>
      <point x="1132" y="689" type="line"/>
      <point x="1137" y="689" type="line"/>
      <point x="1137" y="687" type="line"/>
      <point x="1137" y="689" type="line"/>
      <point x="1135" y="687" type="line"/>
      <point x="1137" y="687" type="line"/>
      <point x="1135" y="687" type="line"/>
      <point x="1125" y="673"/>
      <point x="1114" y="647" type="qcurve"/>
      <point x="1112" y="646"/>
      <point x="1111" y="643" type="qcurve"/>
      <point x="1107" y="638" type="line"/>
      <point x="1105" y="632" type="line"/>
      <point x="1101" y="626" type="line"/>
      <point x="1097" y="620" type="line"/>
      <point x="1084" y="596" type="line"/>
      <point x="1080" y="590" type="line"/>
      <point x="1076" y="584" type="line"/>
      <point x="1073" y="575" type="line"/>
      <point x="1069" y="567" type="line"/>
      <point x="1062" y="560"/>
      <point x="1057" y="548" type="qcurve"/>
      <point x="1052" y="541" type="line"/>
      <point x="1048" y="533" type="line"/>
      <point x="1042" y="522" type="line"/>
      <point x="538" y="492"/>
      <point x="260" y="17" type="qcurve"/>
      <point x="260" y="11" type="line"/>
      <point x="254" y="2"/>
      <point x="248" y="-11" type="qcurve"/>
      <point x="246" y="-17" type="line"/>
      <point x="245" y="-21" type="line"/>
      <point x="244" y="-27"/>
      <point x="239" y="-36" type="qcurve"/>
      <point x="237" y="-42" type="line"/>
      <point x="235" y="-48" type="line"/>
      <point x="234" y="-54"/>
      <point x="229" y="-63" type="qcurve"/>
      <point x="226" y="-76" type="line"/>
      <point x="226" y="-82" type="line"/>
      <point x="220" y="-97" type="line"/>
      <point x="208" y="-156" type="line"/>
      <point x="205" y="-175" type="line"/>
      <point x="170" y="-515"/>
      <point x="500" y="-668" type="qcurve"/>
      <point x="513" y="-678"/>
      <point x="534" y="-683" type="qcurve"/>
      <point x="538" y="-685" type="line"/>
      <point x="542" y="-687" type="line"/>
      <point x="547" y="-689" type="line"/>
      <point x="553" y="-690"/>
      <point x="562" y="-695" type="qcurve"/>
      <point x="595" y="-704" type="line"/>
      <point x="601" y="-704" type="line"/>
      <point x="606" y="-708" type="line"/>
      <point x="956" y="-790"/>
      <point x="1328" y="-640" type="qcurve"/>
      <point x="1309" y="-657" type="line"/>
      <point x="1305" y="-659" type="line"/>
      <point x="1303" y="-662" type="line"/>
      <point x="1297" y="-664" type="line"/>
      <point x="1293" y="-668" type="line"/>
      <point x="1291" y="-672" type="line"/>
      <point x="1286" y="-674" type="line"/>
      <point x="1279" y="-681"/>
      <point x="1267" y="-689" type="qcurve"/>
      <point x="1265" y="-693" type="line"/>
      <point x="1257" y="-697" type="line"/>
      <point x="1251" y="-702" type="line"/>
      <point x="1244" y="-706" type="line"/>
      <point x="1238" y="-712" type="line"/>
      <point x="1231" y="-716" type="line"/>
      <point x="1225" y="-719" type="line"/>
      <point x="1217" y="-725" type="line"/>
      <point x="1208" y="-733" type="line"/>
      <point x="1195" y="-738"/>
      <point x="1181" y="-750" type="qcurve"/>
      <point x="1168" y="-755"/>
      <point x="1149" y="-767" type="qcurve"/>
      <point x="1137" y="-775" type="line"/>
      <point x="1128" y="-777"/>
      <point x="1116" y="-784" type="qcurve"/>
      <point x="1111" y="-786" type="line"/>
      <point x="1107" y="-790" type="line"/>
      <point x="1097" y="-794" type="line"/>
      <point x="1092" y="-798" type="line"/>
      <point x="1083" y="-799"/>
      <point x="1074" y="-805" type="qcurve"/>
      <point x="1069" y="-807" type="line"/>
      <point x="1038" y="-818" type="line"/>
      <point x="1034" y="-820" type="line"/>
      <point x="1019" y="-824"/>
      <point x="998" y="-834" type="qcurve"/>
      <point x="995" y="-834"/>
      <point x="993" y="-836" type="qcurve"/>
      <point x="975" y="-839" type="line"/>
      <point x="972" y="-841" type="line"/>
      <point x="964" y="-843"/>
      <point x="953" y="-847" type="qcurve"/>
      <point x="946" y="-848"/>
      <point x="939" y="-851" type="qcurve"/>
      <point x="932" y="-853" type="line"/>
      <point x="924" y="-853" type="line"/>
      <point x="916" y="-855" type="line"/>
      <point x="909" y="-857" type="line"/>
      <point x="901" y="-858" type="line"/>
      <point x="871" y="-864" type="line"/>
      <point x="863" y="-866" type="line"/>
      <point x="857" y="-866" type="line"/>
      <point x="852" y="-868" type="line"/>
      <point x="839" y="-867"/>
      <point x="823" y="-872" type="qcurve"/>
      <point x="808" y="-872" type="line"/>
      <point x="804" y="-874" type="line"/>
      <point x="797" y="-874" type="line"/>
      <point x="778" y="-876" type="line"/>
      <point x="772" y="-876" type="line"/>
      <point x="766" y="-876" type="line"/>
      <point x="760" y="-876" type="line"/>
      <point x="755" y="-877" type="line"/>
      <point x="749" y="-877" type="line"/>
      <point x="743" y="-877" type="line"/>
      <point x="720" y="-877" type="line"/>
      <point x="715" y="-877" type="line"/>
      <point x="682" y="-877" type="line"/>
      <point x="675" y="-877" type="line"/>
      <point x="667" y="-877" type="line"/>
      <point x="660" y="-877" type="line"/>
      <point x="635" y="-877" type="line"/>
      <point x="623" y="-874"/>
      <point x="604" y="-874" type="qcurve"/>
      <point x="599" y="-872"/>
      <point x="589" y="-872" type="qcurve"/>
      <point x="583" y="-870" type="line"/>
      <point x="578" y="-870" type="line"/>
      <point x="572" y="-868" type="line"/>
      <point x="540" y="-862" type="line"/>
      <point x="528" y="-860" type="line"/>
      <point x="521" y="-857" type="line"/>
      <point x="511" y="-855" type="line"/>
      <point x="502" y="-853" type="line"/>
      <point x="492" y="-851" type="line"/>
      <point x="450" y="-836" type="line"/>
      <point x="444" y="-834" type="line"/>
      <point x="441" y="-832"/>
      <point x="437" y="-832" type="qcurve"/>
      <point x="403" y="-815" type="line"/>
      <point x="399" y="-813" type="line"/>
      <point x="389" y="-809" type="line"/>
      <point x="372" y="-799" type="line"/>
      <point x="364" y="-798" type="line"/>
      <point x="359" y="-792" type="line"/>
      <point x="351" y="-790" type="line"/>
      <point x="341" y="-780"/>
      <point x="325" y="-773" type="qcurve"/>
      <point x="318" y="-766"/>
      <point x="307" y="-759" type="qcurve"/>
      <point x="302" y="-754" type="line"/>
      <point x="296" y="-752" type="line"/>
      <point x="292" y="-746" type="line"/>
      <point x="285" y="-740" type="line"/>
      <point x="277" y="-737" type="line"/>
      <point x="276" y="-735"/>
      <point x="273" y="-733" type="qcurve"/>
      <point x="269" y="-727" type="line"/>
      <point x="264" y="-725" type="line"/>
      <point x="254" y="-712"/>
      <point x="235" y="-697" type="qcurve"/>
      <point x="234" y="-695"/>
      <point x="231" y="-693" type="qcurve"/>
      <point x="231" y="-691"/>
      <point x="229" y="-689" type="qcurve"/>
      <point x="226" y="-683" type="line"/>
      <point x="222" y="-679" type="line"/>
      <point x="212" y="-668" type="line"/>
      <point x="208" y="-662" type="line"/>
      <point x="203" y="-659" type="line"/>
      <point x="201" y="-654"/>
      <point x="197" y="-651" type="qcurve"/>
      <point x="191" y="-637"/>
      <point x="176" y="-620" type="qcurve"/>
      <point x="159" y="-586" type="line"/>
      <point x="151" y="-573" type="line"/>
      <point x="146" y="-564"/>
      <point x="144" y="-554" type="qcurve"/>
      <point x="138" y="-546" type="line"/>
      <point x="135" y="-532"/>
      <point x="127" y="-514" type="qcurve"/>
      <point x="125" y="-506" type="line"/>
      <point x="123" y="-502" type="line"/>
      <point x="123" y="-500"/>
      <point x="121" y="-499" type="qcurve"/>
      <point x="119" y="-485" type="line"/>
      <point x="115" y="-480" type="line"/>
      <point x="115" y="-472" type="line"/>
      <point x="108" y="-456"/>
      <point x="106" y="-430" type="qcurve"/>
      <point x="104" y="-426" type="line"/>
      <point x="104" y="-421"/>
      <point x="102" y="-417" type="qcurve"/>
      <point x="100" y="-390" type="line"/>
      <point x="99" y="-380"/>
      <point x="96" y="-369" type="qcurve"/>
      <point x="80" y="12"/>
      <point x="349" y="335" type="qcurve"/>
      <point x="362" y="345"/>
      <point x="376" y="362" type="qcurve"/>
      <point x="387" y="371" type="line"/>
      <point x="391" y="375" type="line"/>
      <point x="396" y="382"/>
      <point x="406" y="390" type="qcurve"/>
      <point x="410" y="396" type="line"/>
      <point x="418" y="400"/>
      <point x="427" y="409" type="qcurve"/>
      <point x="431" y="415" type="line"/>
      <point x="434" y="416"/>
      <point x="437" y="419" type="qcurve"/>
      <point x="445" y="424"/>
      <point x="454" y="432" type="qcurve"/>
      <point x="465" y="439"/>
      <point x="481" y="455" type="qcurve"/>
      <point x="491" y="459"/>
      <point x="498" y="466" type="qcurve"/>
      <point x="507" y="470"/>
      <point x="517" y="480" type="qcurve"/>
      <point x="522" y="482" type="line"/>
      <point x="538" y="493" type="line"/>
      <point x="545" y="497" type="line"/>
      <point x="551" y="502" type="line"/>
      <point x="559" y="505"/>
      <point x="568" y="512" type="qcurve"/>
      <point x="576" y="518" type="line"/>
      <point x="590" y="523"/>
      <point x="606" y="535" type="qcurve"/>
      <point x="618" y="539" type="line"/>
      <point x="625" y="544" type="line"/>
      <point x="613" y="543"/>
      <point x="595" y="548" type="qcurve"/>
      <point x="589" y="548"/>
      <point x="580" y="550" type="qcurve"/>
      <point x="572" y="550" type="line"/>
      <point x="568" y="552" type="line"/>
      <point x="562" y="554" type="line"/>
      <point x="551" y="555"/>
      <point x="536" y="560" type="qcurve"/>
      <point x="526" y="560" type="line"/>
      <point x="496" y="567" type="line"/>
      <point x="481" y="569" type="line"/>
      <point x="475" y="571" type="line"/>
      <point x="469" y="571" type="line"/>
      <point x="460" y="574"/>
      <point x="446" y="575" type="qcurve"/>
      <point x="271" y="615"/>
    </contour>
    <contour>
      <point x="642" y="1369" type="qcurve"/>
      <point x="656" y="1366"/>
      <point x="703" y="1313"/>
      <point x="759" y="1268" type="qcurve"/>
      <point x="761" y="1265" type="line"/>
      <point x="756" y="1262"/>
      <point x="651" y="1154" type="qcurve"/>
      <point x="591" y="1191"/>
      <point x="540" y="1266" type="qcurve"/>
      <point x="632" y="1357"/>
    </contour>
  </outline>
</glyph>
<glyph name="tah-arab" format="2">
  <advance width="1235"/>
  <unicode hex="0637"/>
  <anchor x="542" y="1485" name="top-arab"/>
  <anchor x="443" y="-233" name="bottom-arab"/>
  <outline>
    <contour>
      <point x="490" y="1470" type="qcurve"/>
      <point x="502" y="1470" type="line"/>
      <point x="538" y="1277"/>
      <point x="539" y="1226" type="qcurve"/>
      <point x="518" y="1201" type="line"/>
      <point x="567" y="541"/>
      <point x="566" y="506" type="qcurve"/>
      <point x="566" y="415"/>
      <point x="518" y="305" type="qcurve"/>
      <point x="522" y="305" type="line"/>
      <point x="754" y="610"/>
      <point x="928" y="611" type="qcurve"/>
      <point x="944" y="611" type="line"/>
      <point x="1069" y="611"/>
      <point x="1145" y="486" type="qcurve"/>
      <point x="1165" y="445"/>
      <point x="1165" y="410" type="qcurve"/>
      <point x="1165" y="378" type="line"/>
      <point x="1165" y="262"/>
      <point x="1049" y="165" type="qcurve"/>
      <point x="960" y="106"/>
      <point x="827" y="65" type="qcurve"/>
      <point x="595" y="0"/>
      <point x="405" y="0" type="qcurve"/>
      <point x="333" y="0" type="line"/>
      <point x="158" y="0"/>
      <point x="65" y="60" type="qcurve"/>
      <point x="0" y="80"/>
      <point x="0" y="89" type="qcurve"/>
      <point x="0" y="92" type="line"/>
      <point x="405" y="118"/>
      <point x="405" y="168" type="qcurve"/>
      <point x="477" y="242"/>
      <point x="478" y="362" type="qcurve"/>
      <point x="406" y="1310"/>
      <point x="405" y="1354" type="qcurve"/>
      <point x="490" y="1460"/>
    </contour>
    <contour>
      <point x="470" y="137" type="qcurve"/>
      <point x="750" y="177"/>
      <point x="935" y="233" type="qcurve"/>
      <point x="967" y="249"/>
      <point x="1053" y="273" type="qcurve"/>
      <point x="1013" y="454"/>
      <point x="872" y="454" type="qcurve"/>
      <point x="863" y="454" type="line"/>
      <point x="755" y="454"/>
      <point x="675" y="374" type="qcurve"/>
      <point x="569" y="275"/>
    </contour>
  </outline>
</glyph>
<glyph name="arabictatweelmod" format="2">
  <advance width="197"/>
  <unicode hex="0640"/>
  <anchor x="128" y="666" name="top-arab"/>
  <anchor x="128" y="-200" name="bottom-arab"/>
  <outline>
    <contour>
      <point x="-1" y="6" type="line"/>
      <point x="-30" y="25"/>
      <point x="-64" y="106"/>
      <point x="-66" y="162" type="qcurve"/>
      <point x="-54" y="160" type="line"/>
      <point x="5" y="162" type="line"/>
      <point x="12" y="162" type="line"/>
      <point x="15" y="162" type="line"/>
      <point x="18" y="162" type="line"/>
      <point x="26" y="162" type="line"/>
      <point x="28" y="162" type="line"/>
      <point x="38" y="162" type="line"/>
      <point x="41" y="162" type="line"/>
      <point x="49" y="162" type="line"/>
      <point x="23" y="162" type="line"/>
      <point x="26" y="162" type="line"/>
      <point x="29" y="162" type="line"/>
      <point x="31" y="162" type="line"/>
      <point x="44" y="162" type="line"/>
      <point x="46" y="162" type="line"/>
      <point x="50" y="162" type="line"/>
      <point x="58" y="162" type="line"/>
      <point x="60" y="162" type="line"/>
      <point x="70" y="162" type="line"/>
      <point x="72" y="162" type="line"/>
      <point x="75" y="162" type="line"/>
      <point x="78" y="162" type="line"/>
      <point x="80" y="162" type="line"/>
      <point x="87" y="162" type="line"/>
      <point x="98" y="162" type="line"/>
      <point x="101" y="162" type="line"/>
      <point x="105" y="162" type="line"/>
      <point x="108" y="162" type="line"/>
      <point x="110" y="162" type="line"/>
      <point x="118" y="162" type="line"/>
      <point x="120" y="162" type="line"/>
      <point x="130" y="162" type="line"/>
      <point x="133" y="162" type="line"/>
      <point x="141" y="162" type="line"/>
      <point x="152" y="162" type="line"/>
      <point x="154" y="162" type="line"/>
      <point x="156" y="162" type="line"/>
      <point x="168" y="162" type="line"/>
      <point x="170" y="162" type="line"/>
      <point x="173" y="162" type="line"/>
      <point x="176" y="162" type="line"/>
      <point x="180" y="162" type="line"/>
      <point x="183" y="162" type="line"/>
      <point x="195" y="162" type="line"/>
      <point x="200" y="162" type="line"/>
      <point x="200" y="150" type="line"/>
      <point x="200" y="148" type="line"/>
      <point x="200" y="131" type="line"/>
      <point x="200" y="128" type="line"/>
      <point x="200" y="115" type="line"/>
      <point x="200" y="98" type="line"/>
      <point x="200" y="95" type="line"/>
      <point x="200" y="82" type="line"/>
      <point x="200" y="75" type="line"/>
      <point x="200" y="63" type="line"/>
      <point x="200" y="44" type="line"/>
      <point x="200" y="41" type="line"/>
      <point x="200" y="37" type="line"/>
      <point x="200" y="34" type="line"/>
      <point x="200" y="30" type="line"/>
      <point x="200" y="27" type="line"/>
      <point x="200" y="13" type="line"/>
      <point x="200" y="7" type="line"/>
      <point x="195" y="7" type="line"/>
      <point x="190" y="7" type="line"/>
      <point x="180" y="7" type="line"/>
      <point x="178" y="7" type="line"/>
      <point x="169" y="7" type="line"/>
      <point x="167" y="7" type="line"/>
      <point x="160" y="7" type="line"/>
      <point x="155" y="7" type="line"/>
      <point x="150" y="7" type="line"/>
      <point x="140" y="7" type="line"/>
      <point x="137" y="7" type="line"/>
      <point x="129" y="7" type="line"/>
      <point x="122" y="7" type="line"/>
      <point x="120" y="7" type="line"/>
      <point x="109" y="7" type="line"/>
      <point x="97" y="7" type="line"/>
      <point x="95" y="7" type="line"/>
      <point x="92" y="7" type="line"/>
      <point x="90" y="7" type="line"/>
      <point x="88" y="7" type="line"/>
      <point x="86" y="7" type="line"/>
      <point x="77" y="7" type="line"/>
      <point x="66" y="7" type="line"/>
      <point x="64" y="7" type="line"/>
      <point x="62" y="7" type="line"/>
      <point x="57" y="7" type="line"/>
      <point x="49" y="7" type="line"/>
      <point x="44" y="7" type="line"/>
      <point x="-1" y="6" type="line"/>
    </contour>
  </outline>
</glyph>
<glyph name="qaf-arab" format="2">
  <advance width="997"/>
  <unicode hex="0642"/>
  <anchor x="428" y="1042" name="top-arab"/>
  <anchor x="371" y="-500" name="bottom-arab"/>
  <outline>
    <contour>
      <point x="822" y="1017" type="qcurve"/>
      <point x="836" y="1014"/>
      <point x="883" y="962"/>
      <point x="939" y="916" type="qcurve"/>
      <point x="831" y="802" type="line"/>
      <point x="771" y="839"/>
      <point x="719" y="914" type="qcurve"/>
      <point x="812" y="1005"/>
    </contour>
    <contour>
      <point x="601" y="1017" type="qcurve"/>
      <point x="615" y="1014"/>
      <point x="661" y="961"/>
      <point x="718" y="916" type="qcurve"/>
      <point x="719" y="913" type="line"/>
      <point x="609" y="802" type="line"/>
      <point x="549" y="839"/>
      <point x="498" y="914" type="qcurve"/>
      <point x="591" y="1005"/>
    </contour>
    <contour>
      <point x="755" y="533" type="line"/>
      <point x="835" y="533"/>
      <point x="926" y="329" type="qcurve"/>
      <point x="958" y="242"/>
      <point x="958" y="166" type="qcurve"/>
      <point x="958" y="-160"/>
      <point x="647" y="-273" type="qcurve"/>
      <point x="541" y="-317"/>
      <point x="391" y="-317" type="qcurve"/>
      <point x="165" y="-317"/>
      <point x="56" y="-106" type="qcurve"/>
      <point x="32" y="-12"/>
      <point x="32" y="54" type="qcurve"/>
      <point x="32" y="235"/>
      <point x="140" y="413" type="qcurve"/>
      <point x="172" y="445"/>
      <point x="188" y="445" type="qcurve"/>
      <point x="196" y="429" type="line"/>
      <point x="196" y="413"/>
      <point x="132" y="298" type="qcurve"/>
      <point x="103" y="236"/>
      <point x="104" y="158" type="qcurve"/>
      <point x="104" y="142" type="line"/>
      <point x="104" y="-64"/>
      <point x="336" y="-153" type="qcurve"/>
      <point x="387" y="-169"/>
      <point x="443" y="-169" type="qcurve"/>
      <point x="483" y="-169" type="line"/>
      <point x="628" y="-159"/>
      <point x="798" y="-57" type="qcurve"/>
      <point x="890" y="5"/>
      <point x="891" y="14" type="qcurve"/>
      <point x="891" y="135"/>
      <point x="838" y="222" type="qcurve"/>
      <point x="744" y="190"/>
      <point x="703" y="189" type="qcurve"/>
      <point x="614" y="199"/>
      <point x="615" y="266" type="qcurve"/>
      <point x="615" y="286" type="line"/>
      <point x="615" y="442"/>
      <point x="743" y="533" type="qcurve"/>
    </contour>
  </outline>
</glyph>
<glyph name="meem-arab" format="2">
  <advance width="586"/>
  <unicode hex="0645"/>
  <anchor x="228" y="666" name="top-arab"/>
  <anchor x="171" y="-1014" name="bottom-arab"/>
  <outline>
    <contour>
      <point x="326" y="494" type="qcurve"/>
      <point x="462" y="494"/>
      <point x="532" y="368" type="qcurve"/>
      <point x="537" y="344" type="line"/>
      <point x="525" y="277"/>
      <point x="462" y="183" type="qcurve"/>
      <point x="348" y="209"/>
      <point x="246" y="208" type="qcurve"/>
      <point x="131" y="205"/>
      <point x="130" y="188" type="qcurve"/>
      <point x="196" y="-764" type="line"/>
      <point x="196" y="-774" type="line"/>
      <point x="196" y="-935"/>
      <point x="116" y="-1010" type="qcurve"/>
      <point x="106" y="-1010" type="line"/>
      <point x="106" y="-1005" type="line"/>
      <point x="106" y="-940"/>
      <point x="30" y="3" type="qcurve"/>
      <point x="30" y="78" type="line"/>
      <point x="30" y="268"/>
      <point x="211" y="344" type="qcurve"/>
      <point x="238" y="434"/>
    </contour>
  </outline>
</glyph>
<glyph name="noon-arab" format="2">
  <advance width="1101"/>
  <unicode hex="0646"/>
  <anchor x="385" y="1413" name="top-arab"/>
  <anchor x="385" y="-500" name="bottom-arab"/>
  <outline>
    <contour>
      <point x="507" y="1023" type="qcurve"/>
      <point x="521" y="1020"/>
      <point x="568" y="967"/>
      <point x="624" y="921" type="qcurve"/>
      <point x="626" y="918" type="line"/>
      <point x="621" y="915"/>
      <point x="516" y="808" type="qcurve"/>
      <point x="456" y="845"/>
      <point x="404" y="919" type="qcurve"/>
      <point x="497" y="1011"/>
    </contour>
    <contour>
      <point x="960" y="542" type="qcurve"/>
      <point x="966" y="542" type="line"/>
      <point x="1056" y="358"/>
      <point x="1056" y="233" type="qcurve"/>
      <point x="1056" y="143" type="line"/>
      <point x="1056" y="9"/>
      <point x="951" y="-133" type="qcurve"/>
      <point x="749" y="-342"/>
      <point x="487" y="-343" type="qcurve"/>
      <point x="481" y="-343" type="line"/>
      <point x="274" y="-343"/>
      <point x="137" y="-210" type="qcurve"/>
      <point x="34" y="-103"/>
      <point x="34" y="75" type="qcurve"/>
      <point x="34" y="110" type="line"/>
      <point x="34" y="317"/>
      <point x="150" y="467" type="qcurve"/>
      <point x="163" y="477" type="line"/>
      <point x="169" y="477" type="line"/>
      <point x="179" y="477"/>
      <point x="179" y="464" type="qcurve"/>
      <point x="179" y="439"/>
      <point x="130" y="317" type="qcurve"/>
      <point x="111" y="248"/>
      <point x="111" y="191" type="qcurve"/>
      <point x="111" y="-57"/>
      <point x="375" y="-149" type="qcurve"/>
      <point x="449" y="-172"/>
      <point x="506" y="-172" type="qcurve"/>
      <point x="548" y="-172" type="line"/>
      <point x="775" y="-172"/>
      <point x="960" y="8" type="qcurve"/>
      <point x="966" y="22"/>
      <point x="966" y="59" type="qcurve"/>
      <point x="966" y="82" type="line"/>
      <point x="966" y="246"/>
      <point x="876" y="406" type="qcurve"/>
      <point x="945" y="526"/>
    </contour>
  </outline>
</glyph>
<glyph name="arabicfathatancomb" format="2">
  <advance width="0"/>
  <unicode hex="064B"/>
  <anchor x="114" y="0" name="top-arab"/>
  <outline>
    <contour>
      <point x="510" y="447" type="qcurve"/>
      <point x="512" y="446" type="line"/>
      <point x="511" y="444"/>
      <point x="509" y="442" type="qcurve"/>
      <point x="508" y="440" type="line"/>
      <point x="507" y="437"/>
      <point x="504" y="432" type="qcurve"/>
      <point x="502" y="429"/>
      <point x="501" y="424" type="qcurve"/>
      <point x="499" y="421"/>
      <point x="496" y="417" type="qcurve"/>
      <point x="495" y="413"/>
      <point x="491" y="408" type="qcurve"/>
      <point x="491" y="405"/>
      <point x="487" y="401" type="qcurve"/>
      <point x="486" y="398"/>
      <point x="483" y="393" type="qcurve"/>
      <point x="481" y="390"/>
      <point x="480" y="385" type="qcurve"/>
      <point x="471" y="369" type="line"/>
      <point x="469" y="366"/>
      <point x="467" y="362" type="qcurve"/>
      <point x="464" y="359"/>
      <point x="462" y="349"/>
      <point x="457" y="347" type="qcurve"/>
      <point x="454" y="345"/>
      <point x="449" y="343" type="qcurve"/>
      <point x="441" y="340" type="line"/>
      <point x="433" y="335" type="line"/>
      <point x="428" y="335"/>
      <point x="424" y="331" type="qcurve"/>
      <point x="420" y="330"/>
      <point x="416" y="327" type="qcurve"/>
      <point x="412" y="326"/>
      <point x="408" y="324" type="qcurve"/>
      <point x="404" y="323"/>
      <point x="399" y="321" type="qcurve"/>
      <point x="391" y="316" type="line"/>
      <point x="388" y="315"/>
      <point x="383" y="313" type="qcurve"/>
      <point x="380" y="310"/>
      <point x="375" y="308" type="qcurve"/>
      <point x="371" y="306"/>
      <point x="366" y="305" type="qcurve"/>
      <point x="363" y="303"/>
      <point x="358" y="301" type="qcurve"/>
      <point x="355" y="300"/>
      <point x="350" y="297" type="qcurve"/>
      <point x="342" y="294" type="line"/>
      <point x="334" y="289" type="line"/>
      <point x="330" y="288"/>
      <point x="325" y="286" type="qcurve"/>
      <point x="322" y="284"/>
      <point x="317" y="282" type="qcurve"/>
      <point x="314" y="280"/>
      <point x="309" y="279" type="qcurve"/>
      <point x="306" y="277"/>
      <point x="301" y="274" type="qcurve"/>
      <point x="297" y="273"/>
      <point x="292" y="270" type="qcurve"/>
      <point x="285" y="267" type="line"/>
      <point x="276" y="263" type="line"/>
      <point x="268" y="260" type="line"/>
      <point x="265" y="258"/>
      <point x="260" y="255" type="qcurve"/>
      <point x="257" y="254"/>
      <point x="251" y="252" type="qcurve"/>
      <point x="248" y="250"/>
      <point x="244" y="247" type="qcurve"/>
      <point x="240" y="246"/>
      <point x="235" y="244" type="qcurve"/>
      <point x="226" y="241" type="line"/>
      <point x="223" y="239"/>
      <point x="219" y="236" type="qcurve"/>
      <point x="210" y="233" type="line"/>
      <point x="203" y="228" type="line"/>
      <point x="198" y="227"/>
      <point x="194" y="225" type="qcurve"/>
      <point x="186" y="221" type="line"/>
      <point x="178" y="217" type="line"/>
      <point x="174" y="216"/>
      <point x="169" y="214" type="qcurve"/>
      <point x="166" y="211"/>
      <point x="161" y="209" type="qcurve"/>
      <point x="157" y="208"/>
      <point x="153" y="206" type="qcurve"/>
      <point x="149" y="205"/>
      <point x="145" y="202" type="qcurve"/>
      <point x="141" y="201"/>
      <point x="137" y="198" type="qcurve"/>
      <point x="128" y="195" type="line"/>
      <point x="125" y="192"/>
      <point x="120" y="190" type="qcurve"/>
      <point x="116" y="188"/>
      <point x="111" y="187" type="qcurve"/>
      <point x="108" y="184"/>
      <point x="103" y="183" type="qcurve"/>
      <point x="100" y="182"/>
      <point x="95" y="179" type="qcurve"/>
      <point x="87" y="175" type="line"/>
      <point x="79" y="171" type="line"/>
      <point x="75" y="170"/>
      <point x="70" y="168" type="qcurve"/>
      <point x="67" y="165"/>
      <point x="62" y="164" type="qcurve"/>
      <point x="59" y="163"/>
      <point x="54" y="161" type="qcurve"/>
      <point x="51" y="158"/>
      <point x="46" y="156" type="qcurve"/>
      <point x="43" y="155"/>
      <point x="38" y="152" type="qcurve"/>
      <point x="36" y="153" type="line"/>
      <point x="37" y="155"/>
      <point x="38" y="158" type="qcurve"/>
      <point x="39" y="161" type="line"/>
      <point x="43" y="168" type="line"/>
      <point x="44" y="172"/>
      <point x="46" y="178" type="qcurve"/>
      <point x="48" y="181"/>
      <point x="49" y="186" type="qcurve"/>
      <point x="50" y="190"/>
      <point x="53" y="195" type="qcurve"/>
      <point x="56" y="204" type="line"/>
      <point x="60" y="211" type="line"/>
      <point x="61" y="215"/>
      <point x="64" y="220" type="qcurve"/>
      <point x="65" y="224"/>
      <point x="69" y="232"/>
      <point x="70" y="237" type="qcurve"/>
      <point x="71" y="241"/>
      <point x="77" y="243" type="qcurve"/>
      <point x="80" y="245"/>
      <point x="86" y="246" type="qcurve"/>
      <point x="89" y="247"/>
      <point x="93" y="250" type="qcurve"/>
      <point x="97" y="252"/>
      <point x="102" y="254" type="qcurve"/>
      <point x="105" y="256"/>
      <point x="110" y="258" type="qcurve"/>
      <point x="113" y="260"/>
      <point x="118" y="263" type="qcurve"/>
      <point x="127" y="266" type="line"/>
      <point x="130" y="268"/>
      <point x="135" y="269" type="qcurve"/>
      <point x="138" y="271"/>
      <point x="142" y="274" type="qcurve"/>
      <point x="151" y="277" type="line"/>
      <point x="154" y="279"/>
      <point x="159" y="282" type="qcurve"/>
      <point x="163" y="283"/>
      <point x="167" y="286" type="qcurve"/>
      <point x="176" y="289" type="line"/>
      <point x="184" y="293" type="line"/>
      <point x="188" y="294"/>
      <point x="191" y="297" type="qcurve"/>
      <point x="200" y="301" type="line"/>
      <point x="207" y="305" type="line"/>
      <point x="216" y="308" type="line"/>
      <point x="219" y="310"/>
      <point x="225" y="312" type="qcurve"/>
      <point x="228" y="313"/>
      <point x="232" y="316" type="qcurve"/>
      <point x="241" y="320" type="line"/>
      <point x="244" y="322"/>
      <point x="252" y="326"/>
      <point x="257" y="327" type="qcurve"/>
      <point x="266" y="331" type="line"/>
      <point x="269" y="333"/>
      <point x="277" y="337"/>
      <point x="281" y="340" type="qcurve"/>
      <point x="285" y="341"/>
      <point x="290" y="343" type="qcurve"/>
      <point x="292" y="345"/>
      <point x="298" y="347" type="qcurve"/>
      <point x="302" y="348"/>
      <point x="305" y="351" type="qcurve"/>
      <point x="309" y="352"/>
      <point x="314" y="354" type="qcurve"/>
      <point x="317" y="357"/>
      <point x="323" y="359" type="qcurve"/>
      <point x="327" y="360"/>
      <point x="330" y="363" type="qcurve"/>
      <point x="334" y="364"/>
      <point x="339" y="366" type="qcurve"/>
      <point x="346" y="370" type="line"/>
      <point x="350" y="371"/>
      <point x="355" y="374" type="qcurve"/>
      <point x="358" y="376"/>
      <point x="364" y="378" type="qcurve"/>
      <point x="371" y="382" type="line"/>
      <point x="375" y="384"/>
      <point x="380" y="385" type="qcurve"/>
      <point x="383" y="387"/>
      <point x="388" y="389" type="qcurve"/>
      <point x="396" y="393" type="line"/>
      <point x="399" y="395"/>
      <point x="404" y="397" type="qcurve"/>
      <point x="412" y="401" type="line"/>
      <point x="416" y="403"/>
      <point x="421" y="405" type="qcurve"/>
      <point x="424" y="406"/>
      <point x="428" y="408" type="qcurve"/>
      <point x="437" y="412" type="line"/>
      <point x="441" y="414"/>
      <point x="445" y="417" type="qcurve"/>
      <point x="453" y="420" type="line"/>
      <point x="462" y="424" type="line"/>
      <point x="465" y="425"/>
      <point x="469" y="428" type="qcurve"/>
      <point x="473" y="429"/>
      <point x="478" y="431" type="qcurve"/>
      <point x="486" y="436" type="line"/>
      <point x="489" y="437"/>
      <point x="494" y="440" type="qcurve"/>
      <point x="497" y="441"/>
      <point x="502" y="443" type="qcurve"/>
      <point x="505" y="444"/>
    </contour>
    <contour>
      <point x="474" y="295" type="qcurve"/>
      <point x="476" y="294" type="line"/>
      <point x="474" y="291"/>
      <point x="472" y="287" type="qcurve"/>
      <point x="471" y="284"/>
      <point x="468" y="280" type="qcurve"/>
      <point x="466" y="277"/>
      <point x="464" y="272" type="qcurve"/>
      <point x="462" y="269"/>
      <point x="460" y="265" type="qcurve"/>
      <point x="455" y="256" type="line"/>
      <point x="454" y="252"/>
      <point x="451" y="248" type="qcurve"/>
      <point x="450" y="245"/>
      <point x="447" y="241" type="qcurve"/>
      <point x="445" y="238"/>
      <point x="443" y="233" type="qcurve"/>
      <point x="441" y="229"/>
      <point x="439" y="225" type="qcurve"/>
      <point x="437" y="222"/>
      <point x="435" y="217" type="qcurve"/>
      <point x="433" y="214"/>
      <point x="431" y="209" type="qcurve"/>
      <point x="428" y="206"/>
      <point x="426" y="202" type="qcurve"/>
      <point x="425" y="198"/>
      <point x="421" y="195" type="qcurve"/>
      <point x="413" y="190" type="line"/>
      <point x="409" y="189"/>
      <point x="404" y="187" type="qcurve"/>
      <point x="401" y="184"/>
      <point x="397" y="183" type="qcurve"/>
      <point x="392" y="182"/>
      <point x="388" y="179" type="qcurve"/>
      <point x="386" y="178"/>
      <point x="384" y="177" type="qcurve"/>
      <point x="380" y="175" type="line"/>
      <point x="372" y="171" type="line"/>
      <point x="368" y="170"/>
      <point x="364" y="168" type="qcurve"/>
      <point x="361" y="165"/>
      <point x="355" y="164" type="qcurve"/>
      <point x="351" y="163"/>
      <point x="347" y="160" type="qcurve"/>
      <point x="343" y="158"/>
      <point x="339" y="156" type="qcurve"/>
      <point x="336" y="155"/>
      <point x="331" y="152" type="qcurve"/>
      <point x="322" y="148" type="line"/>
      <point x="319" y="146"/>
      <point x="314" y="145" type="qcurve"/>
      <point x="310" y="144"/>
      <point x="306" y="141" type="qcurve"/>
      <point x="302" y="140"/>
      <point x="297" y="137" type="qcurve"/>
      <point x="294" y="136"/>
      <point x="290" y="133" type="qcurve"/>
      <point x="286" y="131"/>
      <point x="281" y="129" type="qcurve"/>
      <point x="278" y="128"/>
      <point x="273" y="126" type="qcurve"/>
      <point x="265" y="122" type="line"/>
      <point x="262" y="120"/>
      <point x="256" y="118" type="qcurve"/>
      <point x="253" y="116"/>
      <point x="248" y="115" type="qcurve"/>
      <point x="245" y="112"/>
      <point x="240" y="110" type="qcurve"/>
      <point x="237" y="109"/>
      <point x="232" y="107" type="qcurve"/>
      <point x="229" y="106"/>
      <point x="224" y="103" type="qcurve"/>
      <point x="215" y="99" type="line"/>
      <point x="212" y="98"/>
      <point x="207" y="95" type="qcurve"/>
      <point x="204" y="93"/>
      <point x="199" y="91" type="qcurve"/>
      <point x="195" y="89"/>
      <point x="190" y="89" type="qcurve"/>
      <point x="188" y="86"/>
      <point x="183" y="84" type="qcurve"/>
      <point x="179" y="83"/>
      <point x="174" y="80" type="qcurve"/>
      <point x="171" y="79"/>
      <point x="167" y="76" type="qcurve"/>
      <point x="158" y="72" type="line"/>
      <point x="149" y="69" type="line"/>
      <point x="146" y="67"/>
      <point x="142" y="65" type="qcurve"/>
      <point x="139" y="64"/>
      <point x="133" y="62" type="qcurve"/>
      <point x="129" y="59"/>
      <point x="125" y="57" type="qcurve"/>
      <point x="117" y="53" type="line"/>
      <point x="113" y="52"/>
      <point x="108" y="49" type="qcurve"/>
      <point x="105" y="48"/>
      <point x="101" y="46" type="qcurve"/>
      <point x="96" y="45"/>
      <point x="92" y="42" type="qcurve"/>
      <point x="88" y="40"/>
      <point x="84" y="38" type="qcurve"/>
      <point x="80" y="37"/>
      <point x="76" y="34" type="qcurve"/>
      <point x="67" y="30" type="line"/>
      <point x="65" y="28"/>
      <point x="59" y="27" type="qcurve"/>
      <point x="55" y="26"/>
      <point x="51" y="23" type="qcurve"/>
      <point x="47" y="22"/>
      <point x="43" y="19" type="qcurve"/>
      <point x="39" y="18"/>
      <point x="35" y="15" type="qcurve"/>
      <point x="31" y="13"/>
      <point x="26" y="11" type="qcurve"/>
      <point x="23" y="10"/>
      <point x="18" y="8" type="qcurve"/>
      <point x="10" y="4" type="line"/>
      <point x="2" y="0" type="line"/>
      <point x="0" y="0" type="line"/>
      <point x="1" y="4"/>
      <point x="3" y="9" type="qcurve"/>
      <point x="4" y="12"/>
      <point x="6" y="16" type="qcurve"/>
      <point x="13" y="33" type="line"/>
      <point x="14" y="37"/>
      <point x="16" y="42" type="qcurve"/>
      <point x="18" y="46"/>
      <point x="20" y="51" type="qcurve"/>
      <point x="21" y="54"/>
      <point x="24" y="59" type="qcurve"/>
      <point x="27" y="69" type="line"/>
      <point x="30" y="76" type="line"/>
      <point x="31" y="80"/>
      <point x="34" y="85" type="qcurve"/>
      <point x="35" y="89"/>
      <point x="41" y="90" type="qcurve"/>
      <point x="45" y="91"/>
      <point x="49" y="94" type="qcurve"/>
      <point x="52" y="95"/>
      <point x="57" y="98" type="qcurve"/>
      <point x="60" y="100"/>
      <point x="66" y="102" type="qcurve"/>
      <point x="70" y="103"/>
      <point x="74" y="106" type="qcurve"/>
      <point x="77" y="108"/>
      <point x="82" y="109" type="qcurve"/>
      <point x="85" y="111"/>
      <point x="90" y="113" type="qcurve"/>
      <point x="93" y="115"/>
      <point x="98" y="117" type="qcurve"/>
      <point x="102" y="119"/>
      <point x="107" y="121" type="qcurve"/>
      <point x="110" y="123"/>
      <point x="115" y="125" type="qcurve"/>
      <point x="118" y="127"/>
      <point x="123" y="129" type="qcurve"/>
      <point x="127" y="130"/>
      <point x="131" y="132" type="qcurve"/>
      <point x="134" y="134"/>
      <point x="140" y="137" type="qcurve"/>
      <point x="143" y="138"/>
      <point x="147" y="141" type="qcurve"/>
      <point x="156" y="144" type="line"/>
      <point x="159" y="147"/>
      <point x="164" y="148" type="qcurve"/>
      <point x="168" y="149"/>
      <point x="171" y="152" type="qcurve"/>
      <point x="181" y="156" type="line"/>
      <point x="188" y="160" type="line"/>
      <point x="196" y="163" type="line"/>
      <point x="199" y="166"/>
      <point x="205" y="167" type="qcurve"/>
      <point x="208" y="168"/>
      <point x="212" y="171" type="qcurve"/>
      <point x="221" y="175" type="line"/>
      <point x="224" y="177"/>
      <point x="229" y="179" type="qcurve"/>
      <point x="232" y="180"/>
      <point x="237" y="183" type="qcurve"/>
      <point x="246" y="187" type="line"/>
      <point x="249" y="189"/>
      <point x="253" y="190" type="qcurve"/>
      <point x="257" y="192"/>
      <point x="262" y="195" type="qcurve"/>
      <point x="270" y="198" type="line"/>
      <point x="273" y="200"/>
      <point x="278" y="202" type="qcurve"/>
      <point x="282" y="204"/>
      <point x="286" y="207" type="qcurve"/>
      <point x="295" y="209" type="line"/>
      <point x="297" y="211"/>
      <point x="303" y="214" type="qcurve"/>
      <point x="307" y="215"/>
      <point x="310" y="218" type="qcurve"/>
      <point x="314" y="219"/>
      <point x="319" y="221" type="qcurve"/>
      <point x="322" y="224"/>
      <point x="327" y="226" type="qcurve"/>
      <point x="331" y="227"/>
      <point x="339" y="231"/>
      <point x="344" y="233" type="qcurve"/>
      <point x="347" y="235"/>
      <point x="352" y="237" type="qcurve"/>
      <point x="356" y="238"/>
      <point x="360" y="241" type="qcurve"/>
      <point x="363" y="243"/>
      <point x="368" y="245" type="qcurve"/>
      <point x="376" y="248" type="line"/>
      <point x="380" y="249"/>
      <point x="384" y="252" type="qcurve"/>
      <point x="387" y="254"/>
      <point x="393" y="256" type="qcurve"/>
      <point x="401" y="260" type="line"/>
      <point x="405" y="262"/>
      <point x="409" y="264" type="qcurve"/>
      <point x="412" y="266"/>
      <point x="418" y="267" type="qcurve"/>
      <point x="425" y="272" type="line"/>
      <point x="428" y="273"/>
      <point x="433" y="275" type="qcurve"/>
      <point x="442" y="279" type="line"/>
      <point x="446" y="281"/>
      <point x="450" y="284" type="qcurve"/>
      <point x="453" y="285"/>
      <point x="458" y="286" type="qcurve"/>
      <point x="466" y="291" type="line"/>
      <point x="469" y="292"/>
    </contour>
  </outline>
</glyph>
<glyph name="tcheh-arab" format="2">
  <advance width="1243"/>
  <unicode hex="0686"/>
  <anchor x="514" y="1018" name="top-arab"/>
  <anchor x="576" y="-1071" name="bottom-arab"/>
  <outline>
    <contour>
      <point x="150" y="485" type="qcurve"/>
      <point x="154" y="538"/>
      <point x="191" y="633"/>
      <point x="255" y="702"/>
      <point x="345" y="742"/>
      <point x="402" y="742" type="qcurve"/>
      <point x="471" y="742"/>
      <point x="608" y="724"/>
      <point x="745" y="703"/>
      <point x="883" y="685"/>
      <point x="954" y="685" type="qcurve"/>
      <point x="1034" y="687" type="line"/>
      <point x="1079" y="687" type="line"/>
      <point x="1121" y="689" type="line"/>
      <point x="1146" y="689" type="line"/>
      <point x="1152" y="689" type="line"/>
      <point x="1157" y="689" type="line"/>
      <point x="1158" y="688" type="line"/>
      <point x="1157" y="687" type="line"/>
      <point x="1157" y="689" type="line"/>
      <point x="1156" y="688" type="line"/>
      <point x="1155" y="687" type="line"/>
      <point x="1134" y="647" type="line"/>
      <point x="1131" y="645"/>
      <point x="1111" y="609"/>
      <point x="1087" y="566"/>
      <point x="1065" y="527"/>
      <point x="1062" y="522" type="qcurve"/>
      <point x="931" y="514"/>
      <point x="702" y="438"/>
      <point x="507" y="309"/>
      <point x="345" y="129"/>
      <point x="280" y="17" type="qcurve"/>
      <point x="280" y="11" type="line"/>
      <point x="277" y="5"/>
      <point x="265" y="-21"/>
      <point x="253" y="-50"/>
      <point x="245" y="-77"/>
      <point x="246" y="-82" type="qcurve"/>
      <point x="240" y="-92"/>
      <point x="230" y="-134"/>
      <point x="225" y="-182"/>
      <point x="221" y="-226"/>
      <point x="221" y="-239" type="qcurve"/>
      <point x="221" y="-322"/>
      <point x="269" y="-459"/>
      <point x="358" y="-570"/>
      <point x="480" y="-654"/>
      <point x="554" y="-683" type="qcurve"/>
      <point x="560" y="-685"/>
      <point x="583" y="-693"/>
      <point x="607" y="-701"/>
      <point x="625" y="-707"/>
      <point x="626" y="-708" type="qcurve"/>
      <point x="749" y="-737"/>
      <point x="876" y="-737" type="qcurve"/>
      <point x="998" y="-737"/>
      <point x="1234" y="-685"/>
      <point x="1348" y="-640" type="qcurve"/>
      <point x="1347" y="-640"/>
      <point x="1334" y="-651"/>
      <point x="1320" y="-663"/>
      <point x="1307" y="-674"/>
      <point x="1306" y="-674" type="qcurve"/>
      <point x="1287" y="-689" type="line"/>
      <point x="1287" y="-692"/>
      <point x="1264" y="-709"/>
      <point x="1229" y="-731"/>
      <point x="1188" y="-754"/>
      <point x="1152" y="-775"/>
      <point x="1128" y="-789"/>
      <point x="1127" y="-790" type="qcurve"/>
      <point x="1093" y="-800"/>
      <point x="1019" y="-831"/>
      <point x="942" y="-858"/>
      <point x="865" y="-875"/>
      <point x="828" y="-872" type="qcurve"/>
      <point x="826" y="-874"/>
      <point x="799" y="-876"/>
      <point x="767" y="-877"/>
      <point x="738" y="-877"/>
      <point x="735" y="-877" type="qcurve"/>
      <point x="703" y="-877"/>
      <point x="630" y="-875"/>
      <point x="556" y="-864"/>
      <point x="486" y="-846"/>
      <point x="457" y="-832" type="qcurve"/>
      <point x="371" y="-790" type="line"/>
      <point x="364" y="-785"/>
      <point x="351" y="-778"/>
      <point x="345" y="-773" type="qcurve"/>
      <point x="343" y="-772"/>
      <point x="324" y="-757"/>
      <point x="302" y="-739"/>
      <point x="285" y="-725"/>
      <point x="284" y="-725" type="qcurve"/>
      <point x="271" y="-710"/>
      <point x="228" y="-651"/>
      <point x="188" y="-592"/>
      <point x="159" y="-547"/>
      <point x="158" y="-546" type="qcurve"/>
      <point x="154" y="-532"/>
      <point x="140" y="-501"/>
      <point x="139" y="-485" type="qcurve"/>
      <point x="137" y="-484"/>
      <point x="132" y="-466"/>
      <point x="128" y="-446"/>
      <point x="127" y="-438" type="qcurve"/>
      <point x="126" y="-430" type="line"/>
      <point x="123" y="-427"/>
      <point x="119" y="-397"/>
      <point x="116" y="-363"/>
      <point x="115" y="-332"/>
      <point x="115" y="-327" type="qcurve"/>
      <point x="115" y="-216"/>
      <point x="163" y="-13"/>
      <point x="250" y="171"/>
      <point x="375" y="339"/>
      <point x="451" y="415" type="qcurve"/>
      <point x="470" y="434"/>
      <point x="514" y="464"/>
      <point x="560" y="492"/>
      <point x="604" y="519"/>
      <point x="626" y="535" type="qcurve"/>
      <point x="637" y="537"/>
      <point x="645" y="544" type="qcurve"/>
      <point x="612" y="545"/>
      <point x="547" y="559"/>
      <point x="482" y="573"/>
      <point x="418" y="584"/>
      <point x="384" y="584" type="qcurve"/>
      <point x="317" y="584"/>
      <point x="199" y="530"/>
    </contour>
    <contour>
      <point x="907" y="-16" type="line"/>
      <point x="913" y="-17"/>
      <point x="946" y="-46"/>
      <point x="984" y="-81"/>
      <point x="1018" y="-113"/>
      <point x="1024" y="-118" type="qcurve"/>
      <point x="916" y="-231" type="line"/>
      <point x="883" y="-210"/>
      <point x="826" y="-152"/>
      <point x="804" y="-120" type="qcurve"/>
    </contour>
    <contour>
      <point x="685" y="-16" type="line"/>
      <point x="690" y="-17"/>
      <point x="724" y="-46"/>
      <point x="763" y="-82"/>
      <point x="798" y="-114"/>
      <point x="802" y="-118" type="qcurve"/>
      <point x="804" y="-121" type="line"/>
      <point x="694" y="-231" type="line"/>
      <point x="661" y="-210"/>
      <point x="604" y="-152"/>
      <point x="582" y="-120" type="qcurve"/>
    </contour>
    <contour>
      <point x="798" y="-218" type="line"/>
      <point x="803" y="-219"/>
      <point x="837" y="-247"/>
      <point x="876" y="-284"/>
      <point x="911" y="-316"/>
      <point x="916" y="-320" type="qcurve"/>
      <point x="917" y="-323" type="line"/>
      <point x="807" y="-433" type="line"/>
      <point x="774" y="-412"/>
      <point x="718" y="-354"/>
      <point x="696" y="-322" type="qcurve"/>
    </contour>
  </outline>
</glyph>
<glyph name="smallhighroundedzerocomb-arab" format="2">
  <advance width="0"/>
  <unicode hex="06DF"/>
  <anchor x="0" y="0" name="top-arab"/>
  <outline>
    <contour>
      <point x="78" y="47" type="qcurve"/>
      <point x="78" y="20"/>
      <point x="50" y="0"/>
      <point x="31" y="0" type="qcurve"/>
      <point x="13" y="0"/>
      <point x="3" y="17"/>
      <point x="3" y="29" type="qcurve"/>
      <point x="3" y="55"/>
      <point x="26" y="85" type="qcurve"/>
      <point x="25" y="97"/>
      <point x="34" y="100" type="qcurve"/>
      <point x="78" y="91"/>
    </contour>
    <contour>
      <point x="66" y="45" type="qcurve"/>
      <point x="66" y="56"/>
      <point x="50" y="74"/>
      <point x="36" y="77" type="qcurve"/>
      <point x="19" y="63"/>
      <point x="19" y="36" type="qcurve"/>
      <point x="19" y="21"/>
      <point x="40" y="21" type="qcurve"/>
      <point x="50" y="21"/>
      <point x="66" y="34"/>
    </contour>
  </outline>
</glyph>
<glyph name="smallhighuprightrectangularzerocomb-arab" format="2">
  <advance width="0"/>
  <unicode hex="06E0"/>
  <anchor x="0" y="0" name="top-arab"/>
  <outline>
    <contour>
      <point x="62" y="29" type="line"/>
      <point x="33" y="0" type="line"/>
      <point x="-1" y="33" type="line"/>
      <point x="29" y="63" type="line"/>
    </contour>
  </outline>
</glyph>
<glyph name="smallhighmaddacomb-arab" format="2">
  <advance width="0"/>
  <unicode hex="06E4"/>
  <anchor x="0" y="0" name="top-arab"/>
  <outline>
    <contour>
      <point x="99" y="22" type="qcurve"/>
      <point x="88" y="3"/>
      <point x="68" y="3" type="qcurve"/>
      <point x="60" y="3"/>
      <point x="31" y="6"/>
      <point x="24" y="6" type="qcurve"/>
      <point x="13" y="6"/>
      <point x="0" y="0" type="qcurve"/>
      <point x="3" y="9"/>
      <point x="22" y="19"/>
      <point x="30" y="19" type="qcurve"/>
      <point x="37" y="19"/>
      <point x="64" y="16"/>
      <point x="71" y="16" type="qcurve"/>
      <point x="82" y="16"/>
    </contour>
  </outline>
</glyph>
<glyph name="smallhighnooncomb-arab" format="2">
  <advance width="0"/>
  <unicode hex="06E8"/>
  <anchor x="0" y="0" name="top-arab"/>
  <outline>
    <contour>
      <point x="85" y="89" type="line"/>
      <point x="69" y="73" type="line"/>
      <point x="51" y="91" type="line"/>
      <point x="67" y="107" type="line"/>
    </contour>
    <contour>
      <point x="126" y="58" type="qcurve"/>
      <point x="137" y="45"/>
      <point x="146" y="9"/>
      <point x="146" y="-12" type="qcurve"/>
      <point x="146" y="-37"/>
      <point x="139" y="-45" type="qcurve"/>
      <point x="134" y="-53"/>
      <point x="115" y="-66"/>
      <point x="92" y="-76"/>
      <point x="68" y="-83"/>
      <point x="56" y="-83" type="qcurve"/>
      <point x="0" y="-83"/>
      <point x="0" y="-28" type="qcurve"/>
      <point x="0" y="-11"/>
      <point x="10" y="18"/>
      <point x="23" y="40" type="qcurve"/>
      <point x="24" y="36"/>
      <point x="23" y="30" type="qcurve"/>
      <point x="13" y="1"/>
      <point x="12" y="-16" type="qcurve"/>
      <point x="12" y="-63"/>
      <point x="62" y="-63" type="qcurve"/>
      <point x="79" y="-63"/>
      <point x="113" y="-51"/>
      <point x="125" y="-42" type="qcurve"/>
      <point x="135" y="-35"/>
      <point x="134" y="-24" type="qcurve"/>
      <point x="134" y="-7"/>
      <point x="126" y="26"/>
      <point x="114" y="36" type="qcurve"/>
      <point x="115" y="50"/>
    </contour>
  </outline>
</glyph>
<glyph name="emptycentrelowstopcomb-arab" format="2">
  <advance width="0"/>
  <unicode hex="06EA"/>
  <anchor x="71" y="0" name="bottom-arab"/>
  <outline>
    <contour>
      <point x="135" y="-68" type="qcurve"/>
      <point x="135" y="-96"/>
      <point x="95" y="-134"/>
      <point x="68" y="-134" type="qcurve"/>
      <point x="40" y="-134"/>
      <point x="0" y="-95"/>
      <point x="0" y="-68" type="qcurve"/>
      <point x="0" y="-39"/>
      <point x="40" y="0"/>
      <point x="68" y="0" type="qcurve"/>
      <point x="96" y="0"/>
      <point x="135" y="-39"/>
    </contour>
    <contour>
      <point x="115" y="-69" type="qcurve"/>
      <point x="115" y="-20"/>
      <point x="19" y="-20"/>
      <point x="19" y="-69" type="qcurve"/>
      <point x="19" y="-117"/>
      <point x="67" y="-116" type="qcurve"/>
      <point x="115" y="-117"/>
    </contour>
  </outline>
</glyph>
<glyph name="hehgoal-arab.medi" format="2">
  <advance width="800"/>
  <unicode hex="FBA9"/>
  <anchor x="243" y="842" name="top-arab"/>
  <anchor x="243" y="-699" name="bottom-arab"/>
  <outline>
    <contour>
      <point x="362" y="410" type="qcurve"/>
      <point x="367" y="413"/>
      <point x="374" y="419" type="qcurve"/>
      <point x="396" y="421"/>
      <point x="384" y="368" type="qcurve"/>
      <point x="380" y="357" type="line"/>
      <point x="379" y="353"/>
      <point x="377" y="349" type="qcurve"/>
      <point x="376" y="347" type="line"/>
      <point x="375" y="345" type="line"/>
      <point x="374" y="341" type="line"/>
      <point x="373" y="338" type="line"/>
      <point x="371" y="335" type="line"/>
      <point x="368" y="325" type="line"/>
      <point x="366" y="322" type="line"/>
      <point x="365" y="318" type="line"/>
      <point x="362" y="311"/>
      <point x="361" y="303" type="qcurve"/>
      <point x="358" y="298" type="line"/>
      <point x="357" y="293"/>
      <point x="354" y="286" type="qcurve"/>
      <point x="353" y="281" type="line"/>
      <point x="350" y="274"/>
      <point x="348" y="266" type="qcurve"/>
      <point x="347" y="264" type="line"/>
      <point x="346" y="261" type="line"/>
      <point x="345" y="258" type="line"/>
      <point x="344" y="252" type="line"/>
      <point x="339" y="234" type="line"/>
      <point x="337" y="227" type="line"/>
      <point x="335" y="220" type="line"/>
      <point x="332" y="207" type="line"/>
      <point x="331" y="204" type="line"/>
      <point x="330" y="201" type="line"/>
      <point x="328" y="190" type="line"/>
      <point x="325" y="177" type="line"/>
      <point x="325" y="171" type="line"/>
      <point x="324" y="167" type="line"/>
      <point x="320" y="147" type="line"/>
      <point x="320" y="144" type="line"/>
      <point x="319" y="140" type="line"/>
      <point x="319" y="137" type="line"/>
      <point x="318" y="133" type="line"/>
      <point x="318" y="130" type="line"/>
      <point x="317" y="125" type="line"/>
      <point x="317" y="121" type="line"/>
      <point x="316" y="116" type="line"/>
      <point x="316" y="112" type="line"/>
      <point x="315" y="108" type="line"/>
      <point x="316" y="103"/>
      <point x="314" y="96" type="qcurve"/>
      <point x="314" y="83" type="line"/>
      <point x="313" y="80" type="line"/>
      <point x="313" y="64" type="line"/>
      <point x="313" y="48" type="line"/>
      <point x="313" y="44" type="line"/>
      <point x="313" y="39" type="line"/>
      <point x="313" y="34" type="line"/>
      <point x="313" y="30" type="line"/>
      <point x="315" y="10" type="line"/>
      <point x="315" y="8" type="line"/>
      <point x="315" y="6"/>
      <point x="316" y="5" type="qcurve"/>
      <point x="316" y="-1" type="line"/>
      <point x="317" y="-5" type="line"/>
      <point x="316" y="-9"/>
      <point x="318" y="-12" type="qcurve"/>
      <point x="318" y="-15" type="line"/>
      <point x="320" y="-29" type="line"/>
      <point x="322" y="-34" type="line"/>
      <point x="323" y="-41" type="line"/>
      <point x="323" y="-46"/>
      <point x="325" y="-51" type="qcurve"/>
      <point x="326" y="-55" type="line"/>
      <point x="326" y="-59" type="line"/>
      <point x="328" y="-62" type="line"/>
      <point x="328" y="-66" type="line"/>
      <point x="330" y="-69" type="line"/>
      <point x="330" y="-72" type="line"/>
      <point x="333" y="-81"/>
      <point x="339" y="-94" type="qcurve"/>
      <point x="340" y="-101"/>
      <point x="345" y="-109" type="qcurve"/>
      <point x="345" y="-110"/>
      <point x="345" y="-111" type="qcurve"/>
      <point x="347" y="-118"/>
      <point x="352" y="-126" type="qcurve"/>
      <point x="353" y="-131"/>
      <point x="358" y="-136" type="qcurve"/>
      <point x="360" y="-142" type="line"/>
      <point x="361" y="-144" type="line"/>
      <point x="363" y="-146" type="line"/>
      <point x="364" y="-148" type="line"/>
      <point x="372" y="-162" type="line"/>
      <point x="374" y="-157"/>
      <point x="375" y="-150" type="qcurve"/>
      <point x="381" y="-127" type="line"/>
      <point x="382" y="-123" type="line"/>
      <point x="383" y="-120" type="line"/>
      <point x="384" y="-118" type="line"/>
      <point x="384" y="-115" type="line"/>
      <point x="385" y="-107"/>
      <point x="390" y="-98" type="qcurve"/>
      <point x="391" y="-94" type="line"/>
      <point x="392" y="-89" type="line"/>
      <point x="500" y="153"/>
      <point x="800" y="168" type="qcurve"/>
      <point x="800" y="167" type="line"/>
      <point x="800" y="168" type="line"/>
      <point x="800" y="167" type="line"/>
      <point x="800" y="165" type="line"/>
      <point x="800" y="163" type="line"/>
      <point x="800" y="161" type="line"/>
      <point x="800" y="159" type="line"/>
      <point x="800" y="157" type="line"/>
      <point x="800" y="155" type="line"/>
      <point x="800" y="153" type="line"/>
      <point x="800" y="151" type="line"/>
      <point x="800" y="149" type="line"/>
      <point x="800" y="148" type="line"/>
      <point x="800" y="146" type="line"/>
      <point x="800" y="144" type="line"/>
      <point x="800" y="142" type="line"/>
      <point x="800" y="140" type="line"/>
      <point x="800" y="138" type="line"/>
      <point x="800" y="136" type="line"/>
      <point x="800" y="134" type="line"/>
      <point x="800" y="132" type="line"/>
      <point x="800" y="130" type="line"/>
      <point x="800" y="128" type="line"/>
      <point x="800" y="127" type="line"/>
      <point x="800" y="125" type="line"/>
      <point x="800" y="123" type="line"/>
      <point x="800" y="121" type="line"/>
      <point x="800" y="119" type="line"/>
      <point x="800" y="117" type="line"/>
      <point x="800" y="115" type="line"/>
      <point x="800" y="113" type="line"/>
      <point x="800" y="111" type="line"/>
      <point x="800" y="109" type="line"/>
      <point x="800" y="108" type="line"/>
      <point x="800" y="106" type="line"/>
      <point x="800" y="104" type="line"/>
      <point x="800" y="102" type="line"/>
      <point x="800" y="100" type="line"/>
      <point x="800" y="98" type="line"/>
      <point x="800" y="96" type="line"/>
      <point x="800" y="94" type="line"/>
      <point x="800" y="92" type="line"/>
      <point x="800" y="90" type="line"/>
      <point x="800" y="89" type="line"/>
      <point x="800" y="87" type="line"/>
      <point x="800" y="85" type="line"/>
      <point x="800" y="83" type="line"/>
      <point x="800" y="81" type="line"/>
      <point x="800" y="79" type="line"/>
      <point x="800" y="77" type="line"/>
      <point x="800" y="75" type="line"/>
      <point x="800" y="73" type="line"/>
      <point x="800" y="71" type="line"/>
      <point x="800" y="69" type="line"/>
      <point x="800" y="68" type="line"/>
      <point x="800" y="66" type="line"/>
      <point x="800" y="64" type="line"/>
      <point x="800" y="62" type="line"/>
      <point x="800" y="60" type="line"/>
      <point x="800" y="58" type="line"/>
      <point x="800" y="56" type="line"/>
      <point x="800" y="54" type="line"/>
      <point x="800" y="52" type="line"/>
      <point x="800" y="50" type="line"/>
      <point x="800" y="49" type="line"/>
      <point x="800" y="47" type="line"/>
      <point x="800" y="45" type="line"/>
      <point x="800" y="43" type="line"/>
      <point x="800" y="41" type="line"/>
      <point x="800" y="39" type="line"/>
      <point x="800" y="37" type="line"/>
      <point x="800" y="35" type="line"/>
      <point x="800" y="33" type="line"/>
      <point x="800" y="31" type="line"/>
      <point x="800" y="30" type="line"/>
      <point x="800" y="28" type="line"/>
      <point x="800" y="26" type="line"/>
      <point x="800" y="24" type="line"/>
      <point x="800" y="22" type="line"/>
      <point x="800" y="20" type="line"/>
      <point x="800" y="18" type="line"/>
      <point x="800" y="16" type="line"/>
      <point x="800" y="14" type="line"/>
      <point x="800" y="12" type="line"/>
      <point x="800" y="10" type="line"/>
      <point x="800" y="9" type="line"/>
      <point x="800" y="7" type="line"/>
      <point x="800" y="5" type="line"/>
      <point x="800" y="3" type="line"/>
      <point x="800" y="2" type="line"/>
      <point x="800" y="3" type="line"/>
      <point x="800" y="1" type="line"/>
      <point x="800" y="2" type="line"/>
      <point x="800" y="0" type="line"/>
      <point x="792" y="0"/>
      <point x="781" y="0" type="qcurve"/>
      <point x="778" y="0" type="line"/>
      <point x="775" y="0" type="line"/>
      <point x="768" y="0"/>
      <point x="758" y="-1" type="qcurve"/>
      <point x="755" y="-1" type="line"/>
      <point x="752" y="-1" type="line"/>
      <point x="748" y="-1" type="line"/>
      <point x="744" y="-2" type="line"/>
      <point x="735" y="-1"/>
      <point x="723" y="-3" type="qcurve"/>
      <point x="715" y="-2"/>
      <point x="705" y="-4" type="qcurve"/>
      <point x="702" y="-4" type="line"/>
      <point x="696" y="-4" type="line"/>
      <point x="692" y="-4" type="line"/>
      <point x="689" y="-5" type="line"/>
      <point x="679" y="-5" type="line"/>
      <point x="665" y="-7" type="line"/>
      <point x="659" y="-7"/>
      <point x="653" y="-8" type="qcurve"/>
      <point x="649" y="-9" type="line"/>
      <point x="531" y="-15"/>
      <point x="453" y="-102" type="qcurve"/>
      <point x="452" y="-112"/>
      <point x="454" y="-126" type="qcurve"/>
      <point x="454" y="-128" type="line"/>
      <point x="454" y="-131" type="line"/>
      <point x="454" y="-135" type="line"/>
      <point x="454" y="-138" type="line"/>
      <point x="455" y="-142"/>
      <point x="455" y="-148" type="qcurve"/>
      <point x="456" y="-151" type="line"/>
      <point x="463" y="-295"/>
      <point x="584" y="-333" type="qcurve"/>
      <point x="585" y="-336"/>
      <point x="585" y="-340" type="qcurve"/>
      <point x="581" y="-347"/>
      <point x="579" y="-357" type="qcurve"/>
      <point x="576" y="-364" type="line"/>
      <point x="575" y="-365" type="line"/>
      <point x="570" y="-379" type="line"/>
      <point x="567" y="-385" type="line"/>
      <point x="567" y="-388" type="line"/>
      <point x="565" y="-391" type="line"/>
      <point x="564" y="-395" type="line"/>
      <point x="562" y="-399" type="line"/>
      <point x="558" y="-414" type="line"/>
      <point x="556" y="-419" type="line"/>
      <point x="554" y="-423" type="line"/>
      <point x="553" y="-426" type="line"/>
      <point x="551" y="-430" type="line"/>
      <point x="548" y="-435"/>
      <point x="547" y="-443" type="qcurve"/>
      <point x="545" y="-444" type="line"/>
      <point x="545" y="-447" type="line"/>
      <point x="544" y="-449" type="line"/>
      <point x="542" y="-452" type="line"/>
      <point x="542" y="-456" type="line"/>
      <point x="537" y="-468" type="line"/>
      <point x="536" y="-471" type="line"/>
      <point x="533" y="-478" type="line"/>
      <point x="531" y="-484" type="line"/>
      <point x="529" y="-491" type="line"/>
      <point x="526" y="-498" type="line"/>
      <point x="340" y="-442"/>
      <point x="246" y="-255" type="qcurve"/>
      <point x="244" y="-246"/>
      <point x="238" y="-237" type="qcurve"/>
      <point x="238" y="-234" type="line"/>
      <point x="235" y="-227" type="line"/>
      <point x="234" y="-225" type="line"/>
      <point x="232" y="-223" type="line"/>
      <point x="230" y="-214" type="line"/>
      <point x="229" y="-212" type="line"/>
      <point x="228" y="-208" type="line"/>
      <point x="171" y="-33"/>
      <point x="242" y="161" type="qcurve"/>
      <point x="236" y="155"/>
      <point x="231" y="145" type="qcurve"/>
      <point x="229" y="144" type="line"/>
      <point x="227" y="141" type="line"/>
      <point x="226" y="139" type="line"/>
      <point x="225" y="136" type="line"/>
      <point x="222" y="132" type="line"/>
      <point x="220" y="128" type="line"/>
      <point x="217" y="126" type="line"/>
      <point x="214" y="122"/>
      <point x="211" y="116" type="qcurve"/>
      <point x="208" y="112" type="line"/>
      <point x="204" y="109"/>
      <point x="200" y="103" type="qcurve"/>
      <point x="195" y="98"/>
      <point x="190" y="90" type="qcurve"/>
      <point x="181" y="84"/>
      <point x="172" y="72" type="qcurve"/>
      <point x="171" y="72"/>
      <point x="170" y="70" type="qcurve"/>
      <point x="165" y="67"/>
      <point x="162" y="62" type="qcurve"/>
      <point x="155" y="59"/>
      <point x="150" y="52" type="qcurve"/>
      <point x="148" y="51" type="line"/>
      <point x="146" y="49" type="line"/>
      <point x="139" y="46"/>
      <point x="132" y="39" type="qcurve"/>
      <point x="125" y="36"/>
      <point x="117" y="30" type="qcurve"/>
      <point x="114" y="29" type="line"/>
      <point x="110" y="27"/>
      <point x="105" y="23" type="qcurve"/>
      <point x="101" y="21" type="line"/>
      <point x="94" y="19"/>
      <point x="86" y="15" type="qcurve"/>
      <point x="84" y="14" type="line"/>
      <point x="77" y="11" type="line"/>
      <point x="73" y="10" type="line"/>
      <point x="70" y="10" type="line"/>
      <point x="68" y="10"/>
      <point x="68" y="9" type="qcurve"/>
      <point x="63" y="9"/>
      <point x="57" y="6" type="qcurve"/>
      <point x="43" y="4" type="line"/>
      <point x="36" y="2"/>
      <point x="27" y="2" type="qcurve"/>
      <point x="24" y="1" type="line"/>
      <point x="13" y="1" type="line"/>
      <point x="10" y="1" type="line"/>
      <point x="0" y="1" type="line"/>
      <point x="0" y="168" type="line"/>
      <point x="10" y="167"/>
      <point x="24" y="169" type="qcurve"/>
      <point x="27" y="169" type="line"/>
      <point x="30" y="169" type="line"/>
      <point x="33" y="169" type="line"/>
      <point x="36" y="170" type="line"/>
      <point x="41" y="170" type="line"/>
      <point x="44" y="171" type="line"/>
      <point x="54" y="171"/>
      <point x="66" y="175" type="qcurve"/>
      <point x="69" y="175" type="line"/>
      <point x="71" y="176" type="line"/>
      <point x="92" y="181" type="line"/>
      <point x="205" y="220"/>
      <point x="291" y="324" type="qcurve"/>
      <point x="295" y="327"/>
      <point x="300" y="332" type="qcurve"/>
      <point x="302" y="334" type="line"/>
      <point x="305" y="338"/>
      <point x="308" y="344" type="qcurve"/>
      <point x="309" y="344"/>
      <point x="310" y="345" type="qcurve"/>
      <point x="314" y="349"/>
      <point x="318" y="356" type="qcurve"/>
      <point x="320" y="358"/>
      <point x="322" y="361" type="qcurve"/>
      <point x="324" y="362" type="line"/>
      <point x="325" y="364" type="line"/>
      <point x="327" y="367" type="line"/>
      <point x="329" y="370" type="line"/>
      <point x="331" y="373" type="line"/>
      <point x="333" y="376" type="line"/>
      <point x="340" y="382"/>
      <point x="345" y="391" type="qcurve"/>
      <point x="352" y="397"/>
      <point x="360" y="408" type="qcurve"/>
      <point x="361" y="408"/>
    </contour>
  </outline>
</glyph>
<glyph name="uighurkazakhkirghizalefmaksura-arab.medi" format="2">
  <advance width="418"/>
  <unicode hex="FBE9"/>
  <anchor x="186" y="585" name="top-arab"/>
  <anchor x="186" y="-200" name="bottom-arab"/>
  <outline>
    <contour>
      <point x="241" y="324" type="line"/>
      <point x="250" y="324"/>
      <point x="253" y="313" type="qcurve"/>
      <point x="258" y="168"/>
      <point x="419" y="172" type="qcurve"/>
      <point x="419" y="0" type="line"/>
      <point x="407" y="0" type="line"/>
      <point x="404" y="0" type="line"/>
      <point x="388" y="0" type="line"/>
      <point x="384" y="0" type="line"/>
      <point x="381" y="0" type="line"/>
      <point x="377" y="0" type="line"/>
      <point x="364" y="0" type="line"/>
      <point x="345" y="2" type="line"/>
      <point x="325" y="5" type="line"/>
      <point x="311" y="9" type="line"/>
      <point x="309" y="10" type="line"/>
      <point x="305" y="10" type="line"/>
      <point x="303" y="10" type="line"/>
      <point x="299" y="13"/>
      <point x="292" y="14" type="qcurve"/>
      <point x="288" y="16" type="line"/>
      <point x="286" y="17" type="line"/>
      <point x="282" y="18"/>
      <point x="278" y="21" type="qcurve"/>
      <point x="276" y="22" type="line"/>
      <point x="272" y="23" type="line"/>
      <point x="254" y="35" type="line"/>
      <point x="251" y="37" type="line"/>
      <point x="249" y="39"/>
      <point x="246" y="41" type="qcurve"/>
      <point x="241" y="48"/>
      <point x="231" y="55" type="qcurve"/>
      <point x="231" y="56"/>
      <point x="229" y="57" type="qcurve"/>
      <point x="228" y="60" type="line"/>
      <point x="226" y="62" type="line"/>
      <point x="223" y="69"/>
      <point x="215" y="76" type="qcurve"/>
      <point x="214" y="79" type="line"/>
      <point x="210" y="84"/>
      <point x="207" y="91" type="qcurve"/>
      <point x="206" y="92" type="line"/>
      <point x="203" y="99" type="line"/>
      <point x="201" y="105" type="line"/>
      <point x="200" y="107" type="line"/>
      <point x="194" y="103"/>
      <point x="189" y="96" type="qcurve"/>
      <point x="187" y="95" type="line"/>
      <point x="186" y="95"/>
      <point x="186" y="93" type="qcurve"/>
      <point x="181" y="90"/>
      <point x="176" y="85" type="qcurve"/>
      <point x="172" y="83" type="line"/>
      <point x="169" y="79" type="line"/>
      <point x="166" y="77" type="line"/>
      <point x="162" y="73" type="line"/>
      <point x="159" y="70" type="line"/>
      <point x="157" y="70"/>
      <point x="156" y="69" type="qcurve"/>
      <point x="153" y="67" type="line"/>
      <point x="139" y="57" type="line"/>
      <point x="138" y="55" type="line"/>
      <point x="135" y="54" type="line"/>
      <point x="133" y="52" type="line"/>
      <point x="130" y="50" type="line"/>
      <point x="124" y="47" type="line"/>
      <point x="121" y="44" type="line"/>
      <point x="117" y="43" type="line"/>
      <point x="108" y="36" type="line"/>
      <point x="103" y="35"/>
      <point x="99" y="31" type="qcurve"/>
      <point x="94" y="30"/>
      <point x="89" y="27" type="qcurve"/>
      <point x="83" y="24" type="line"/>
      <point x="75" y="20" type="line"/>
      <point x="66" y="16" type="line"/>
      <point x="61" y="14" type="line"/>
      <point x="47" y="10" type="line"/>
      <point x="40" y="8" type="line"/>
      <point x="35" y="7" type="line"/>
      <point x="20" y="3" type="line"/>
      <point x="14" y="2" type="line"/>
      <point x="0" y="0" type="line"/>
      <point x="0" y="172" type="line"/>
      <point x="21" y="172"/>
      <point x="174" y="192"/>
      <point x="224" y="304" type="qcurve"/>
      <point x="233" y="316" type="line"/>
      <point x="235" y="319" type="line"/>
    </contour>
  </outline>
</glyph>
<glyph name="lammeem-arab.isol" format="2">
  <advance width="850"/>
  <unicode hex="FC42"/>
  <outline>
    <contour>
      <point x="680" y="1496" type="line"/>
      <point x="749" y="1225" type="line"/>
      <point x="746" y="1223" type="line"/>
      <point x="724" y="1203" type="line"/>
      <point x="721" y="1199"/>
      <point x="717" y="1196" type="qcurve"/>
      <point x="701" y="1182" type="line"/>
      <point x="698" y="1178"/>
      <point x="697" y="1173" type="qcurve"/>
      <point x="764" y="455" type="line"/>
      <point x="761" y="429" type="line"/>
      <point x="750" y="384" type="line"/>
      <point x="742" y="363" type="line"/>
      <point x="740" y="358"/>
      <point x="738" y="352" type="qcurve"/>
      <point x="715" y="305" type="line"/>
      <point x="685" y="263" type="line"/>
      <point x="681" y="260"/>
      <point x="679" y="255" type="qcurve"/>
      <point x="657" y="234" type="line"/>
      <point x="654" y="230"/>
      <point x="649" y="227" type="qcurve"/>
      <point x="608" y="197" type="line"/>
      <point x="539" y="167" type="line"/>
      <point x="516" y="161" type="line"/>
      <point x="520" y="157" type="line"/>
      <point x="580" y="130" type="line"/>
      <point x="652" y="74" type="line"/>
      <point x="661" y="64" type="line"/>
      <point x="654" y="49" type="line"/>
      <point x="652" y="44"/>
      <point x="649" y="38" type="qcurve"/>
      <point x="605" y="-47" type="line"/>
      <point x="588" y="-71" type="line"/>
      <point x="585" y="-75"/>
      <point x="581" y="-80" type="qcurve"/>
      <point x="561" y="-103" type="line"/>
      <point x="504" y="-62" type="line"/>
      <point x="455" y="-40" type="line"/>
      <point x="398" y="-26" type="line"/>
      <point x="317" y="-21" type="line"/>
      <point x="252" y="-28" type="line"/>
      <point x="187" y="-48" type="line"/>
      <point x="182" y="-50"/>
      <point x="172" y="-54"/>
      <point x="167" y="-57" type="qcurve"/>
      <point x="149" y="-68" type="line"/>
      <point x="197" y="-819" type="line"/>
      <point x="186" y="-894" type="line"/>
      <point x="157" y="-979" type="line"/>
      <point x="143" y="-1008" type="line"/>
      <point x="130" y="-1024" type="line"/>
      <point x="125" y="-1026"/>
      <point x="119" y="-1028" type="qcurve"/>
      <point x="117" y="-1022"/>
      <point x="116" y="-1016" type="qcurve"/>
      <point x="115" y="-1003" type="line"/>
      <point x="116" y="-989" type="line"/>
      <point x="60" y="-174" type="line"/>
      <point x="66" y="-123" type="line"/>
      <point x="86" y="-57" type="line"/>
      <point x="109" y="-10" type="line"/>
      <point x="139" y="32" type="line"/>
      <point x="189" y="82" type="line"/>
      <point x="249" y="122" type="line"/>
      <point x="254" y="124"/>
      <point x="259" y="127" type="qcurve"/>
      <point x="264" y="129"/>
      <point x="268" y="131" type="qcurve"/>
      <point x="321" y="150" type="line"/>
      <point x="326" y="151"/>
      <point x="331" y="154" type="qcurve"/>
      <point x="337" y="163" type="line"/>
      <point x="341" y="166"/>
      <point x="344" y="170" type="qcurve"/>
      <point x="389" y="211" type="line"/>
      <point x="670" y="359" type="line"/>
      <point x="672" y="362" type="line"/>
      <point x="576" y="1317" type="line"/>
      <point x="576" y="1322"/>
      <point x="578" y="1328" type="qcurve"/>
    </contour>
  </outline>
</glyph>
<glyph name="hahmeem-arab.init" format="2">
  <advance width="1208"/>
  <unicode hex="FCAA"/>
  <outline>
    <contour>
      <point x="406" y="699" type="line"/>
      <point x="407" y="699"/>
      <point x="409" y="700" type="qcurve"/>
      <point x="421" y="700" type="line"/>
      <point x="423" y="700" type="line"/>
      <point x="440" y="700" type="line"/>
      <point x="443" y="700" type="line"/>
      <point x="464" y="697" type="line"/>
      <point x="471" y="696" type="line"/>
      <point x="477" y="694" type="line"/>
      <point x="488" y="691" type="line"/>
      <point x="491" y="690" type="line"/>
      <point x="494" y="689" type="line"/>
      <point x="497" y="688" type="line"/>
      <point x="500" y="687" type="line"/>
      <point x="505" y="686" type="line"/>
      <point x="512" y="684" type="line"/>
      <point x="515" y="682" type="line"/>
      <point x="520" y="681" type="line"/>
      <point x="524" y="679"/>
      <point x="530" y="678" type="qcurve"/>
      <point x="531" y="677"/>
      <point x="534" y="677" type="qcurve"/>
      <point x="541" y="673"/>
      <point x="552" y="669" type="qcurve"/>
      <point x="556" y="667" type="line"/>
      <point x="560" y="666"/>
      <point x="564" y="663" type="qcurve"/>
      <point x="566" y="662" type="line"/>
      <point x="570" y="661" type="line"/>
      <point x="574" y="659"/>
      <point x="580" y="658" type="qcurve"/>
      <point x="583" y="656" type="line"/>
      <point x="593" y="651" type="line"/>
      <point x="599" y="648" type="line"/>
      <point x="604" y="646" type="line"/>
      <point x="609" y="643" type="line"/>
      <point x="613" y="642" type="line"/>
      <point x="618" y="638"/>
      <point x="625" y="637" type="qcurve"/>
      <point x="639" y="629" type="line"/>
      <point x="645" y="627" type="line"/>
      <point x="660" y="619" type="line"/>
      <point x="663" y="618" type="line"/>
      <point x="665" y="617" type="line"/>
      <point x="669" y="615"/>
      <point x="675" y="612" type="qcurve"/>
      <point x="679" y="610"/>
      <point x="684" y="608" type="qcurve"/>
      <point x="687" y="606" type="line"/>
      <point x="691" y="604"/>
      <point x="697" y="601" type="qcurve"/>
      <point x="708" y="597" type="line"/>
      <point x="712" y="595" type="line"/>
      <point x="716" y="593" type="line"/>
      <point x="717" y="592"/>
      <point x="719" y="592" type="qcurve"/>
      <point x="729" y="585"/>
      <point x="746" y="580" type="qcurve"/>
      <point x="748" y="579" type="line"/>
      <point x="751" y="577" type="line"/>
      <point x="765" y="571" type="line"/>
      <point x="767" y="570" type="line"/>
      <point x="770" y="568" type="line"/>
      <point x="774" y="567" type="line"/>
      <point x="778" y="565"/>
      <point x="783" y="563" type="qcurve"/>
      <point x="790" y="561" type="line"/>
      <point x="795" y="558"/>
      <point x="802" y="556" type="qcurve"/>
      <point x="806" y="554" type="line"/>
      <point x="818" y="549" type="line"/>
      <point x="823" y="548" type="line"/>
      <point x="827" y="546"/>
      <point x="833" y="544" type="qcurve"/>
      <point x="839" y="542" type="line"/>
      <point x="842" y="541" type="line"/>
      <point x="845" y="540"/>
      <point x="850" y="538" type="qcurve"/>
      <point x="854" y="537" type="line"/>
      <point x="857" y="536" type="line"/>
      <point x="862" y="534"/>
      <point x="867" y="533" type="qcurve"/>
      <point x="872" y="531"/>
      <point x="876" y="530" type="qcurve"/>
      <point x="883" y="527"/>
      <point x="893" y="525" type="qcurve"/>
      <point x="899" y="522"/>
      <point x="906" y="522" type="qcurve"/>
      <point x="913" y="520" type="line"/>
      <point x="918" y="518" type="line"/>
      <point x="930" y="515" type="line"/>
      <point x="934" y="514" type="line"/>
      <point x="936" y="513" type="line"/>
      <point x="939" y="513" type="line"/>
      <point x="947" y="511" type="line"/>
      <point x="959" y="508" type="line"/>
      <point x="965" y="508"/>
      <point x="973" y="505" type="qcurve"/>
      <point x="976" y="505" type="line"/>
      <point x="980" y="504" type="line"/>
      <point x="984" y="503" type="line"/>
      <point x="988" y="503" type="line"/>
      <point x="995" y="500"/>
      <point x="1005" y="501" type="qcurve"/>
      <point x="1008" y="500" type="line"/>
      <point x="1011" y="500" type="line"/>
      <point x="1014" y="499" type="line"/>
      <point x="1029" y="497" type="line"/>
      <point x="1032" y="497"/>
      <point x="1036" y="496" type="qcurve"/>
      <point x="1040" y="496" type="line"/>
      <point x="1044" y="495" type="line"/>
      <point x="1048" y="495"/>
      <point x="1054" y="494" type="qcurve"/>
      <point x="1059" y="494"/>
      <point x="1065" y="493" type="qcurve"/>
      <point x="1069" y="493" type="line"/>
      <point x="1073" y="493" type="line"/>
      <point x="1079" y="492"/>
      <point x="1086" y="492" type="qcurve"/>
      <point x="1093" y="491"/>
      <point x="1101" y="491" type="qcurve"/>
      <point x="1104" y="491" type="line"/>
      <point x="1107" y="491" type="line"/>
      <point x="1116" y="489"/>
      <point x="1129" y="490" type="qcurve"/>
      <point x="1132" y="490" type="line"/>
      <point x="1143" y="490" type="line"/>
      <point x="1146" y="490" type="line"/>
      <point x="1151" y="490" type="line"/>
      <point x="1155" y="490" type="line"/>
      <point x="1158" y="490" type="line"/>
      <point x="1162" y="490" type="line"/>
      <point x="1167" y="490" type="line"/>
      <point x="1170" y="490" type="line"/>
      <point x="1174" y="490" type="line"/>
      <point x="1180" y="490" type="line"/>
      <point x="1180" y="489" type="line"/>
      <point x="1180" y="490" type="line"/>
      <point x="1180" y="488" type="line"/>
      <point x="1180" y="489" type="line"/>
      <point x="1180" y="488" type="line"/>
      <point x="1174" y="481"/>
      <point x="1169" y="471" type="qcurve"/>
      <point x="1167" y="468" type="line"/>
      <point x="1165" y="465" type="line"/>
      <point x="1164" y="463" type="line"/>
      <point x="1161" y="460" type="line"/>
      <point x="1159" y="456" type="line"/>
      <point x="1157" y="454" type="line"/>
      <point x="1155" y="449"/>
      <point x="1151" y="443" type="qcurve"/>
      <point x="1148" y="438" type="line"/>
      <point x="1146" y="435" type="line"/>
      <point x="1144" y="431" type="line"/>
      <point x="1140" y="427"/>
      <point x="1138" y="422" type="qcurve"/>
      <point x="1136" y="421" type="line"/>
      <point x="1128" y="405" type="line"/>
      <point x="1125" y="403" type="line"/>
      <point x="1123" y="398" type="line"/>
      <point x="1117" y="392"/>
      <point x="1113" y="383" type="qcurve"/>
      <point x="1110" y="378" type="line"/>
      <point x="1107" y="373" type="line"/>
      <point x="1104" y="367" type="line"/>
      <point x="1098" y="361"/>
      <point x="1094" y="352" type="qcurve"/>
      <point x="1093" y="351" type="line"/>
      <point x="1089" y="345" type="line"/>
      <point x="1083" y="345" type="line"/>
      <point x="1076" y="345" type="line"/>
      <point x="1063" y="345" type="line"/>
      <point x="1060" y="345" type="line"/>
      <point x="1047" y="345" type="line"/>
      <point x="1032" y="346" type="line"/>
      <point x="1022" y="346" type="line"/>
      <point x="1019" y="346" type="line"/>
      <point x="1016" y="346" type="line"/>
      <point x="1013" y="346" type="line"/>
      <point x="1009" y="346" type="line"/>
      <point x="1002" y="346" type="line"/>
      <point x="998" y="346"/>
      <point x="994" y="345" type="qcurve"/>
      <point x="977" y="345" type="line"/>
      <point x="972" y="345" type="line"/>
      <point x="965" y="346"/>
      <point x="955" y="345" type="qcurve"/>
      <point x="946" y="346"/>
      <point x="934" y="344" type="qcurve"/>
      <point x="930" y="344" type="line"/>
      <point x="927" y="344" type="line"/>
      <point x="922" y="344" type="line"/>
      <point x="918" y="344" type="line"/>
      <point x="897" y="342" type="line"/>
      <point x="894" y="342" type="line"/>
      <point x="889" y="341" type="line"/>
      <point x="883" y="341" type="line"/>
      <point x="877" y="340" type="line"/>
      <point x="875" y="340" type="line"/>
      <point x="872" y="340" type="line"/>
      <point x="871" y="340"/>
      <point x="870" y="339" type="qcurve"/>
      <point x="862" y="339" type="line"/>
      <point x="860" y="339"/>
      <point x="859" y="338" type="qcurve"/>
      <point x="855" y="338" type="line"/>
      <point x="852" y="338" type="line"/>
      <point x="849" y="337" type="line"/>
      <point x="844" y="337" type="line"/>
      <point x="841" y="336" type="line"/>
      <point x="837" y="336" type="line"/>
      <point x="836" y="336"/>
      <point x="834" y="335" type="qcurve"/>
      <point x="828" y="335"/>
      <point x="821" y="334" type="qcurve"/>
      <point x="808" y="332" type="line"/>
      <point x="791" y="330" type="line"/>
      <point x="784" y="328" type="line"/>
      <point x="781" y="328" type="line"/>
      <point x="780" y="328"/>
      <point x="779" y="327" type="qcurve"/>
      <point x="776" y="327" type="line"/>
      <point x="775" y="327"/>
      <point x="773" y="326" type="qcurve"/>
      <point x="765" y="325" type="line"/>
      <point x="761" y="325" type="line"/>
      <point x="757" y="325" type="line"/>
      <point x="753" y="324" type="line"/>
      <point x="735" y="320" type="line"/>
      <point x="731" y="320" type="line"/>
      <point x="716" y="316" type="line"/>
      <point x="713" y="316" type="line"/>
      <point x="710" y="315" type="line"/>
      <point x="707" y="314" type="line"/>
      <point x="703" y="313" type="line"/>
      <point x="695" y="313"/>
      <point x="686" y="309" type="qcurve"/>
      <point x="670" y="306" type="line"/>
      <point x="665" y="305"/>
      <point x="659" y="303" type="qcurve"/>
      <point x="657" y="303"/>
      <point x="656" y="302" type="qcurve"/>
      <point x="653" y="302" type="line"/>
      <point x="651" y="301" type="line"/>
      <point x="643" y="299" type="line"/>
      <point x="641" y="299"/>
      <point x="640" y="298" type="qcurve"/>
      <point x="637" y="297" type="line"/>
      <point x="636" y="297"/>
      <point x="634" y="296" type="qcurve"/>
      <point x="629" y="295" type="line"/>
      <point x="627" y="295"/>
      <point x="624" y="293" type="qcurve"/>
      <point x="619" y="292" type="line"/>
      <point x="615" y="291" type="line"/>
      <point x="610" y="290"/>
      <point x="604" y="287" type="qcurve"/>
      <point x="601" y="287" type="line"/>
      <point x="595" y="286" type="line"/>
      <point x="592" y="284" type="line"/>
      <point x="586" y="283" type="line"/>
      <point x="579" y="281"/>
      <point x="571" y="277" type="qcurve"/>
      <point x="567" y="277"/>
      <point x="563" y="274" type="qcurve"/>
      <point x="561" y="274"/>
      <point x="561" y="273" type="qcurve"/>
      <point x="553" y="272"/>
      <point x="542" y="267" type="qcurve"/>
      <point x="536" y="265" type="line"/>
      <point x="532" y="265"/>
      <point x="528" y="262" type="qcurve"/>
      <point x="523" y="261" type="line"/>
      <point x="560" y="113"/>
      <point x="444" y="12" type="qcurve"/>
      <point x="427" y="3" type="line"/>
      <point x="425" y="1" type="line"/>
      <point x="423" y="0" type="line"/>
      <point x="421" y="-2" type="line"/>
      <point x="418" y="-3" type="line"/>
      <point x="412" y="-5" type="line"/>
      <point x="410" y="-6" type="line"/>
      <point x="407" y="-8" type="line"/>
      <point x="404" y="-8" type="line"/>
      <point x="402" y="-10" type="line"/>
      <point x="400" y="-10"/>
      <point x="399" y="-10" type="qcurve"/>
      <point x="390" y="-11"/>
      <point x="375" y="-10" type="qcurve"/>
      <point x="371" y="-10" type="line"/>
      <point x="365" y="-8" type="line"/>
      <point x="354" y="-5" type="line"/>
      <point x="351" y="-4" type="line"/>
      <point x="348" y="-4" type="line"/>
      <point x="338" y="1" type="line"/>
      <point x="335" y="2" type="line"/>
      <point x="333" y="3" type="line"/>
      <point x="331" y="4" type="line"/>
      <point x="328" y="4" type="line"/>
      <point x="326" y="6" type="line"/>
      <point x="323" y="7" type="line"/>
      <point x="320" y="9" type="line"/>
      <point x="315" y="13"/>
      <point x="305" y="15" type="qcurve"/>
      <point x="299" y="21"/>
      <point x="288" y="26" type="qcurve"/>
      <point x="285" y="29"/>
      <point x="281" y="31" type="qcurve"/>
      <point x="279" y="32" type="line"/>
      <point x="276" y="35" type="line"/>
      <point x="266" y="43" type="line"/>
      <point x="259" y="49" type="line"/>
      <point x="255" y="51" type="line"/>
      <point x="251" y="55"/>
      <point x="246" y="58" type="qcurve"/>
      <point x="243" y="63"/>
      <point x="238" y="66" type="qcurve"/>
      <point x="235" y="69" type="line"/>
      <point x="229" y="78"/>
      <point x="217" y="87" type="qcurve"/>
      <point x="217" y="88"/>
      <point x="215" y="89" type="qcurve"/>
      <point x="215" y="90"/>
      <point x="213" y="90" type="qcurve"/>
      <point x="211" y="94"/>
      <point x="207" y="97" type="qcurve"/>
      <point x="206" y="100" type="line"/>
      <point x="203" y="103" type="line"/>
      <point x="200" y="106" type="line"/>
      <point x="197" y="108" type="line"/>
      <point x="194" y="113"/>
      <point x="189" y="117" type="qcurve"/>
      <point x="188" y="119" type="line"/>
      <point x="178" y="114"/>
      <point x="171" y="105" type="qcurve"/>
      <point x="165" y="102"/>
      <point x="160" y="94" type="qcurve"/>
      <point x="153" y="90"/>
      <point x="145" y="81" type="qcurve"/>
      <point x="144" y="79" type="line"/>
      <point x="128" y="67" type="line"/>
      <point x="124" y="61" type="line"/>
      <point x="119" y="58"/>
      <point x="114" y="52" type="qcurve"/>
      <point x="108" y="49"/>
      <point x="102" y="43" type="qcurve"/>
      <point x="101" y="43"/>
      <point x="100" y="41" type="qcurve"/>
      <point x="95" y="37" type="line"/>
      <point x="86" y="33"/>
      <point x="75" y="24" type="qcurve"/>
      <point x="69" y="21" type="line"/>
      <point x="65" y="18" type="line"/>
      <point x="37" y="7" type="line"/>
      <point x="30" y="5" type="line"/>
      <point x="22" y="3" type="line"/>
      <point x="6" y="0" type="line"/>
      <point x="3" y="0" type="line"/>
      <point x="0" y="0" type="line"/>
      <point x="0" y="158" type="line"/>
      <point x="7" y="158"/>
      <point x="17" y="159" type="qcurve"/>
      <point x="24" y="160" type="line"/>
      <point x="27" y="160" type="line"/>
      <point x="34" y="162" type="line"/>
      <point x="45" y="163" type="line"/>
      <point x="47" y="164" type="line"/>
      <point x="49" y="165" type="line"/>
      <point x="57" y="167" type="line"/>
      <point x="61" y="167" type="line"/>
      <point x="67" y="168"/>
      <point x="73" y="171" type="qcurve"/>
      <point x="80" y="171"/>
      <point x="88" y="176" type="qcurve"/>
      <point x="94" y="177"/>
      <point x="100" y="181" type="qcurve"/>
      <point x="109" y="184" type="line"/>
      <point x="111" y="186" type="line"/>
      <point x="112" y="186"/>
      <point x="113" y="187" type="qcurve"/>
      <point x="114" y="187"/>
      <point x="116" y="187"/>
      <point x="117" y="188" type="qcurve"/>
      <point x="121" y="189"/>
      <point x="124" y="191" type="qcurve"/>
      <point x="129" y="193" type="line"/>
      <point x="131" y="194" type="line"/>
      <point x="137" y="198"/>
      <point x="146" y="202" type="qcurve"/>
      <point x="255" y="363"/>
      <point x="460" y="354" type="qcurve"/>
      <point x="465" y="358"/>
      <point x="473" y="362" type="qcurve"/>
      <point x="475" y="364" type="line"/>
      <point x="480" y="365"/>
      <point x="485" y="369" type="qcurve"/>
      <point x="491" y="371" type="line"/>
      <point x="493" y="372" type="line"/>
      <point x="496" y="374" type="line"/>
      <point x="499" y="376" type="line"/>
      <point x="508" y="378"/>
      <point x="518" y="384" type="qcurve"/>
      <point x="522" y="384"/>
      <point x="525" y="387" type="qcurve"/>
      <point x="529" y="388" type="line"/>
      <point x="532" y="390" type="line"/>
      <point x="536" y="391" type="line"/>
      <point x="539" y="393" type="line"/>
      <point x="543" y="394" type="line"/>
      <point x="546" y="395" type="line"/>
      <point x="551" y="397" type="line"/>
      <point x="555" y="399" type="line"/>
      <point x="576" y="406" type="line"/>
      <point x="580" y="408" type="line"/>
      <point x="584" y="409" type="line"/>
      <point x="589" y="410"/>
      <point x="596" y="414" type="qcurve"/>
      <point x="598" y="414"/>
      <point x="599" y="415" type="qcurve"/>
      <point x="601" y="415" type="line"/>
      <point x="603" y="416" type="line"/>
      <point x="606" y="418" type="line"/>
      <point x="609" y="418" type="line"/>
      <point x="614" y="420" type="line"/>
      <point x="630" y="425" type="line"/>
      <point x="636" y="426" type="line"/>
      <point x="641" y="428" type="line"/>
      <point x="657" y="434" type="line"/>
      <point x="660" y="435" type="line"/>
      <point x="663" y="435"/>
      <point x="665" y="437" type="qcurve"/>
      <point x="671" y="438"/>
      <point x="677" y="441" type="qcurve"/>
      <point x="679" y="441" type="line"/>
      <point x="675" y="444"/>
      <point x="668" y="446" type="qcurve"/>
      <point x="666" y="447" type="line"/>
      <point x="664" y="448" type="line"/>
      <point x="661" y="449"/>
      <point x="657" y="452" type="qcurve"/>
      <point x="651" y="454" type="line"/>
      <point x="649" y="455" type="line"/>
      <point x="645" y="457" type="line"/>
      <point x="639" y="460" type="line"/>
      <point x="636" y="461" type="line"/>
      <point x="628" y="467"/>
      <point x="616" y="470" type="qcurve"/>
      <point x="614" y="471" type="line"/>
      <point x="612" y="473" type="line"/>
      <point x="608" y="475" type="line"/>
      <point x="604" y="476"/>
      <point x="600" y="479" type="qcurve"/>
      <point x="598" y="480" type="line"/>
      <point x="594" y="482" type="line"/>
      <point x="579" y="488" type="line"/>
      <point x="577" y="490" type="line"/>
      <point x="573" y="491"/>
      <point x="568" y="494" type="qcurve"/>
      <point x="564" y="495" type="line"/>
      <point x="555" y="501" type="line"/>
      <point x="539" y="507" type="line"/>
      <point x="535" y="510"/>
      <point x="527" y="513" type="qcurve"/>
      <point x="525" y="514" type="line"/>
      <point x="522" y="516" type="line"/>
      <point x="516" y="519" type="line"/>
      <point x="509" y="521"/>
      <point x="501" y="525" type="qcurve"/>
      <point x="497" y="526" type="line"/>
      <point x="491" y="529" type="line"/>
      <point x="470" y="537" type="line"/>
      <point x="469" y="538"/>
      <point x="466" y="538" type="qcurve"/>
      <point x="462" y="541" type="line"/>
      <point x="446" y="545" type="line"/>
      <point x="443" y="546" type="line"/>
      <point x="441" y="547" type="line"/>
      <point x="437" y="548" type="line"/>
      <point x="434" y="548" type="line"/>
      <point x="431" y="549" type="line"/>
      <point x="427" y="550" type="line"/>
      <point x="422" y="552"/>
      <point x="415" y="553" type="qcurve"/>
      <point x="412" y="554" type="line"/>
      <point x="408" y="555" type="line"/>
      <point x="387" y="557" type="line"/>
      <point x="380" y="558"/>
      <point x="372" y="558" type="qcurve"/>
      <point x="364" y="558" type="line"/>
      <point x="348" y="557" type="line"/>
      <point x="305" y="552"/>
      <point x="268" y="520" type="qcurve"/>
      <point x="263" y="517"/>
      <point x="257" y="517" type="qcurve"/>
      <point x="255" y="521"/>
      <point x="253" y="527" type="qcurve"/>
      <point x="255" y="539" type="line"/>
      <point x="257" y="546" type="line"/>
      <point x="258" y="553" type="line"/>
      <point x="261" y="557"/>
      <point x="262" y="563" type="qcurve"/>
      <point x="266" y="570" type="line"/>
      <point x="266" y="573" type="line"/>
      <point x="267" y="576" type="line"/>
      <point x="271" y="581" type="line"/>
      <point x="272" y="583" type="line"/>
      <point x="273" y="587" type="line"/>
      <point x="276" y="590" type="line"/>
      <point x="280" y="599" type="line"/>
      <point x="282" y="601" type="line"/>
      <point x="284" y="604" type="line"/>
      <point x="286" y="609" type="line"/>
      <point x="288" y="612" type="line"/>
      <point x="290" y="616" type="line"/>
      <point x="292" y="619" type="line"/>
      <point x="294" y="622" type="line"/>
      <point x="301" y="628"/>
      <point x="305" y="638" type="qcurve"/>
      <point x="308" y="640" type="line"/>
      <point x="309" y="642" type="line"/>
      <point x="310" y="642"/>
      <point x="311" y="644" type="qcurve"/>
      <point x="316" y="648"/>
      <point x="322" y="656" type="qcurve"/>
      <point x="323" y="656"/>
      <point x="324" y="658" type="qcurve"/>
      <point x="327" y="660"/>
      <point x="329" y="662" type="qcurve"/>
      <point x="337" y="668" type="line"/>
      <point x="339" y="671" type="line"/>
      <point x="347" y="674"/>
      <point x="354" y="681" type="qcurve"/>
      <point x="359" y="682"/>
      <point x="364" y="687" type="qcurve"/>
      <point x="373" y="690"/>
      <point x="386" y="696" type="qcurve"/>
      <point x="393" y="696"/>
      <point x="403" y="699" type="qcurve"/>
    </contour>
    <contour>
      <point x="408" y="203" type="qcurve"/>
      <point x="389" y="214"/>
      <point x="363" y="212" type="qcurve"/>
      <point x="356" y="210" type="line"/>
      <point x="350" y="210"/>
      <point x="345" y="207" type="qcurve"/>
      <point x="342" y="207" type="line"/>
      <point x="334" y="205" type="line"/>
      <point x="330" y="205"/>
      <point x="326" y="202" type="qcurve"/>
      <point x="324" y="202" type="line"/>
      <point x="322" y="200" type="line"/>
      <point x="319" y="200" type="line"/>
      <point x="317" y="198" type="line"/>
      <point x="353" y="160"/>
      <point x="409" y="147" type="qcurve"/>
      <point x="415" y="145"/>
      <point x="423" y="144" type="qcurve"/>
      <point x="425" y="143" type="line"/>
      <point x="429" y="175"/>
    </contour>
  </outline>
</glyph>
<glyph name="seenmeem-arab.init" format="2">
  <advance width="1296"/>
  <unicode hex="FCB0"/>
  <outline>
    <contour>
      <point x="1201" y="809" type="line"/>
      <point x="1203" y="812"/>
      <point x="1204" y="817" type="qcurve"/>
      <point x="1282" y="661"/>
      <point x="1222" y="474" type="qcurve"/>
      <point x="1218" y="468"/>
      <point x="1215" y="461" type="qcurve"/>
      <point x="1213" y="460" type="line"/>
      <point x="1212" y="457" type="line"/>
      <point x="1211" y="455" type="line"/>
      <point x="1210" y="451" type="line"/>
      <point x="1205" y="446"/>
      <point x="1201" y="439" type="qcurve"/>
      <point x="1198" y="437"/>
      <point x="1196" y="433" type="qcurve"/>
      <point x="1193" y="431"/>
      <point x="1191" y="426" type="qcurve"/>
      <point x="1185" y="422" type="line"/>
      <point x="1182" y="418" type="line"/>
      <point x="1179" y="415" type="line"/>
      <point x="1176" y="413" type="line"/>
      <point x="1174" y="410" type="line"/>
      <point x="1170" y="408"/>
      <point x="1167" y="404" type="qcurve"/>
      <point x="1164" y="404" type="line"/>
      <point x="1162" y="401" type="line"/>
      <point x="1102" y="361"/>
      <point x="1028" y="385" type="qcurve"/>
      <point x="959" y="411"/>
      <point x="925" y="484" type="qcurve"/>
      <point x="920" y="475"/>
      <point x="915" y="461" type="qcurve"/>
      <point x="913" y="457" type="line"/>
      <point x="911" y="454" type="line"/>
      <point x="909" y="450" type="line"/>
      <point x="908" y="446" type="line"/>
      <point x="903" y="440"/>
      <point x="899" y="431" type="qcurve"/>
      <point x="897" y="430" type="line"/>
      <point x="896" y="427" type="line"/>
      <point x="895" y="423" type="line"/>
      <point x="860" y="371"/>
      <point x="794" y="348" type="qcurve"/>
      <point x="784" y="347"/>
      <point x="769" y="351" type="qcurve"/>
      <point x="764" y="352"/>
      <point x="757" y="354" type="qcurve"/>
      <point x="755" y="355" type="line"/>
      <point x="752" y="355" type="line"/>
      <point x="745" y="358" type="line"/>
      <point x="743" y="359" type="line"/>
      <point x="741" y="360" type="line"/>
      <point x="738" y="360" type="line"/>
      <point x="732" y="365"/>
      <point x="721" y="368" type="qcurve"/>
      <point x="721" y="369"/>
      <point x="719" y="370" type="qcurve"/>
      <point x="714" y="374"/>
      <point x="705" y="379" type="qcurve"/>
      <point x="703" y="382" type="line"/>
      <point x="700" y="383" type="line"/>
      <point x="698" y="384" type="line"/>
      <point x="693" y="390"/>
      <point x="684" y="396" type="qcurve"/>
      <point x="679" y="403" type="line"/>
      <point x="676" y="405" type="line"/>
      <point x="674" y="406" type="line"/>
      <point x="671" y="409" type="line"/>
      <point x="668" y="412"/>
      <point x="665" y="417" type="qcurve"/>
      <point x="660" y="422" type="line"/>
      <point x="657" y="427"/>
      <point x="651" y="432" type="qcurve"/>
      <point x="647" y="440"/>
      <point x="638" y="449" type="qcurve"/>
      <point x="636" y="452" type="line"/>
      <point x="635" y="454" type="line"/>
      <point x="633" y="457" type="line"/>
      <point x="631" y="459" type="line"/>
      <point x="629" y="462" type="line"/>
      <point x="622" y="471" type="line"/>
      <point x="620" y="473" type="line"/>
      <point x="619" y="476" type="line"/>
      <point x="617" y="479" type="line"/>
      <point x="614" y="483"/>
      <point x="610" y="486" type="qcurve"/>
      <point x="605" y="495" type="line"/>
      <point x="592" y="510" type="line"/>
      <point x="588" y="516" type="line"/>
      <point x="585" y="521"/>
      <point x="580" y="525" type="qcurve"/>
      <point x="577" y="528" type="line"/>
      <point x="569" y="537" type="line"/>
      <point x="548" y="556"/>
      <point x="516" y="556" type="qcurve"/>
      <point x="506" y="554"/>
      <point x="496" y="548" type="qcurve"/>
      <point x="495" y="548"/>
      <point x="494" y="547" type="qcurve"/>
      <point x="493" y="547"/>
      <point x="492" y="546" type="qcurve"/>
      <point x="491" y="546"/>
      <point x="490" y="545" type="qcurve"/>
      <point x="489" y="545"/>
      <point x="488" y="544" type="qcurve"/>
      <point x="487" y="544"/>
      <point x="486" y="543" type="qcurve"/>
      <point x="483" y="542" type="line"/>
      <point x="481" y="542" type="line"/>
      <point x="480" y="540" type="line"/>
      <point x="479" y="540"/>
      <point x="478" y="539" type="qcurve"/>
      <point x="457" y="528" type="line"/>
      <point x="455" y="526" type="line"/>
      <point x="452" y="525" type="line"/>
      <point x="450" y="523" type="line"/>
      <point x="449" y="523"/>
      <point x="448" y="522" type="qcurve"/>
      <point x="384" y="487"/>
      <point x="345" y="415" type="qcurve"/>
      <point x="341" y="401" type="line"/>
      <point x="341" y="398" type="line"/>
      <point x="340" y="393"/>
      <point x="340" y="387" type="qcurve"/>
      <point x="339" y="379"/>
      <point x="341" y="369" type="qcurve"/>
      <point x="341" y="366" type="line"/>
      <point x="341" y="360" type="line"/>
      <point x="341" y="357" type="line"/>
      <point x="341" y="353" type="line"/>
      <point x="347" y="353"/>
      <point x="354" y="355" type="qcurve"/>
      <point x="357" y="355" type="line"/>
      <point x="361" y="355" type="line"/>
      <point x="368" y="355" type="line"/>
      <point x="372" y="355" type="line"/>
      <point x="375" y="355" type="line"/>
      <point x="379" y="355" type="line"/>
      <point x="383" y="355" type="line"/>
      <point x="385" y="354" type="line"/>
      <point x="388" y="354" type="line"/>
      <point x="391" y="354" type="line"/>
      <point x="493" y="330"/>
      <point x="559" y="221" type="qcurve"/>
      <point x="564" y="216"/>
      <point x="567" y="207" type="qcurve"/>
      <point x="569" y="206" type="line"/>
      <point x="570" y="204" type="line"/>
      <point x="572" y="201" type="line"/>
      <point x="573" y="197"/>
      <point x="577" y="193" type="qcurve"/>
      <point x="579" y="190" type="line"/>
      <point x="580" y="186"/>
      <point x="582" y="182" type="qcurve"/>
      <point x="585" y="178" type="line"/>
      <point x="587" y="175" type="line"/>
      <point x="588" y="172" type="line"/>
      <point x="590" y="169" type="line"/>
      <point x="581" y="78"/>
      <point x="511" y="4" type="qcurve"/>
      <point x="506" y="6"/>
      <point x="500" y="9" type="qcurve"/>
      <point x="498" y="10" type="line"/>
      <point x="478" y="20" type="line"/>
      <point x="475" y="22" type="line"/>
      <point x="472" y="24" type="line"/>
      <point x="460" y="30" type="line"/>
      <point x="457" y="32"/>
      <point x="453" y="34" type="qcurve"/>
      <point x="450" y="35" type="line"/>
      <point x="443" y="39" type="line"/>
      <point x="430" y="47" type="line"/>
      <point x="426" y="49" type="line"/>
      <point x="423" y="51" type="line"/>
      <point x="417" y="54" type="line"/>
      <point x="413" y="58"/>
      <point x="405" y="61" type="qcurve"/>
      <point x="400" y="65"/>
      <point x="394" y="69" type="qcurve"/>
      <point x="388" y="72" type="line"/>
      <point x="385" y="74" type="line"/>
      <point x="383" y="76" type="line"/>
      <point x="369" y="86" type="line"/>
      <point x="367" y="88" type="line"/>
      <point x="365" y="89" type="line"/>
      <point x="363" y="90" type="line"/>
      <point x="358" y="93" type="line"/>
      <point x="347" y="102" type="line"/>
      <point x="344" y="104" type="line"/>
      <point x="340" y="109"/>
      <point x="333" y="112" type="qcurve"/>
      <point x="328" y="118" type="line"/>
      <point x="323" y="122" type="line"/>
      <point x="322" y="124" type="line"/>
      <point x="318" y="127" type="line"/>
      <point x="315" y="128" type="line"/>
      <point x="315" y="129"/>
      <point x="313" y="130" type="qcurve"/>
      <point x="311" y="134"/>
      <point x="306" y="137" type="qcurve"/>
      <point x="305" y="140" type="line"/>
      <point x="302" y="145"/>
      <point x="295" y="149" type="qcurve"/>
      <point x="283" y="167" type="line"/>
      <point x="281" y="168" type="line"/>
      <point x="280" y="172" type="line"/>
      <point x="278" y="175" type="line"/>
      <point x="272" y="185" type="line"/>
      <point x="271" y="187" type="line"/>
      <point x="264" y="184"/>
      <point x="259" y="178" type="qcurve"/>
      <point x="252" y="174"/>
      <point x="246" y="167" type="qcurve"/>
      <point x="243" y="166" type="line"/>
      <point x="238" y="160" type="line"/>
      <point x="232" y="157"/>
      <point x="227" y="150" type="qcurve"/>
      <point x="226" y="150"/>
      <point x="226" y="148" type="qcurve"/>
      <point x="222" y="146"/>
      <point x="218" y="143" type="qcurve"/>
      <point x="216" y="140" type="line"/>
      <point x="213" y="138" type="line"/>
      <point x="211" y="135" type="line"/>
      <point x="206" y="132"/>
      <point x="202" y="128" type="qcurve"/>
      <point x="200" y="125" type="line"/>
      <point x="194" y="121"/>
      <point x="189" y="114" type="qcurve"/>
      <point x="184" y="109" type="line"/>
      <point x="182" y="107" type="line"/>
      <point x="176" y="104"/>
      <point x="171" y="97" type="qcurve"/>
      <point x="169" y="96" type="line"/>
      <point x="167" y="94" type="line"/>
      <point x="165" y="91" type="line"/>
      <point x="164" y="89" type="line"/>
      <point x="161" y="88" type="line"/>
      <point x="160" y="86" type="line"/>
      <point x="159" y="86"/>
      <point x="158" y="84" type="qcurve"/>
      <point x="157" y="84"/>
      <point x="156" y="82" type="qcurve"/>
      <point x="150" y="79"/>
      <point x="145" y="71" type="qcurve"/>
      <point x="134" y="64" type="line"/>
      <point x="132" y="61" type="line"/>
      <point x="125" y="57"/>
      <point x="118" y="49" type="qcurve"/>
      <point x="114" y="47"/>
      <point x="110" y="44" type="qcurve"/>
      <point x="108" y="43" type="line"/>
      <point x="107" y="40" type="line"/>
      <point x="105" y="40"/>
      <point x="104" y="38" type="qcurve"/>
      <point x="100" y="35" type="line"/>
      <point x="96" y="33" type="line"/>
      <point x="55" y="3"/>
      <point x="0" y="0" type="qcurve"/>
      <point x="0" y="166" type="line"/>
      <point x="79" y="159"/>
      <point x="151" y="207" type="qcurve"/>
      <point x="170" y="223" type="line"/>
      <point x="171" y="225" type="line"/>
      <point x="172" y="225"/>
      <point x="173" y="226" type="qcurve"/>
      <point x="177" y="228"/>
      <point x="182" y="233" type="qcurve"/>
      <point x="184" y="236" type="line"/>
      <point x="192" y="244" type="line"/>
      <point x="195" y="246" type="line"/>
      <point x="198" y="249"/>
      <point x="202" y="254" type="qcurve"/>
      <point x="204" y="255" type="line"/>
      <point x="205" y="257" type="line"/>
      <point x="207" y="258" type="line"/>
      <point x="208" y="260" type="line"/>
      <point x="209" y="262" type="line"/>
      <point x="210" y="262"/>
      <point x="211" y="264" type="qcurve"/>
      <point x="214" y="266" type="line"/>
      <point x="216" y="268" type="line"/>
      <point x="220" y="270"/>
      <point x="223" y="275" type="qcurve"/>
      <point x="229" y="278"/>
      <point x="234" y="286" type="qcurve"/>
      <point x="236" y="286"/>
      <point x="237" y="287" type="qcurve"/>
      <point x="243" y="291"/>
      <point x="247" y="297" type="qcurve"/>
      <point x="253" y="301" type="line"/>
      <point x="255" y="302" type="line"/>
      <point x="260" y="305"/>
      <point x="266" y="311" type="qcurve"/>
      <point x="270" y="313" type="line"/>
      <point x="298" y="502"/>
      <point x="460" y="639" type="qcurve"/>
      <point x="463" y="642"/>
      <point x="466" y="646" type="qcurve"/>
      <point x="468" y="647" type="line"/>
      <point x="469" y="649" type="line"/>
      <point x="475" y="653" type="line"/>
      <point x="476" y="655" type="line"/>
      <point x="480" y="657"/>
      <point x="484" y="661" type="qcurve"/>
      <point x="485" y="661"/>
      <point x="486" y="663" type="qcurve"/>
      <point x="489" y="664" type="line"/>
      <point x="492" y="667" type="line"/>
      <point x="495" y="669" type="line"/>
      <point x="498" y="672" type="line"/>
      <point x="501" y="673" type="line"/>
      <point x="503" y="675" type="line"/>
      <point x="505" y="678" type="line"/>
      <point x="512" y="680"/>
      <point x="518" y="685" type="qcurve"/>
      <point x="523" y="686"/>
      <point x="528" y="691" type="qcurve"/>
      <point x="534" y="692"/>
      <point x="540" y="696" type="qcurve"/>
      <point x="543" y="697" type="line"/>
      <point x="547" y="699" type="line"/>
      <point x="548" y="699"/>
      <point x="550" y="699" type="qcurve"/>
      <point x="591" y="709"/>
      <point x="630" y="684" type="qcurve"/>
      <point x="637" y="677"/>
      <point x="647" y="669" type="qcurve"/>
      <point x="651" y="663" type="line"/>
      <point x="653" y="661" type="line"/>
      <point x="656" y="660" type="line"/>
      <point x="657" y="657" type="line"/>
      <point x="662" y="650" type="line"/>
      <point x="665" y="647" type="line"/>
      <point x="669" y="640" type="line"/>
      <point x="671" y="632"/>
      <point x="676" y="627" type="qcurve"/>
      <point x="679" y="618"/>
      <point x="686" y="609" type="qcurve"/>
      <point x="687" y="605" type="line"/>
      <point x="690" y="602" type="line"/>
      <point x="692" y="600" type="line"/>
      <point x="693" y="597" type="line"/>
      <point x="695" y="594" type="line"/>
      <point x="698" y="592" type="line"/>
      <point x="729" y="542"/>
      <point x="791" y="514" type="qcurve"/>
      <point x="806" y="510" type="line"/>
      <point x="809" y="509" type="line"/>
      <point x="825" y="508" type="line"/>
      <point x="836" y="507"/>
      <point x="854" y="510" type="qcurve"/>
      <point x="864" y="512"/>
      <point x="876" y="520" type="qcurve"/>
      <point x="880" y="521" type="line"/>
      <point x="882" y="522" type="line"/>
      <point x="885" y="523" type="line"/>
      <point x="887" y="525" type="line"/>
      <point x="893" y="529" type="line"/>
      <point x="896" y="530" type="line"/>
      <point x="951" y="577"/>
      <point x="976" y="655" type="qcurve"/>
      <point x="979" y="659"/>
      <point x="980" y="664" type="qcurve"/>
      <point x="985" y="676" type="line"/>
      <point x="985" y="533"/>
      <point x="1175" y="523" type="qcurve"/>
      <point x="1174" y="530"/>
      <point x="1172" y="538" type="qcurve"/>
      <point x="1170" y="545"/>
      <point x="1166" y="554" type="qcurve"/>
      <point x="1166" y="555"/>
      <point x="1165" y="557" type="qcurve"/>
      <point x="1165" y="559"/>
      <point x="1164" y="560" type="qcurve"/>
      <point x="1164" y="561"/>
      <point x="1163" y="562" type="qcurve"/>
      <point x="1163" y="565" type="line"/>
      <point x="1161" y="568" type="line"/>
      <point x="1160" y="573" type="line"/>
      <point x="1158" y="577" type="line"/>
      <point x="1157" y="581" type="line"/>
      <point x="1157" y="583"/>
      <point x="1155" y="585" type="qcurve"/>
      <point x="1154" y="590" type="line"/>
      <point x="1154" y="592"/>
      <point x="1152" y="595" type="qcurve"/>
      <point x="1151" y="602"/>
      <point x="1148" y="609" type="qcurve"/>
      <point x="1147" y="615"/>
      <point x="1144" y="620" type="qcurve"/>
      <point x="1144" y="623" type="line"/>
      <point x="1142" y="626"/>
      <point x="1141" y="631" type="qcurve"/>
      <point x="1139" y="636" type="line"/>
      <point x="1138" y="641" type="line"/>
      <point x="1135" y="647" type="line"/>
      <point x="1135" y="650"/>
      <point x="1133" y="653" type="qcurve"/>
      <point x="1133" y="656"/>
      <point x="1132" y="659" type="qcurve"/>
      <point x="1130" y="665" type="line"/>
      <point x="1129" y="672" type="line"/>
      <point x="1134" y="680"/>
      <point x="1139" y="692" type="qcurve"/>
      <point x="1141" y="694" type="line"/>
      <point x="1145" y="702" type="line"/>
      <point x="1147" y="705" type="line"/>
      <point x="1148" y="709" type="line"/>
      <point x="1155" y="717"/>
      <point x="1158" y="729" type="qcurve"/>
      <point x="1162" y="735"/>
      <point x="1167" y="743" type="qcurve"/>
      <point x="1168" y="745" type="line"/>
      <point x="1170" y="749" type="line"/>
      <point x="1171" y="753" type="line"/>
      <point x="1174" y="758" type="line"/>
      <point x="1181" y="773" type="line"/>
      <point x="1184" y="777" type="line"/>
      <point x="1188" y="782"/>
      <point x="1191" y="791" type="qcurve"/>
      <point x="1192" y="793" type="line"/>
      <point x="1195" y="798" type="line"/>
      <point x="1201" y="809" type="line"/>
    </contour>
  </outline>
</glyph>
<glyph name="lammeemhah-arab.init" format="2">
  <advance width="1004"/>
  <unicode hex="FD88"/>
  <outline>
    <contour>
      <point x="459" y="1413" type="line"/>
      <point x="459" y="1416"/>
      <point x="469" y="1431"/>
      <point x="482" y="1449"/>
      <point x="495" y="1467"/>
      <point x="497" y="1470" type="qcurve"/>
      <point x="499" y="1466"/>
      <point x="507" y="1446"/>
      <point x="516" y="1424"/>
      <point x="522" y="1405"/>
      <point x="522" y="1402" type="qcurve"/>
      <point x="533" y="1372"/>
      <point x="552" y="1311"/>
      <point x="561" y="1281" type="qcurve"/>
      <point x="555" y="1279"/>
      <point x="541" y="1272"/>
      <point x="525" y="1264"/>
      <point x="512" y="1254"/>
      <point x="508" y="1250" type="qcurve"/>
      <point x="515" y="1189"/>
      <point x="535" y="1063"/>
      <point x="553" y="936"/>
      <point x="567" y="812"/>
      <point x="569" y="751" type="qcurve"/>
      <point x="635" y="756"/>
      <point x="719" y="701"/>
      <point x="748" y="644" type="qcurve"/>
      <point x="717" y="565"/>
      <point x="651" y="513" type="qcurve"/>
      <point x="649" y="509" type="line"/>
      <point x="605" y="517"/>
      <point x="547" y="561"/>
      <point x="520" y="595" type="qcurve"/>
      <point x="519" y="602"/>
      <point x="509" y="607"/>
      <point x="508" y="614" type="qcurve"/>
      <point x="500" y="612"/>
      <point x="477" y="598"/>
      <point x="463" y="590" type="qcurve"/>
      <point x="448" y="580"/>
      <point x="432" y="570" type="qcurve"/>
      <point x="392" y="533"/>
      <point x="300" y="461"/>
      <point x="251" y="435" type="qcurve"/>
      <point x="274" y="429"/>
      <point x="356" y="410"/>
      <point x="453" y="385"/>
      <point x="559" y="358"/>
      <point x="653" y="331"/>
      <point x="726" y="307"/>
      <point x="744" y="300" type="qcurve"/>
      <point x="747" y="301"/>
      <point x="791" y="291"/>
      <point x="843" y="279"/>
      <point x="891" y="266"/>
      <point x="896" y="266" type="qcurve"/>
      <point x="897" y="266"/>
      <point x="917" y="263"/>
      <point x="941" y="257"/>
      <point x="961" y="251"/>
      <point x="961" y="248" type="qcurve"/>
      <point x="940" y="220"/>
      <point x="900" y="159"/>
      <point x="883" y="128" type="qcurve"/>
      <point x="840" y="134"/>
      <point x="733" y="131"/>
      <point x="620" y="118"/>
      <point x="514" y="100"/>
      <point x="430" y="83"/>
      <point x="377" y="71"/>
      <point x="375" y="71" type="qcurve"/>
      <point x="336" y="56"/>
      <point x="244" y="30"/>
      <point x="148" y="10"/>
      <point x="52" y="-1"/>
      <point x="11" y="-1" type="qcurve"/>
      <point x="-4" y="-1" type="line"/>
      <point x="-4" y="153" type="line"/>
      <point x="45" y="153"/>
      <point x="135" y="162"/>
      <point x="223" y="176"/>
      <point x="311" y="194"/>
      <point x="358" y="203" type="qcurve"/>
      <point x="363" y="204"/>
      <point x="382" y="208"/>
      <point x="402" y="213"/>
      <point x="420" y="217"/>
      <point x="423" y="216" type="qcurve"/>
      <point x="432" y="221"/>
      <point x="449" y="226"/>
      <point x="459" y="227" type="qcurve"/>
      <point x="436" y="233"/>
      <point x="385" y="246"/>
      <point x="364" y="256" type="qcurve"/>
      <point x="364" y="256"/>
      <point x="351" y="260" type="qcurve"/>
      <point x="338" y="264"/>
      <point x="299" y="274"/>
      <point x="252" y="288"/>
      <point x="210" y="301"/>
      <point x="178" y="311"/>
      <point x="173" y="313" type="qcurve"/>
      <point x="166" y="311"/>
      <point x="121" y="326"/>
      <point x="68" y="345"/>
      <point x="18" y="361"/>
      <point x="8" y="361" type="qcurve"/>
      <point x="-4" y="368" type="line"/>
      <point x="3" y="377"/>
      <point x="28" y="414"/>
      <point x="53" y="454"/>
      <point x="75" y="490"/>
      <point x="78" y="498" type="qcurve"/>
      <point x="102" y="496"/>
      <point x="164" y="502"/>
      <point x="185" y="513" type="qcurve"/>
      <point x="187" y="513"/>
      <point x="199" y="517"/>
      <point x="211" y="522"/>
      <point x="223" y="527"/>
      <point x="223" y="528" type="qcurve"/>
      <point x="247" y="538" type="line"/>
      <point x="251" y="542" type="line"/>
      <point x="258" y="545"/>
      <point x="273" y="551"/>
      <point x="278" y="557" type="qcurve"/>
      <point x="282" y="558"/>
      <point x="305" y="571"/>
      <point x="330" y="588"/>
      <point x="353" y="603"/>
      <point x="358" y="608" type="qcurve"/>
      <point x="360" y="608"/>
      <point x="388" y="629"/>
      <point x="423" y="656"/>
      <point x="453" y="680"/>
      <point x="457" y="684" type="qcurve"/>
      <point x="466" y="685"/>
      <point x="484" y="706"/>
      <point x="493" y="711" type="qcurve"/>
      <point x="471" y="875"/>
      <point x="438" y="1199"/>
      <point x="419" y="1364" type="qcurve"/>
      <point x="419" y="1371" type="line"/>
      <point x="459" y="1413" type="line"/>
    </contour>
  </outline>
</glyph>
<glyph name="lamhahmeem-arab.init" format="2">
  <advance width="1275"/>
  <unicode hex="FDB5"/>
  <outline>
    <contour>
      <point x="740" y="1597" type="qcurve"/>
      <point x="742" y="1594"/>
      <point x="752" y="1565"/>
      <point x="763" y="1524"/>
      <point x="775" y="1475"/>
      <point x="785" y="1434"/>
      <point x="792" y="1405"/>
      <point x="792" y="1402" type="qcurve"/>
      <point x="792" y="1401"/>
      <point x="786" y="1398"/>
      <point x="783" y="1395" type="qcurve"/>
      <point x="758" y="1373" type="line"/>
      <point x="753" y="1369"/>
      <point x="754" y="1368"/>
      <point x="754" y="1361" type="qcurve"/>
      <point x="754" y="1348"/>
      <point x="758" y="1323"/>
      <point x="757" y="1310" type="qcurve"/>
      <point x="758" y="1309" type="line"/>
      <point x="758" y="1294" type="line"/>
      <point x="758" y="1292" type="line"/>
      <point x="758" y="1280" type="line"/>
      <point x="759" y="1278" type="line"/>
      <point x="758" y="1259"/>
      <point x="762" y="1222"/>
      <point x="766" y="1184"/>
      <point x="769" y="1147"/>
      <point x="768" y="1128" type="qcurve"/>
      <point x="769" y="1126" type="line"/>
      <point x="769" y="1114" type="line"/>
      <point x="770" y="1113" type="line"/>
      <point x="769" y="1094"/>
      <point x="773" y="1056"/>
      <point x="777" y="1018"/>
      <point x="779" y="980"/>
      <point x="778" y="962" type="qcurve"/>
      <point x="779" y="962" type="line"/>
      <point x="779" y="948" type="line"/>
      <point x="780" y="946" type="line"/>
      <point x="780" y="916" type="line"/>
      <point x="780" y="865"/>
      <point x="759" y="789"/>
      <point x="719" y="727"/>
      <point x="659" y="676"/>
      <point x="620" y="650" type="qcurve"/>
      <point x="632" y="645"/>
      <point x="695" y="632"/>
      <point x="774" y="617"/>
      <point x="858" y="602"/>
      <point x="929" y="591"/>
      <point x="975" y="583"/>
      <point x="975" y="582" type="qcurve"/>
      <point x="987" y="581" type="line"/>
      <point x="989" y="581" type="line"/>
      <point x="1000" y="580" type="line"/>
      <point x="1002" y="579" type="line"/>
      <point x="1021" y="578"/>
      <point x="1059" y="570"/>
      <point x="1078" y="569" type="qcurve"/>
      <point x="1080" y="568" type="line"/>
      <point x="1111" y="567"/>
      <point x="1174" y="557"/>
      <point x="1206" y="555" type="qcurve"/>
      <point x="1214" y="554"/>
      <point x="1227" y="555"/>
      <point x="1234" y="553" type="qcurve"/>
      <point x="1239" y="552" type="line"/>
      <point x="1243" y="552" type="line"/>
      <point x="1243" y="547"/>
      <point x="1232" y="524"/>
      <point x="1215" y="495"/>
      <point x="1196" y="463"/>
      <point x="1180" y="432"/>
      <point x="1169" y="409"/>
      <point x="1168" y="404" type="qcurve"/>
      <point x="1141" y="406"/>
      <point x="1088" y="398"/>
      <point x="1061" y="400" type="qcurve"/>
      <point x="1059" y="399" type="line"/>
      <point x="1049" y="400"/>
      <point x="1030" y="396"/>
      <point x="1019" y="397" type="qcurve"/>
      <point x="1017" y="396" type="line"/>
      <point x="1006" y="396" type="line"/>
      <point x="1003" y="395" type="line"/>
      <point x="993" y="394" type="line"/>
      <point x="965" y="392" type="line"/>
      <point x="937" y="390"/>
      <point x="888" y="382"/>
      <point x="860" y="380" type="qcurve"/>
      <point x="859" y="380" type="line"/>
      <point x="858" y="380"/>
      <point x="857" y="379"/>
      <point x="858" y="379" type="qcurve"/>
      <point x="813" y="377"/>
      <point x="688" y="354"/>
      <point x="554" y="322"/>
      <point x="429" y="285"/>
      <point x="386" y="269" type="qcurve"/>
      <point x="403" y="244"/>
      <point x="433" y="204"/>
      <point x="458" y="161"/>
      <point x="478" y="113"/>
      <point x="483" y="83" type="qcurve"/>
      <point x="478" y="75"/>
      <point x="460" y="27"/>
      <point x="435" y="-26"/>
      <point x="408" y="-67"/>
      <point x="396" y="-67" type="qcurve"/>
      <point x="369" y="-67"/>
      <point x="305" y="-32"/>
      <point x="246" y="19"/>
      <point x="201" y="78"/>
      <point x="193" y="102" type="qcurve"/>
      <point x="183" y="99"/>
      <point x="151" y="69"/>
      <point x="104" y="33"/>
      <point x="39" y="6"/>
      <point x="-3" y="6" type="qcurve"/>
      <point x="-4" y="14" type="line"/>
      <point x="-4" y="178" type="line"/>
      <point x="15" y="178"/>
      <point x="50" y="178"/>
      <point x="69" y="180" type="qcurve"/>
      <point x="71" y="182"/>
      <point x="77" y="182"/>
      <point x="79" y="182" type="qcurve"/>
      <point x="84" y="183" type="line"/>
      <point x="126" y="193"/>
      <point x="179" y="224"/>
      <point x="222" y="261"/>
      <point x="266" y="302"/>
      <point x="300" y="321" type="qcurve"/>
      <point x="319" y="352"/>
      <point x="401" y="404"/>
      <point x="497" y="443"/>
      <point x="594" y="470"/>
      <point x="628" y="478" type="qcurve"/>
      <point x="550" y="504"/>
      <point x="385" y="534"/>
      <point x="305" y="554" type="qcurve"/>
      <point x="228" y="571" type="line"/>
      <point x="212" y="575" type="line"/>
      <point x="207" y="576" type="line"/>
      <point x="207" y="578"/>
      <point x="215" y="599"/>
      <point x="227" y="629"/>
      <point x="242" y="664"/>
      <point x="254" y="696"/>
      <point x="264" y="718"/>
      <point x="266" y="719" type="qcurve"/>
      <point x="285" y="719"/>
      <point x="364" y="721"/>
      <point x="463" y="728"/>
      <point x="566" y="743"/>
      <point x="652" y="769"/>
      <point x="707" y="809"/>
      <point x="707" y="837" type="qcurve"/>
      <point x="707" y="868"/>
      <point x="699" y="933"/>
      <point x="692" y="999"/>
      <point x="687" y="1064"/>
      <point x="689" y="1095" type="qcurve"/>
      <point x="688" y="1097" type="line"/>
      <point x="688" y="1109" type="line"/>
      <point x="687" y="1111" type="line"/>
      <point x="687" y="1121" type="line"/>
      <point x="686" y="1121"/>
      <point x="686" y="1125" type="qcurve"/>
      <point x="685" y="1142" type="line"/>
      <point x="685" y="1158"/>
      <point x="682" y="1191"/>
      <point x="680" y="1208" type="qcurve"/>
      <point x="679" y="1242" type="line"/>
      <point x="678" y="1247" type="line"/>
      <point x="677" y="1257" type="line"/>
      <point x="675" y="1283" type="line"/>
      <point x="669" y="1370" type="line"/>
      <point x="662" y="1466" type="line"/>
      <point x="664" y="1472"/>
      <point x="669" y="1486"/>
      <point x="675" y="1486" type="qcurve"/>
      <point x="691" y="1513"/>
      <point x="721" y="1572"/>
    </contour>
  </outline>
</glyph>
